G04 #@! TF.GenerationSoftware,KiCad,Pcbnew,(6.0.2)*
G04 #@! TF.CreationDate,2022-03-04T11:28:50+07:00*
G04 #@! TF.ProjectId,zeabus_hydrophone,7a656162-7573-45f6-9879-64726f70686f,3.1.0*
G04 #@! TF.SameCoordinates,Original*
G04 #@! TF.FileFunction,Soldermask,Bot*
G04 #@! TF.FilePolarity,Negative*
%FSLAX46Y46*%
G04 Gerber Fmt 4.6, Leading zero omitted, Abs format (unit mm)*
G04 Created by KiCad (PCBNEW (6.0.2)) date 2022-03-04 11:28:50*
%MOMM*%
%LPD*%
G01*
G04 APERTURE LIST*
G04 #@! TA.AperFunction,Profile*
%ADD10C,0.050000*%
G04 #@! TD*
%ADD11C,1.506220*%
%ADD12R,1.700000X1.700000*%
%ADD13O,1.700000X1.700000*%
%ADD14C,2.200000*%
G04 APERTURE END LIST*
D10*
X178000000Y-56000000D02*
X78000000Y-56000000D01*
X78000000Y-126000000D02*
X178000000Y-126000000D01*
X78000000Y-56000000D02*
X78000000Y-126000000D01*
X178000000Y-126000000D02*
X178000000Y-56000000D01*
D11*
X174200000Y-116000000D03*
X171660000Y-113460000D03*
X176740000Y-113460000D03*
X171660000Y-118540000D03*
X176740000Y-118540000D03*
D12*
X101040000Y-57930400D03*
D13*
X98500000Y-57930400D03*
X95960000Y-57930400D03*
X93420000Y-57930400D03*
X90880000Y-57930400D03*
X88340000Y-57930400D03*
X85800000Y-57930400D03*
D12*
X166646000Y-58540000D03*
X166646000Y-75050000D03*
X139163200Y-122294000D03*
X166646000Y-108324000D03*
D11*
X174200000Y-66000000D03*
X171660000Y-63460000D03*
X176740000Y-63460000D03*
X171660000Y-68540000D03*
X176740000Y-68540000D03*
X174200000Y-82600000D03*
X171660000Y-80060000D03*
X176740000Y-80060000D03*
X171660000Y-85140000D03*
X176740000Y-85140000D03*
X174200000Y-99200000D03*
X171660000Y-96660000D03*
X176740000Y-96660000D03*
X171660000Y-101740000D03*
X176740000Y-101740000D03*
D12*
X166646000Y-91560000D03*
X154200000Y-122294000D03*
D14*
X175000000Y-59000000D03*
X81000000Y-123000000D03*
X81000000Y-59000000D03*
X175000000Y-123000000D03*
M02*
