G04 #@! TF.GenerationSoftware,KiCad,Pcbnew,(6.0.2)*
G04 #@! TF.CreationDate,2022-03-04T11:28:50+07:00*
G04 #@! TF.ProjectId,zeabus_hydrophone,7a656162-7573-45f6-9879-64726f70686f,3.1.0*
G04 #@! TF.SameCoordinates,Original*
G04 #@! TF.FileFunction,Copper,L1,Top*
G04 #@! TF.FilePolarity,Positive*
%FSLAX46Y46*%
G04 Gerber Fmt 4.6, Leading zero omitted, Abs format (unit mm)*
G04 Created by KiCad (PCBNEW (6.0.2)) date 2022-03-04 11:28:50*
%MOMM*%
%LPD*%
G01*
G04 APERTURE LIST*
G04 Aperture macros list*
%AMRoundRect*
0 Rectangle with rounded corners*
0 $1 Rounding radius*
0 $2 $3 $4 $5 $6 $7 $8 $9 X,Y pos of 4 corners*
0 Add a 4 corners polygon primitive as box body*
4,1,4,$2,$3,$4,$5,$6,$7,$8,$9,$2,$3,0*
0 Add four circle primitives for the rounded corners*
1,1,$1+$1,$2,$3*
1,1,$1+$1,$4,$5*
1,1,$1+$1,$6,$7*
1,1,$1+$1,$8,$9*
0 Add four rect primitives between the rounded corners*
20,1,$1+$1,$2,$3,$4,$5,0*
20,1,$1+$1,$4,$5,$6,$7,0*
20,1,$1+$1,$6,$7,$8,$9,0*
20,1,$1+$1,$8,$9,$2,$3,0*%
G04 Aperture macros list end*
G04 #@! TA.AperFunction,Profile*
%ADD10C,0.050000*%
G04 #@! TD*
%ADD11C,0.200000*%
G04 #@! TA.AperFunction,NonConductor*
%ADD12C,0.200000*%
G04 #@! TD*
G04 #@! TA.AperFunction,SMDPad,CuDef*
%ADD13RoundRect,0.237500X0.300000X0.237500X-0.300000X0.237500X-0.300000X-0.237500X0.300000X-0.237500X0*%
G04 #@! TD*
G04 #@! TA.AperFunction,SMDPad,CuDef*
%ADD14RoundRect,0.237500X0.237500X-0.300000X0.237500X0.300000X-0.237500X0.300000X-0.237500X-0.300000X0*%
G04 #@! TD*
G04 #@! TA.AperFunction,SMDPad,CuDef*
%ADD15RoundRect,0.237500X-0.237500X0.287500X-0.237500X-0.287500X0.237500X-0.287500X0.237500X0.287500X0*%
G04 #@! TD*
G04 #@! TA.AperFunction,SMDPad,CuDef*
%ADD16RoundRect,0.237500X-0.287500X-0.237500X0.287500X-0.237500X0.287500X0.237500X-0.287500X0.237500X0*%
G04 #@! TD*
G04 #@! TA.AperFunction,SMDPad,CuDef*
%ADD17RoundRect,0.237500X0.237500X-0.287500X0.237500X0.287500X-0.237500X0.287500X-0.237500X-0.287500X0*%
G04 #@! TD*
G04 #@! TA.AperFunction,SMDPad,CuDef*
%ADD18RoundRect,0.237500X-0.300000X-0.237500X0.300000X-0.237500X0.300000X0.237500X-0.300000X0.237500X0*%
G04 #@! TD*
G04 #@! TA.AperFunction,ComponentPad*
%ADD19C,1.506220*%
G04 #@! TD*
G04 #@! TA.AperFunction,ComponentPad*
%ADD20R,1.700000X1.700000*%
G04 #@! TD*
G04 #@! TA.AperFunction,ComponentPad*
%ADD21O,1.700000X1.700000*%
G04 #@! TD*
G04 #@! TA.AperFunction,SMDPad,CuDef*
%ADD22RoundRect,0.150000X0.150000X-0.825000X0.150000X0.825000X-0.150000X0.825000X-0.150000X-0.825000X0*%
G04 #@! TD*
G04 #@! TA.AperFunction,SMDPad,CuDef*
%ADD23R,0.800000X0.500000*%
G04 #@! TD*
G04 #@! TA.AperFunction,SMDPad,CuDef*
%ADD24R,0.800000X0.400000*%
G04 #@! TD*
G04 #@! TA.AperFunction,SMDPad,CuDef*
%ADD25R,0.500000X0.800000*%
G04 #@! TD*
G04 #@! TA.AperFunction,SMDPad,CuDef*
%ADD26R,0.400000X0.800000*%
G04 #@! TD*
G04 #@! TA.AperFunction,SMDPad,CuDef*
%ADD27R,1.130000X0.250000*%
G04 #@! TD*
G04 #@! TA.AperFunction,SMDPad,CuDef*
%ADD28R,0.250000X1.130000*%
G04 #@! TD*
G04 #@! TA.AperFunction,SMDPad,CuDef*
%ADD29RoundRect,0.062500X0.375000X0.062500X-0.375000X0.062500X-0.375000X-0.062500X0.375000X-0.062500X0*%
G04 #@! TD*
G04 #@! TA.AperFunction,SMDPad,CuDef*
%ADD30RoundRect,0.062500X0.062500X0.375000X-0.062500X0.375000X-0.062500X-0.375000X0.062500X-0.375000X0*%
G04 #@! TD*
G04 #@! TA.AperFunction,SMDPad,CuDef*
%ADD31R,2.500000X2.500000*%
G04 #@! TD*
G04 #@! TA.AperFunction,SMDPad,CuDef*
%ADD32RoundRect,0.100000X0.100000X-0.637500X0.100000X0.637500X-0.100000X0.637500X-0.100000X-0.637500X0*%
G04 #@! TD*
G04 #@! TA.AperFunction,SMDPad,CuDef*
%ADD33R,1.000000X3.150000*%
G04 #@! TD*
G04 #@! TA.AperFunction,SMDPad,CuDef*
%ADD34RoundRect,0.250000X-0.325000X-0.450000X0.325000X-0.450000X0.325000X0.450000X-0.325000X0.450000X0*%
G04 #@! TD*
G04 #@! TA.AperFunction,SMDPad,CuDef*
%ADD35RoundRect,0.150000X-0.150000X0.512500X-0.150000X-0.512500X0.150000X-0.512500X0.150000X0.512500X0*%
G04 #@! TD*
G04 #@! TA.AperFunction,SMDPad,CuDef*
%ADD36RoundRect,0.237500X-0.237500X0.300000X-0.237500X-0.300000X0.237500X-0.300000X0.237500X0.300000X0*%
G04 #@! TD*
G04 #@! TA.AperFunction,SMDPad,CuDef*
%ADD37RoundRect,0.250000X0.475000X-0.337500X0.475000X0.337500X-0.475000X0.337500X-0.475000X-0.337500X0*%
G04 #@! TD*
G04 #@! TA.AperFunction,ViaPad*
%ADD38C,0.450000*%
G04 #@! TD*
G04 #@! TA.AperFunction,Conductor*
%ADD39C,0.200000*%
G04 #@! TD*
G04 #@! TA.AperFunction,Conductor*
%ADD40C,0.500000*%
G04 #@! TD*
G04 APERTURE END LIST*
D10*
X178000000Y-56000000D02*
X78000000Y-56000000D01*
X78000000Y-126000000D02*
X178000000Y-126000000D01*
X78000000Y-56000000D02*
X78000000Y-126000000D01*
X178000000Y-126000000D02*
X178000000Y-56000000D01*
D11*
D12*
X84160428Y-94418761D02*
X84303285Y-94466380D01*
X84541380Y-94466380D01*
X84636619Y-94418761D01*
X84684238Y-94371142D01*
X84731857Y-94275904D01*
X84731857Y-94180666D01*
X84684238Y-94085428D01*
X84636619Y-94037809D01*
X84541380Y-93990190D01*
X84350904Y-93942571D01*
X84255666Y-93894952D01*
X84208047Y-93847333D01*
X84160428Y-93752095D01*
X84160428Y-93656857D01*
X84208047Y-93561619D01*
X84255666Y-93514000D01*
X84350904Y-93466380D01*
X84589000Y-93466380D01*
X84731857Y-93514000D01*
X85160428Y-93942571D02*
X85493761Y-93942571D01*
X85636619Y-94466380D02*
X85160428Y-94466380D01*
X85160428Y-93466380D01*
X85636619Y-93466380D01*
X86017571Y-94180666D02*
X86493761Y-94180666D01*
X85922333Y-94466380D02*
X86255666Y-93466380D01*
X86589000Y-94466380D01*
X86922333Y-94466380D02*
X86922333Y-93466380D01*
X87303285Y-93466380D01*
X87398523Y-93514000D01*
X87446142Y-93561619D01*
X87493761Y-93656857D01*
X87493761Y-93799714D01*
X87446142Y-93894952D01*
X87398523Y-93942571D01*
X87303285Y-93990190D01*
X86922333Y-93990190D01*
X87922333Y-93466380D02*
X87922333Y-94275904D01*
X87969952Y-94371142D01*
X88017571Y-94418761D01*
X88112809Y-94466380D01*
X88303285Y-94466380D01*
X88398523Y-94418761D01*
X88446142Y-94371142D01*
X88493761Y-94275904D01*
X88493761Y-93466380D01*
X88969952Y-94466380D02*
X88969952Y-93466380D01*
X89350904Y-93466380D01*
X89446142Y-93514000D01*
X89493761Y-93561619D01*
X89541380Y-93656857D01*
X89541380Y-93799714D01*
X89493761Y-93894952D01*
X89446142Y-93942571D01*
X89350904Y-93990190D01*
X88969952Y-93990190D01*
X90731857Y-94466380D02*
X90731857Y-93466380D01*
X90731857Y-93942571D02*
X91303285Y-93942571D01*
X91303285Y-94466380D02*
X91303285Y-93466380D01*
X91684238Y-93799714D02*
X91922333Y-94466380D01*
X92160428Y-93799714D02*
X91922333Y-94466380D01*
X91827095Y-94704476D01*
X91779476Y-94752095D01*
X91684238Y-94799714D01*
X92969952Y-94466380D02*
X92969952Y-93466380D01*
X92969952Y-94418761D02*
X92874714Y-94466380D01*
X92684238Y-94466380D01*
X92589000Y-94418761D01*
X92541380Y-94371142D01*
X92493761Y-94275904D01*
X92493761Y-93990190D01*
X92541380Y-93894952D01*
X92589000Y-93847333D01*
X92684238Y-93799714D01*
X92874714Y-93799714D01*
X92969952Y-93847333D01*
X93446142Y-94466380D02*
X93446142Y-93799714D01*
X93446142Y-93990190D02*
X93493761Y-93894952D01*
X93541380Y-93847333D01*
X93636619Y-93799714D01*
X93731857Y-93799714D01*
X94208047Y-94466380D02*
X94112809Y-94418761D01*
X94065190Y-94371142D01*
X94017571Y-94275904D01*
X94017571Y-93990190D01*
X94065190Y-93894952D01*
X94112809Y-93847333D01*
X94208047Y-93799714D01*
X94350904Y-93799714D01*
X94446142Y-93847333D01*
X94493761Y-93894952D01*
X94541380Y-93990190D01*
X94541380Y-94275904D01*
X94493761Y-94371142D01*
X94446142Y-94418761D01*
X94350904Y-94466380D01*
X94208047Y-94466380D01*
X94969952Y-93799714D02*
X94969952Y-94799714D01*
X94969952Y-93847333D02*
X95065190Y-93799714D01*
X95255666Y-93799714D01*
X95350904Y-93847333D01*
X95398523Y-93894952D01*
X95446142Y-93990190D01*
X95446142Y-94275904D01*
X95398523Y-94371142D01*
X95350904Y-94418761D01*
X95255666Y-94466380D01*
X95065190Y-94466380D01*
X94969952Y-94418761D01*
X95874714Y-94466380D02*
X95874714Y-93466380D01*
X96303285Y-94466380D02*
X96303285Y-93942571D01*
X96255666Y-93847333D01*
X96160428Y-93799714D01*
X96017571Y-93799714D01*
X95922333Y-93847333D01*
X95874714Y-93894952D01*
X96922333Y-94466380D02*
X96827095Y-94418761D01*
X96779476Y-94371142D01*
X96731857Y-94275904D01*
X96731857Y-93990190D01*
X96779476Y-93894952D01*
X96827095Y-93847333D01*
X96922333Y-93799714D01*
X97065190Y-93799714D01*
X97160428Y-93847333D01*
X97208047Y-93894952D01*
X97255666Y-93990190D01*
X97255666Y-94275904D01*
X97208047Y-94371142D01*
X97160428Y-94418761D01*
X97065190Y-94466380D01*
X96922333Y-94466380D01*
X97684238Y-93799714D02*
X97684238Y-94466380D01*
X97684238Y-93894952D02*
X97731857Y-93847333D01*
X97827095Y-93799714D01*
X97969952Y-93799714D01*
X98065190Y-93847333D01*
X98112809Y-93942571D01*
X98112809Y-94466380D01*
X98969952Y-94418761D02*
X98874714Y-94466380D01*
X98684238Y-94466380D01*
X98589000Y-94418761D01*
X98541380Y-94323523D01*
X98541380Y-93942571D01*
X98589000Y-93847333D01*
X98684238Y-93799714D01*
X98874714Y-93799714D01*
X98969952Y-93847333D01*
X99017571Y-93942571D01*
X99017571Y-94037809D01*
X98541380Y-94133047D01*
X87208047Y-96076380D02*
X87208047Y-95076380D01*
X87208047Y-95457333D02*
X87303285Y-95409714D01*
X87493761Y-95409714D01*
X87589000Y-95457333D01*
X87636619Y-95504952D01*
X87684238Y-95600190D01*
X87684238Y-95885904D01*
X87636619Y-95981142D01*
X87589000Y-96028761D01*
X87493761Y-96076380D01*
X87303285Y-96076380D01*
X87208047Y-96028761D01*
X88017571Y-95409714D02*
X88255666Y-96076380D01*
X88493761Y-95409714D02*
X88255666Y-96076380D01*
X88160428Y-96314476D01*
X88112809Y-96362095D01*
X88017571Y-96409714D01*
X89589000Y-95790666D02*
X90065190Y-95790666D01*
X89493761Y-96076380D02*
X89827095Y-95076380D01*
X90160428Y-96076380D01*
X90493761Y-96076380D02*
X90493761Y-95076380D01*
X90589000Y-95695428D02*
X90874714Y-96076380D01*
X90874714Y-95409714D02*
X90493761Y-95790666D01*
X91303285Y-96076380D02*
X91303285Y-95409714D01*
X91303285Y-95600190D02*
X91350904Y-95504952D01*
X91398523Y-95457333D01*
X91493761Y-95409714D01*
X91589000Y-95409714D01*
X92350904Y-96076380D02*
X92350904Y-95552571D01*
X92303285Y-95457333D01*
X92208047Y-95409714D01*
X92017571Y-95409714D01*
X91922333Y-95457333D01*
X92350904Y-96028761D02*
X92255666Y-96076380D01*
X92017571Y-96076380D01*
X91922333Y-96028761D01*
X91874714Y-95933523D01*
X91874714Y-95838285D01*
X91922333Y-95743047D01*
X92017571Y-95695428D01*
X92255666Y-95695428D01*
X92350904Y-95647809D01*
X92827095Y-95409714D02*
X92827095Y-96409714D01*
X92827095Y-95457333D02*
X92922333Y-95409714D01*
X93112809Y-95409714D01*
X93208047Y-95457333D01*
X93255666Y-95504952D01*
X93303285Y-95600190D01*
X93303285Y-95885904D01*
X93255666Y-95981142D01*
X93208047Y-96028761D01*
X93112809Y-96076380D01*
X92922333Y-96076380D01*
X92827095Y-96028761D01*
X93874714Y-96076380D02*
X93779476Y-96028761D01*
X93731857Y-95981142D01*
X93684238Y-95885904D01*
X93684238Y-95600190D01*
X93731857Y-95504952D01*
X93779476Y-95457333D01*
X93874714Y-95409714D01*
X94017571Y-95409714D01*
X94112809Y-95457333D01*
X94160428Y-95504952D01*
X94208047Y-95600190D01*
X94208047Y-95885904D01*
X94160428Y-95981142D01*
X94112809Y-96028761D01*
X94017571Y-96076380D01*
X93874714Y-96076380D01*
X94636619Y-95409714D02*
X94636619Y-96076380D01*
X94636619Y-95504952D02*
X94684238Y-95457333D01*
X94779476Y-95409714D01*
X94922333Y-95409714D01*
X95017571Y-95457333D01*
X95065190Y-95552571D01*
X95065190Y-96076380D01*
X95969952Y-95409714D02*
X95969952Y-96219238D01*
X95922333Y-96314476D01*
X95874714Y-96362095D01*
X95779476Y-96409714D01*
X95636619Y-96409714D01*
X95541380Y-96362095D01*
X95969952Y-96028761D02*
X95874714Y-96076380D01*
X95684238Y-96076380D01*
X95589000Y-96028761D01*
X95541380Y-95981142D01*
X95493761Y-95885904D01*
X95493761Y-95600190D01*
X95541380Y-95504952D01*
X95589000Y-95457333D01*
X95684238Y-95409714D01*
X95874714Y-95409714D01*
X95969952Y-95457333D01*
X86160428Y-96686380D02*
X86493761Y-97686380D01*
X86827095Y-96686380D01*
X87160428Y-97591142D02*
X87208047Y-97638761D01*
X87160428Y-97686380D01*
X87112809Y-97638761D01*
X87160428Y-97591142D01*
X87160428Y-97686380D01*
X87541380Y-96686380D02*
X88160428Y-96686380D01*
X87827095Y-97067333D01*
X87969952Y-97067333D01*
X88065190Y-97114952D01*
X88112809Y-97162571D01*
X88160428Y-97257809D01*
X88160428Y-97495904D01*
X88112809Y-97591142D01*
X88065190Y-97638761D01*
X87969952Y-97686380D01*
X87684238Y-97686380D01*
X87589000Y-97638761D01*
X87541380Y-97591142D01*
X88589000Y-97591142D02*
X88636619Y-97638761D01*
X88589000Y-97686380D01*
X88541380Y-97638761D01*
X88589000Y-97591142D01*
X88589000Y-97686380D01*
X89589000Y-97686380D02*
X89017571Y-97686380D01*
X89303285Y-97686380D02*
X89303285Y-96686380D01*
X89208047Y-96829238D01*
X89112809Y-96924476D01*
X89017571Y-96972095D01*
X90017571Y-97591142D02*
X90065190Y-97638761D01*
X90017571Y-97686380D01*
X89969952Y-97638761D01*
X90017571Y-97591142D01*
X90017571Y-97686380D01*
X90684238Y-96686380D02*
X90779476Y-96686380D01*
X90874714Y-96734000D01*
X90922333Y-96781619D01*
X90969952Y-96876857D01*
X91017571Y-97067333D01*
X91017571Y-97305428D01*
X90969952Y-97495904D01*
X90922333Y-97591142D01*
X90874714Y-97638761D01*
X90779476Y-97686380D01*
X90684238Y-97686380D01*
X90589000Y-97638761D01*
X90541380Y-97591142D01*
X90493761Y-97495904D01*
X90446142Y-97305428D01*
X90446142Y-97067333D01*
X90493761Y-96876857D01*
X90541380Y-96781619D01*
X90589000Y-96734000D01*
X90684238Y-96686380D01*
X92493761Y-98067333D02*
X92446142Y-98019714D01*
X92350904Y-97876857D01*
X92303285Y-97781619D01*
X92255666Y-97638761D01*
X92208047Y-97400666D01*
X92208047Y-97210190D01*
X92255666Y-96972095D01*
X92303285Y-96829238D01*
X92350904Y-96734000D01*
X92446142Y-96591142D01*
X92493761Y-96543523D01*
X92827095Y-96781619D02*
X92874714Y-96734000D01*
X92969952Y-96686380D01*
X93208047Y-96686380D01*
X93303285Y-96734000D01*
X93350904Y-96781619D01*
X93398523Y-96876857D01*
X93398523Y-96972095D01*
X93350904Y-97114952D01*
X92779476Y-97686380D01*
X93398523Y-97686380D01*
X94017571Y-96686380D02*
X94112809Y-96686380D01*
X94208047Y-96734000D01*
X94255666Y-96781619D01*
X94303285Y-96876857D01*
X94350904Y-97067333D01*
X94350904Y-97305428D01*
X94303285Y-97495904D01*
X94255666Y-97591142D01*
X94208047Y-97638761D01*
X94112809Y-97686380D01*
X94017571Y-97686380D01*
X93922333Y-97638761D01*
X93874714Y-97591142D01*
X93827095Y-97495904D01*
X93779476Y-97305428D01*
X93779476Y-97067333D01*
X93827095Y-96876857D01*
X93874714Y-96781619D01*
X93922333Y-96734000D01*
X94017571Y-96686380D01*
X94731857Y-96781619D02*
X94779476Y-96734000D01*
X94874714Y-96686380D01*
X95112809Y-96686380D01*
X95208047Y-96734000D01*
X95255666Y-96781619D01*
X95303285Y-96876857D01*
X95303285Y-96972095D01*
X95255666Y-97114952D01*
X94684238Y-97686380D01*
X95303285Y-97686380D01*
X95684238Y-96781619D02*
X95731857Y-96734000D01*
X95827095Y-96686380D01*
X96065190Y-96686380D01*
X96160428Y-96734000D01*
X96208047Y-96781619D01*
X96255666Y-96876857D01*
X96255666Y-96972095D01*
X96208047Y-97114952D01*
X95636619Y-97686380D01*
X96255666Y-97686380D01*
X96589000Y-98067333D02*
X96636619Y-98019714D01*
X96731857Y-97876857D01*
X96779476Y-97781619D01*
X96827095Y-97638761D01*
X96874714Y-97400666D01*
X96874714Y-97210190D01*
X96827095Y-96972095D01*
X96779476Y-96829238D01*
X96731857Y-96734000D01*
X96636619Y-96591142D01*
X96589000Y-96543523D01*
D13*
X123413000Y-102177200D03*
X121688000Y-102177200D03*
D14*
X113915600Y-98265600D03*
X113915600Y-96540600D03*
X113864800Y-67226800D03*
X113864800Y-65501800D03*
X129358800Y-93182300D03*
X129358800Y-91457300D03*
X132965600Y-96892900D03*
X132965600Y-95167900D03*
D15*
X91970000Y-105036000D03*
X91970000Y-106786000D03*
D14*
X129358800Y-100903900D03*
X129358800Y-99178900D03*
X129308000Y-61965100D03*
X129308000Y-60240100D03*
D15*
X94510000Y-105022000D03*
X94510000Y-106772000D03*
X97050000Y-105022000D03*
X97050000Y-106772000D03*
X99590000Y-105022000D03*
X99590000Y-106772000D03*
D16*
X155508300Y-98164000D03*
X157258300Y-98164000D03*
D17*
X152371200Y-64698200D03*
X152371200Y-62948200D03*
D16*
X155498000Y-66312400D03*
X157248000Y-66312400D03*
X155520800Y-96640000D03*
X157270800Y-96640000D03*
D17*
X153895200Y-64698200D03*
X153895200Y-62948200D03*
D16*
X155509400Y-64788400D03*
X157259400Y-64788400D03*
D17*
X123974000Y-123183000D03*
X123974000Y-121433000D03*
D15*
X162074000Y-100591000D03*
X162074000Y-102341000D03*
X162074000Y-67317000D03*
X162074000Y-69067000D03*
D16*
X163231000Y-105530000D03*
X164981000Y-105530000D03*
D17*
X125498000Y-123183000D03*
X125498000Y-121433000D03*
D15*
X169186000Y-98813000D03*
X169186000Y-100563000D03*
X169186000Y-65539000D03*
X169186000Y-67289000D03*
D16*
X141782000Y-70097000D03*
X143532000Y-70097000D03*
X141731200Y-74973800D03*
X143481200Y-74973800D03*
X141681500Y-106875100D03*
X143431500Y-106875100D03*
D15*
X155470000Y-70935200D03*
X155470000Y-72685200D03*
X152371200Y-71674400D03*
X152371200Y-73424400D03*
X153946000Y-103588200D03*
X153946000Y-105338200D03*
X152422000Y-103588200D03*
X152422000Y-105338200D03*
X162074000Y-83827000D03*
X162074000Y-85577000D03*
X162074000Y-117355000D03*
X162074000Y-119105000D03*
D16*
X163231000Y-88766000D03*
X164981000Y-88766000D03*
X163231000Y-122294000D03*
X164981000Y-122294000D03*
D15*
X169186000Y-82190000D03*
X169186000Y-83940000D03*
X169186000Y-115577000D03*
X169186000Y-117327000D03*
X129943000Y-120671000D03*
X129943000Y-122421000D03*
X134896000Y-120671000D03*
X134896000Y-122421000D03*
D13*
X163799000Y-110102000D03*
X162074000Y-110102000D03*
D14*
X169998800Y-109287000D03*
X169998800Y-107562000D03*
D18*
X166699000Y-87242000D03*
X168424000Y-87242000D03*
D15*
X89430000Y-105022000D03*
X89430000Y-106772000D03*
D13*
X163799000Y-78098000D03*
X162074000Y-78098000D03*
D18*
X166699000Y-120770000D03*
X168424000Y-120770000D03*
D13*
X163799000Y-111626000D03*
X162074000Y-111626000D03*
D18*
X155520800Y-99688000D03*
X157245800Y-99688000D03*
X166699000Y-88766000D03*
X168424000Y-88766000D03*
D13*
X163799000Y-76574000D03*
X162074000Y-76574000D03*
D19*
X174200000Y-116000000D03*
X171660000Y-113460000D03*
X176740000Y-113460000D03*
X171660000Y-118540000D03*
X176740000Y-118540000D03*
D18*
X155521900Y-69360400D03*
X157246900Y-69360400D03*
D14*
X141653500Y-105249500D03*
X141653500Y-103524500D03*
X149374000Y-105325700D03*
X149374000Y-103600700D03*
D13*
X164968500Y-120770000D03*
X163243500Y-120770000D03*
D20*
X101040000Y-57930400D03*
D21*
X98500000Y-57930400D03*
X95960000Y-57930400D03*
X93420000Y-57930400D03*
X90880000Y-57930400D03*
X88340000Y-57930400D03*
X85800000Y-57930400D03*
D14*
X150898000Y-105325700D03*
X150898000Y-103600700D03*
D13*
X164968500Y-87242000D03*
X163243500Y-87242000D03*
D14*
X169998800Y-75964400D03*
X169998800Y-74239400D03*
D13*
X123514600Y-71290800D03*
X121789600Y-71290800D03*
X123466000Y-88815700D03*
X121741000Y-88815700D03*
X123466000Y-90339700D03*
X121741000Y-90339700D03*
D20*
X166646000Y-58540000D03*
D22*
X163725000Y-68635000D03*
X164995000Y-68635000D03*
X166265000Y-68635000D03*
X167535000Y-68635000D03*
X167535000Y-63685000D03*
X166265000Y-63685000D03*
X164995000Y-63685000D03*
X163725000Y-63685000D03*
D23*
X108719600Y-60044800D03*
D24*
X108719600Y-59244800D03*
X108719600Y-58444800D03*
D23*
X108719600Y-57644800D03*
X106919600Y-57644800D03*
D24*
X106919600Y-58444800D03*
X106919600Y-59244800D03*
D23*
X106919600Y-60044800D03*
D25*
X114633000Y-73007000D03*
D26*
X113833000Y-73007000D03*
X113033000Y-73007000D03*
D25*
X112233000Y-73007000D03*
X112233000Y-74807000D03*
D26*
X113033000Y-74807000D03*
X113833000Y-74807000D03*
D25*
X114633000Y-74807000D03*
D23*
X108719600Y-95147600D03*
D24*
X108719600Y-94347600D03*
X108719600Y-93547600D03*
D23*
X108719600Y-92747600D03*
X106919600Y-92747600D03*
D24*
X106919600Y-93547600D03*
X106919600Y-94347600D03*
D23*
X106919600Y-95147600D03*
X108719600Y-98906800D03*
D24*
X108719600Y-98106800D03*
X108719600Y-97306800D03*
D23*
X108719600Y-96506800D03*
X106919600Y-96506800D03*
D24*
X106919600Y-97306800D03*
X106919600Y-98106800D03*
D23*
X106919600Y-98906800D03*
D25*
X114633000Y-105011000D03*
D26*
X113833000Y-105011000D03*
X113033000Y-105011000D03*
D25*
X112233000Y-105011000D03*
X112233000Y-106811000D03*
D26*
X113033000Y-106811000D03*
X113833000Y-106811000D03*
D25*
X114633000Y-106811000D03*
D16*
X141680400Y-91355700D03*
X143430400Y-91355700D03*
X141691800Y-96334100D03*
X143441800Y-96334100D03*
X141680400Y-59810000D03*
X143430400Y-59810000D03*
X141629600Y-64940800D03*
X143379600Y-64940800D03*
D17*
X152422000Y-96600600D03*
X152422000Y-94850600D03*
D13*
X123415200Y-59200400D03*
X121690200Y-59200400D03*
D14*
X149323200Y-73423300D03*
X149323200Y-71698300D03*
X112391600Y-98263400D03*
X112391600Y-96538400D03*
X112340800Y-67224600D03*
X112340800Y-65499600D03*
D17*
X156994000Y-104576200D03*
X156994000Y-102826200D03*
D15*
X109750000Y-105036000D03*
X109750000Y-106786000D03*
X102130000Y-105022000D03*
X102130000Y-106772000D03*
X153895200Y-71674400D03*
X153895200Y-73424400D03*
D17*
X156994000Y-72685200D03*
X156994000Y-70935200D03*
X119859200Y-103966600D03*
X119859200Y-102216600D03*
D15*
X104670000Y-105022000D03*
X104670000Y-106772000D03*
D27*
X123923400Y-68093200D03*
X123923400Y-67693200D03*
X123923400Y-67293200D03*
X123923400Y-66893200D03*
X123923400Y-66493200D03*
X123923400Y-66093200D03*
X123923400Y-65693200D03*
X123923400Y-65293200D03*
X123923400Y-64893200D03*
X123923400Y-64493200D03*
X123923400Y-64093200D03*
X123923400Y-63693200D03*
X123923400Y-63293200D03*
X123923400Y-62893200D03*
X123923400Y-62493200D03*
X123923400Y-62093200D03*
D28*
X122808400Y-60978200D03*
X122408400Y-60978200D03*
X122008400Y-60978200D03*
X121608400Y-60978200D03*
X121208400Y-60978200D03*
X120808400Y-60978200D03*
X120408400Y-60978200D03*
X120008400Y-60978200D03*
X119608400Y-60978200D03*
X119208400Y-60978200D03*
X118808400Y-60978200D03*
X118408400Y-60978200D03*
X118008400Y-60978200D03*
X117608400Y-60978200D03*
X117208400Y-60978200D03*
X116808400Y-60978200D03*
D27*
X115693400Y-62093200D03*
X115693400Y-62493200D03*
X115693400Y-62893200D03*
X115693400Y-63293200D03*
X115693400Y-63693200D03*
X115693400Y-64093200D03*
X115693400Y-64493200D03*
X115693400Y-64893200D03*
X115693400Y-65293200D03*
X115693400Y-65693200D03*
X115693400Y-66093200D03*
X115693400Y-66493200D03*
X115693400Y-66893200D03*
X115693400Y-67293200D03*
X115693400Y-67693200D03*
X115693400Y-68093200D03*
D28*
X116808400Y-69208200D03*
X117208400Y-69208200D03*
X117608400Y-69208200D03*
X118008400Y-69208200D03*
X118408400Y-69208200D03*
X118808400Y-69208200D03*
X119208400Y-69208200D03*
X119608400Y-69208200D03*
X120008400Y-69208200D03*
X120408400Y-69208200D03*
X120808400Y-69208200D03*
X121208400Y-69208200D03*
X121608400Y-69208200D03*
X122008400Y-69208200D03*
X122408400Y-69208200D03*
X122808400Y-69208200D03*
D29*
X153968500Y-69442000D03*
X153968500Y-68942000D03*
X153968500Y-68442000D03*
X153968500Y-67942000D03*
X153968500Y-67442000D03*
X153968500Y-66942000D03*
D30*
X153281000Y-66254500D03*
X152781000Y-66254500D03*
X152281000Y-66254500D03*
X151781000Y-66254500D03*
X151281000Y-66254500D03*
X150781000Y-66254500D03*
D29*
X150093500Y-66942000D03*
X150093500Y-67442000D03*
X150093500Y-67942000D03*
X150093500Y-68442000D03*
X150093500Y-68942000D03*
X150093500Y-69442000D03*
D30*
X150781000Y-70129500D03*
X151281000Y-70129500D03*
X151781000Y-70129500D03*
X152281000Y-70129500D03*
X152781000Y-70129500D03*
X153281000Y-70129500D03*
D31*
X152031000Y-68192000D03*
D32*
X171625600Y-110406800D03*
X172275600Y-110406800D03*
X172925600Y-110406800D03*
X173575600Y-110406800D03*
X174225600Y-110406800D03*
X174875600Y-110406800D03*
X175525600Y-110406800D03*
X175525600Y-104681800D03*
X174875600Y-104681800D03*
X174225600Y-104681800D03*
X173575600Y-104681800D03*
X172925600Y-104681800D03*
X172275600Y-104681800D03*
X171625600Y-104681800D03*
D18*
X155521900Y-67836400D03*
X157246900Y-67836400D03*
D33*
X159275000Y-79525000D03*
X156735000Y-79525000D03*
X154195000Y-79525000D03*
X151655000Y-79525000D03*
X149115000Y-79525000D03*
X146575000Y-79525000D03*
X144035000Y-79525000D03*
X141495000Y-79525000D03*
X138955000Y-79525000D03*
X136415000Y-79525000D03*
X133875000Y-79525000D03*
X131335000Y-79525000D03*
X128795000Y-79525000D03*
X126255000Y-79525000D03*
X123715000Y-79525000D03*
X121175000Y-79525000D03*
X118635000Y-79525000D03*
X116095000Y-79525000D03*
X113555000Y-79525000D03*
X111015000Y-79525000D03*
X108475000Y-79525000D03*
X105935000Y-79525000D03*
X103395000Y-79525000D03*
X100855000Y-79525000D03*
X98315000Y-79525000D03*
X95775000Y-79525000D03*
X93235000Y-79525000D03*
X90695000Y-79525000D03*
X88155000Y-79525000D03*
X85615000Y-79525000D03*
X83075000Y-79525000D03*
X80535000Y-79525000D03*
X159275000Y-84575000D03*
X156735000Y-84575000D03*
X154195000Y-84575000D03*
X151655000Y-84575000D03*
X149115000Y-84575000D03*
X146575000Y-84575000D03*
X144035000Y-84575000D03*
X141495000Y-84575000D03*
X138955000Y-84575000D03*
X136415000Y-84575000D03*
X133875000Y-84575000D03*
X131335000Y-84575000D03*
X128795000Y-84575000D03*
X126255000Y-84575000D03*
X123715000Y-84575000D03*
X121175000Y-84575000D03*
X118635000Y-84575000D03*
X116095000Y-84575000D03*
X113555000Y-84575000D03*
X111015000Y-84575000D03*
X108475000Y-84575000D03*
X105935000Y-84575000D03*
X103395000Y-84575000D03*
X100855000Y-84575000D03*
X98315000Y-84575000D03*
X95775000Y-84575000D03*
X93235000Y-84575000D03*
X90695000Y-84575000D03*
X88155000Y-84575000D03*
X85615000Y-84575000D03*
X83075000Y-84575000D03*
X80535000Y-84575000D03*
X159290200Y-111271600D03*
X156750200Y-111271600D03*
X154210200Y-111271600D03*
X151670200Y-111271600D03*
X149130200Y-111271600D03*
X146590200Y-111271600D03*
X144050200Y-111271600D03*
X141510200Y-111271600D03*
X138970200Y-111271600D03*
X136430200Y-111271600D03*
X133890200Y-111271600D03*
X131350200Y-111271600D03*
X128810200Y-111271600D03*
X126270200Y-111271600D03*
X123730200Y-111271600D03*
X121190200Y-111271600D03*
X118650200Y-111271600D03*
X116110200Y-111271600D03*
X113570200Y-111271600D03*
X111030200Y-111271600D03*
X108490200Y-111271600D03*
X105950200Y-111271600D03*
X103410200Y-111271600D03*
X100870200Y-111271600D03*
X98330200Y-111271600D03*
X95790200Y-111271600D03*
X93250200Y-111271600D03*
X90710200Y-111271600D03*
X88170200Y-111271600D03*
X85630200Y-111271600D03*
X83090200Y-111271600D03*
X80550200Y-111271600D03*
X159290200Y-116321600D03*
X156750200Y-116321600D03*
X154210200Y-116321600D03*
X151670200Y-116321600D03*
X149130200Y-116321600D03*
X146590200Y-116321600D03*
X144050200Y-116321600D03*
X141510200Y-116321600D03*
X138970200Y-116321600D03*
X136430200Y-116321600D03*
X133890200Y-116321600D03*
X131350200Y-116321600D03*
X128810200Y-116321600D03*
X126270200Y-116321600D03*
X123730200Y-116321600D03*
X121190200Y-116321600D03*
X118650200Y-116321600D03*
X116110200Y-116321600D03*
X113570200Y-116321600D03*
X111030200Y-116321600D03*
X108490200Y-116321600D03*
X105950200Y-116321600D03*
X103410200Y-116321600D03*
X100870200Y-116321600D03*
X98330200Y-116321600D03*
X95790200Y-116321600D03*
X93250200Y-116321600D03*
X90710200Y-116321600D03*
X88170200Y-116321600D03*
X85630200Y-116321600D03*
X83090200Y-116321600D03*
X80550200Y-116321600D03*
D23*
X108719600Y-63804000D03*
D24*
X108719600Y-63004000D03*
X108719600Y-62204000D03*
D23*
X108719600Y-61404000D03*
X106919600Y-61404000D03*
D24*
X106919600Y-62204000D03*
X106919600Y-63004000D03*
D23*
X106919600Y-63804000D03*
X108719600Y-67563200D03*
D24*
X108719600Y-66763200D03*
X108719600Y-65963200D03*
D23*
X108719600Y-65163200D03*
X106919600Y-65163200D03*
D24*
X106919600Y-65963200D03*
X106919600Y-66763200D03*
D23*
X106919600Y-67563200D03*
D34*
X117208600Y-121532000D03*
X119258600Y-121532000D03*
D14*
X127428400Y-61992200D03*
X127428400Y-60267200D03*
X127428400Y-93184500D03*
X127428400Y-91459500D03*
D13*
X123516800Y-72814800D03*
X121791800Y-72814800D03*
X123415200Y-57676400D03*
X121690200Y-57676400D03*
D17*
X119859200Y-73091600D03*
X119859200Y-71341600D03*
D35*
X147657000Y-120902500D03*
X146707000Y-120902500D03*
X145757000Y-120902500D03*
X145757000Y-123177500D03*
X147657000Y-123177500D03*
D29*
X153968500Y-101329000D03*
X153968500Y-100829000D03*
X153968500Y-100329000D03*
X153968500Y-99829000D03*
X153968500Y-99329000D03*
X153968500Y-98829000D03*
D30*
X153281000Y-98141500D03*
X152781000Y-98141500D03*
X152281000Y-98141500D03*
X151781000Y-98141500D03*
X151281000Y-98141500D03*
X150781000Y-98141500D03*
D29*
X150093500Y-98829000D03*
X150093500Y-99329000D03*
X150093500Y-99829000D03*
X150093500Y-100329000D03*
X150093500Y-100829000D03*
X150093500Y-101329000D03*
D30*
X150781000Y-102016500D03*
X151281000Y-102016500D03*
X151781000Y-102016500D03*
X152281000Y-102016500D03*
X152781000Y-102016500D03*
X153281000Y-102016500D03*
D31*
X152031000Y-100079000D03*
D13*
X123413000Y-103701200D03*
X121688000Y-103701200D03*
D18*
X166699000Y-122294000D03*
X168424000Y-122294000D03*
D20*
X166646000Y-75050000D03*
X139163200Y-122294000D03*
X166646000Y-108324000D03*
D14*
X150847200Y-73423300D03*
X150847200Y-71698300D03*
D32*
X171681000Y-77277500D03*
X172331000Y-77277500D03*
X172981000Y-77277500D03*
X173631000Y-77277500D03*
X174281000Y-77277500D03*
X174931000Y-77277500D03*
X175581000Y-77277500D03*
X175581000Y-71552500D03*
X174931000Y-71552500D03*
X174281000Y-71552500D03*
X173631000Y-71552500D03*
X172981000Y-71552500D03*
X172331000Y-71552500D03*
X171681000Y-71552500D03*
D18*
X155523000Y-101212000D03*
X157248000Y-101212000D03*
D19*
X174200000Y-66000000D03*
X171660000Y-63460000D03*
X176740000Y-63460000D03*
X171660000Y-68540000D03*
X176740000Y-68540000D03*
X174200000Y-82600000D03*
X171660000Y-80060000D03*
X176740000Y-80060000D03*
X171660000Y-85140000D03*
X176740000Y-85140000D03*
X174200000Y-99200000D03*
X171660000Y-96660000D03*
X176740000Y-96660000D03*
X171660000Y-101740000D03*
X176740000Y-101740000D03*
D20*
X166646000Y-91560000D03*
X154200000Y-122294000D03*
D15*
X107210000Y-105022000D03*
X107210000Y-106772000D03*
D16*
X141681500Y-101896700D03*
X143431500Y-101896700D03*
X163231000Y-72256000D03*
X164981000Y-72256000D03*
D22*
X163725000Y-101909000D03*
X164995000Y-101909000D03*
X166265000Y-101909000D03*
X167535000Y-101909000D03*
X167535000Y-96959000D03*
X166265000Y-96959000D03*
X164995000Y-96959000D03*
X163725000Y-96959000D03*
X163725000Y-118673000D03*
X164995000Y-118673000D03*
X166265000Y-118673000D03*
X167535000Y-118673000D03*
X167535000Y-113723000D03*
X166265000Y-113723000D03*
X164995000Y-113723000D03*
X163725000Y-113723000D03*
X163725000Y-85145000D03*
X164995000Y-85145000D03*
X166265000Y-85145000D03*
X167535000Y-85145000D03*
X167535000Y-80195000D03*
X166265000Y-80195000D03*
X164995000Y-80195000D03*
X163725000Y-80195000D03*
D15*
X155470000Y-102814800D03*
X155470000Y-104564800D03*
D17*
X153946000Y-96600600D03*
X153946000Y-94850600D03*
D23*
X108719600Y-91337600D03*
D24*
X108719600Y-90537600D03*
X108719600Y-89737600D03*
D23*
X108719600Y-88937600D03*
X106919600Y-88937600D03*
D24*
X106919600Y-89737600D03*
X106919600Y-90537600D03*
D23*
X106919600Y-91337600D03*
D18*
X115745500Y-90340800D03*
X117470500Y-90340800D03*
D36*
X115338000Y-121432600D03*
X115338000Y-123157600D03*
D14*
X149551800Y-122700400D03*
X149551800Y-120975400D03*
D36*
X121078400Y-121431500D03*
X121078400Y-123156500D03*
D18*
X115695800Y-59200400D03*
X117420800Y-59200400D03*
D27*
X123923400Y-99181700D03*
X123923400Y-98781700D03*
X123923400Y-98381700D03*
X123923400Y-97981700D03*
X123923400Y-97581700D03*
X123923400Y-97181700D03*
X123923400Y-96781700D03*
X123923400Y-96381700D03*
X123923400Y-95981700D03*
X123923400Y-95581700D03*
X123923400Y-95181700D03*
X123923400Y-94781700D03*
X123923400Y-94381700D03*
X123923400Y-93981700D03*
X123923400Y-93581700D03*
X123923400Y-93181700D03*
D28*
X122808400Y-92066700D03*
X122408400Y-92066700D03*
X122008400Y-92066700D03*
X121608400Y-92066700D03*
X121208400Y-92066700D03*
X120808400Y-92066700D03*
X120408400Y-92066700D03*
X120008400Y-92066700D03*
X119608400Y-92066700D03*
X119208400Y-92066700D03*
X118808400Y-92066700D03*
X118408400Y-92066700D03*
X118008400Y-92066700D03*
X117608400Y-92066700D03*
X117208400Y-92066700D03*
X116808400Y-92066700D03*
D27*
X115693400Y-93181700D03*
X115693400Y-93581700D03*
X115693400Y-93981700D03*
X115693400Y-94381700D03*
X115693400Y-94781700D03*
X115693400Y-95181700D03*
X115693400Y-95581700D03*
X115693400Y-95981700D03*
X115693400Y-96381700D03*
X115693400Y-96781700D03*
X115693400Y-97181700D03*
X115693400Y-97581700D03*
X115693400Y-97981700D03*
X115693400Y-98381700D03*
X115693400Y-98781700D03*
X115693400Y-99181700D03*
D28*
X116808400Y-100296700D03*
X117208400Y-100296700D03*
X117608400Y-100296700D03*
X118008400Y-100296700D03*
X118408400Y-100296700D03*
X118808400Y-100296700D03*
X119208400Y-100296700D03*
X119608400Y-100296700D03*
X120008400Y-100296700D03*
X120408400Y-100296700D03*
X120808400Y-100296700D03*
X121208400Y-100296700D03*
X121608400Y-100296700D03*
X122008400Y-100296700D03*
X122408400Y-100296700D03*
X122808400Y-100296700D03*
D37*
X131187600Y-93235300D03*
X131187600Y-91160300D03*
D14*
X143862200Y-122751200D03*
X143862200Y-121026200D03*
D18*
X115694700Y-57676400D03*
X117419700Y-57676400D03*
X115746600Y-88816800D03*
X117471600Y-88816800D03*
D14*
X129308000Y-69737500D03*
X129308000Y-68012500D03*
X129308000Y-65875600D03*
X129308000Y-64150600D03*
D18*
X133017500Y-69991500D03*
X134742500Y-69991500D03*
X133017500Y-67705500D03*
X134742500Y-67705500D03*
X133018600Y-62269900D03*
X134743600Y-62269900D03*
X133018600Y-101058500D03*
X134743600Y-101058500D03*
X133017500Y-98772500D03*
X134742500Y-98772500D03*
X133017500Y-93336900D03*
X134742500Y-93336900D03*
X133017500Y-91050900D03*
X134742500Y-91050900D03*
D37*
X131136800Y-69889900D03*
X131136800Y-67814900D03*
X131136800Y-66029100D03*
X131136800Y-63954100D03*
X131136800Y-62168300D03*
X131136800Y-60093300D03*
X131187600Y-100956900D03*
X131187600Y-98881900D03*
X131187600Y-97096100D03*
X131187600Y-95021100D03*
D36*
X125904400Y-68012500D03*
X125904400Y-69737500D03*
X125904400Y-99181100D03*
X125904400Y-100906100D03*
D18*
X116254600Y-71290800D03*
X117979600Y-71290800D03*
X116305400Y-102177200D03*
X118030400Y-102177200D03*
D36*
X127428400Y-68011400D03*
X127428400Y-69736400D03*
X127428400Y-99180000D03*
X127428400Y-100905000D03*
D18*
X116254600Y-72814800D03*
X117979600Y-72814800D03*
X116305400Y-103701200D03*
X118030400Y-103701200D03*
D14*
X125904400Y-61992200D03*
X125904400Y-60267200D03*
X125904400Y-93183400D03*
X125904400Y-91458400D03*
D18*
X133016400Y-59983900D03*
X134741400Y-59983900D03*
D17*
X133245000Y-122421000D03*
X133245000Y-120671000D03*
X131594000Y-122421000D03*
X131594000Y-120671000D03*
D14*
X143431500Y-105249500D03*
X143431500Y-103524500D03*
D18*
X166699000Y-70732000D03*
X168424000Y-70732000D03*
D17*
X107260800Y-124298000D03*
X107260800Y-122548000D03*
X99132800Y-124298000D03*
X99132800Y-122548000D03*
D14*
X149323200Y-64686800D03*
X149323200Y-62961800D03*
D13*
X164968500Y-104006000D03*
X163243500Y-104006000D03*
D14*
X143379600Y-73399000D03*
X143379600Y-71674000D03*
D18*
X146836200Y-68547600D03*
X148561200Y-68547600D03*
D13*
X163799000Y-60064000D03*
X162074000Y-60064000D03*
D14*
X150847200Y-64686800D03*
X150847200Y-62961800D03*
D13*
X163799000Y-93338000D03*
X162074000Y-93338000D03*
D18*
X146836200Y-100399200D03*
X148561200Y-100399200D03*
D17*
X100758400Y-124298000D03*
X100758400Y-122548000D03*
D14*
X143407600Y-63264400D03*
X143407600Y-61539400D03*
X149374000Y-96589200D03*
X149374000Y-94864200D03*
D17*
X97507200Y-124298000D03*
X97507200Y-122548000D03*
D18*
X146836200Y-98875200D03*
X148561200Y-98875200D03*
X166699000Y-105530000D03*
X168424000Y-105530000D03*
D13*
X163799000Y-61588000D03*
X162074000Y-61588000D03*
D14*
X141652400Y-94708500D03*
X141652400Y-92983500D03*
X141629600Y-63262200D03*
X141629600Y-61537200D03*
D17*
X102384000Y-124298000D03*
X102384000Y-122548000D03*
D14*
X150898000Y-96589200D03*
X150898000Y-94864200D03*
D17*
X104009600Y-124298000D03*
X104009600Y-122548000D03*
X105635200Y-124298000D03*
X105635200Y-122548000D03*
D13*
X164968500Y-70732000D03*
X163243500Y-70732000D03*
D17*
X108886400Y-124298000D03*
X108886400Y-122548000D03*
D14*
X143481200Y-94708500D03*
X143481200Y-92983500D03*
D18*
X166699000Y-104006000D03*
X168424000Y-104006000D03*
X146836200Y-67023600D03*
X148561200Y-67023600D03*
D17*
X95881600Y-124298000D03*
X95881600Y-122548000D03*
D14*
X141754000Y-73399000D03*
X141754000Y-71674000D03*
D18*
X166699000Y-72256000D03*
X168424000Y-72256000D03*
D13*
X163799000Y-94862000D03*
X162074000Y-94862000D03*
D38*
X147469000Y-97910000D03*
X111655000Y-68319000D03*
X80550200Y-113774800D03*
X144573400Y-73424400D03*
X127530000Y-121532000D03*
X127403000Y-101974000D03*
X135404000Y-64890000D03*
X127403000Y-70859000D03*
X118513000Y-57651000D03*
X117497000Y-87750000D03*
X152549000Y-67684000D03*
X151533000Y-99561000D03*
X148104000Y-104387000D03*
X169567000Y-105530000D03*
X156735000Y-82040000D03*
X127403000Y-59175000D03*
X169567000Y-72256000D03*
X110131000Y-124326000D03*
X152549000Y-100577000D03*
X168424000Y-123564000D03*
X135658000Y-96005000D03*
X152549000Y-68573000D03*
X118005000Y-73907000D03*
X121053000Y-124326000D03*
X152549000Y-99561000D03*
X174520000Y-109086000D03*
X156750200Y-113774800D03*
X121815000Y-73907000D03*
X115338000Y-124326000D03*
X151406000Y-67684000D03*
X121688000Y-104768000D03*
X144421000Y-94735000D03*
X151533000Y-100577000D03*
X118650200Y-113901800D03*
X151406000Y-68573000D03*
X169694000Y-88766000D03*
X133880000Y-95243000D03*
X147723000Y-66033000D03*
X80540000Y-82289000D03*
X121175000Y-82167000D03*
X144548000Y-63239000D03*
X121688000Y-87750000D03*
X150517000Y-122802000D03*
X94510000Y-124326000D03*
X112417000Y-95370000D03*
X144549100Y-105225200D03*
X132229000Y-64001000D03*
X127403000Y-90417000D03*
X120672000Y-57651000D03*
X148231000Y-72510000D03*
X175536000Y-106927000D03*
X118005000Y-104768000D03*
X148358000Y-96259000D03*
X119783000Y-122929000D03*
X123466000Y-87750000D03*
X118767000Y-122929000D03*
X163725000Y-75558000D03*
X124482000Y-57651000D03*
X128165000Y-59175000D03*
X163725000Y-92322000D03*
X123466000Y-73907000D03*
X123466000Y-104768000D03*
X148319953Y-63705490D03*
X163852000Y-109086000D03*
X158264000Y-67049000D03*
X158391000Y-98926000D03*
X128165000Y-90417000D03*
X128165000Y-70859000D03*
X163725000Y-59048000D03*
X128165000Y-101974000D03*
X119275000Y-122929000D03*
X116227000Y-104768000D03*
X173758000Y-78987000D03*
X115338000Y-120135000D03*
X128546000Y-123056000D03*
X114449000Y-57651000D03*
X171346100Y-72892100D03*
X116110200Y-113901800D03*
X115719000Y-87750000D03*
X116227000Y-73907000D03*
X171560900Y-105999900D03*
X111401000Y-98291000D03*
X112290000Y-68319000D03*
X123715000Y-82167000D03*
X174012000Y-106038000D03*
X139976000Y-103244000D03*
X122196000Y-98418000D03*
X122704000Y-94227000D03*
X139976000Y-94735000D03*
X139976000Y-101847000D03*
X122831000Y-98926000D03*
X139468000Y-91433000D03*
X122688535Y-93571420D03*
X122831000Y-67049000D03*
X138071000Y-73907000D03*
X138833000Y-65017000D03*
X122831000Y-62985000D03*
X138071000Y-70097000D03*
X122831000Y-67938000D03*
X122831000Y-62350000D03*
X138833000Y-59810000D03*
X158391000Y-99688000D03*
X162074000Y-92322000D03*
X166646000Y-106546000D03*
X166646000Y-123564000D03*
X162074000Y-75558000D03*
X148104000Y-105403000D03*
X162074000Y-109086000D03*
X148231000Y-73399000D03*
X166646000Y-89909000D03*
X162074000Y-59048000D03*
X146834000Y-66033000D03*
X146834000Y-97910000D03*
X166646000Y-73399000D03*
X158264000Y-67811000D03*
X154835000Y-62985000D03*
X154962000Y-94862000D03*
X172361000Y-73018000D03*
X174393000Y-78987000D03*
X175028000Y-78987000D03*
X173250000Y-72891000D03*
X157883000Y-108832000D03*
X121434000Y-99180000D03*
X119910000Y-101339000D03*
X121434000Y-67811000D03*
X119910000Y-70351000D03*
X165757000Y-99307000D03*
X172996000Y-109086000D03*
X173758000Y-109086000D03*
X164995000Y-98672000D03*
X165630000Y-66160000D03*
X173504000Y-75939000D03*
X164995000Y-65525000D03*
X174266000Y-75812000D03*
X112290000Y-104006000D03*
X116989000Y-94227000D03*
X113814000Y-104006000D03*
X117300407Y-95380324D03*
X117312956Y-94756780D03*
X113052000Y-104006000D03*
X116888265Y-95854824D03*
X114576000Y-104006000D03*
X109750000Y-92703000D03*
X119021000Y-93592000D03*
X109750000Y-94354000D03*
X117624000Y-93592000D03*
X118513000Y-93084000D03*
X109750000Y-93592000D03*
X109750000Y-95243000D03*
X116825531Y-93558500D03*
X109750000Y-88893000D03*
X122450000Y-91179000D03*
X109750000Y-90544000D03*
X120164000Y-93592000D03*
X120672000Y-93084000D03*
X109750000Y-89782000D03*
X109750000Y-91306000D03*
X119651760Y-93241383D03*
X117033000Y-63109609D03*
X112290000Y-72002000D03*
X117497000Y-64001000D03*
X113814000Y-72002000D03*
X116864653Y-63684989D03*
X113052000Y-72002000D03*
X114576000Y-72002000D03*
X117878000Y-64509000D03*
X110131000Y-61461000D03*
X119021000Y-62350000D03*
X117497000Y-62096000D03*
X110131000Y-62985000D03*
X110131000Y-62223000D03*
X118513000Y-61969000D03*
X116735000Y-62096000D03*
X110004000Y-63747000D03*
X122323000Y-60064000D03*
X110131000Y-57651000D03*
X120192211Y-62081894D03*
X110131000Y-59302000D03*
X121053000Y-61969000D03*
X110131000Y-58413000D03*
X119656000Y-62477000D03*
X110131000Y-60064000D03*
D39*
X174535731Y-109070269D02*
X174520000Y-109086000D01*
X135053523Y-93647923D02*
X134742500Y-93336900D01*
X125179880Y-62158880D02*
X125179880Y-60991720D01*
X177187000Y-108959000D02*
X177187000Y-111595079D01*
X118408400Y-60188000D02*
X117420800Y-59200400D01*
X118408400Y-92066700D02*
X118408400Y-91183395D01*
X144524800Y-105249500D02*
X144549100Y-105225200D01*
X121208400Y-92066700D02*
X121208400Y-90872300D01*
X168424000Y-72256000D02*
X169567000Y-72256000D01*
X134743600Y-101058500D02*
X134743600Y-98773600D01*
X117979600Y-73881600D02*
X118005000Y-73907000D01*
X175525600Y-109825005D02*
X175525600Y-110406800D01*
X121741000Y-87803000D02*
X121688000Y-87750000D01*
X143481200Y-94708500D02*
X144394500Y-94708500D01*
X148561200Y-98875200D02*
X148561200Y-100399200D01*
X150093500Y-99829000D02*
X150093500Y-100329000D01*
X124712422Y-94381700D02*
X125179880Y-93914242D01*
X135053523Y-96035523D02*
X135053523Y-93647923D01*
X125179880Y-92182920D02*
X125904400Y-91458400D01*
X125905500Y-100905000D02*
X125904400Y-100906100D01*
X124180000Y-99181700D02*
X124901650Y-99903350D01*
X148162680Y-124089520D02*
X147341514Y-124089520D01*
X121791800Y-72814800D02*
X121791800Y-71293000D01*
X149374000Y-103600700D02*
X148890300Y-103600700D01*
X148434200Y-98875200D02*
X147469000Y-97910000D01*
X127428400Y-91459500D02*
X127428400Y-90442400D01*
X111616280Y-66224120D02*
X111616280Y-68280280D01*
D40*
X156750200Y-113774800D02*
X156750200Y-111271600D01*
D39*
X118487600Y-57676400D02*
X118513000Y-57651000D01*
X148561200Y-66871200D02*
X147723000Y-66033000D01*
X115693400Y-64893200D02*
X114473400Y-64893200D01*
X118408400Y-100296700D02*
X118408400Y-101799200D01*
X105635200Y-124298000D02*
X107260800Y-124298000D01*
X168424000Y-122294000D02*
X168424000Y-120770000D01*
X151781000Y-70129500D02*
X151781000Y-70764500D01*
X121741000Y-88815700D02*
X121741000Y-87803000D01*
D40*
X118650200Y-113901800D02*
X118650200Y-116321600D01*
D39*
X133245000Y-122421000D02*
X131594000Y-122421000D01*
X121208400Y-90872300D02*
X121741000Y-90339700D01*
X123923400Y-94381700D02*
X124712422Y-94381700D01*
X127428400Y-59200400D02*
X127403000Y-59175000D01*
X135053523Y-98461477D02*
X135053523Y-96035523D01*
X125179880Y-62825742D02*
X125179880Y-62158880D01*
X117471600Y-87775400D02*
X117497000Y-87750000D01*
X125179880Y-68127880D02*
X125179880Y-69012980D01*
X121208400Y-100296700D02*
X121208400Y-101697600D01*
X123923400Y-95981700D02*
X130227000Y-95981700D01*
X174312094Y-108611499D02*
X174770864Y-109070269D01*
X121208400Y-70709600D02*
X121789600Y-71290800D01*
X130940300Y-64150600D02*
X131136800Y-63954100D01*
X121690200Y-57676400D02*
X121690200Y-59200400D01*
X121078400Y-123156500D02*
X121078400Y-124300600D01*
X143378500Y-105249500D02*
X141653500Y-103524500D01*
X127428400Y-70833600D02*
X127403000Y-70859000D01*
X143431500Y-105249500D02*
X143378500Y-105249500D01*
X120808400Y-60978200D02*
X121208400Y-60978200D01*
X120697400Y-57676400D02*
X120672000Y-57651000D01*
X127428400Y-69736400D02*
X127428400Y-70833600D01*
X112391600Y-96538400D02*
X113913400Y-96538400D01*
X118408400Y-60978200D02*
X118408400Y-60188000D01*
X134743600Y-64864600D02*
X134743600Y-67704400D01*
X120808400Y-92066700D02*
X121208400Y-92066700D01*
X117419700Y-57676400D02*
X117419700Y-59199300D01*
X124712422Y-63293200D02*
X125179880Y-62825742D01*
X127693047Y-121532000D02*
X127530000Y-121532000D01*
X175525600Y-107297600D02*
X177187000Y-108959000D01*
X118030400Y-103701200D02*
X118030400Y-102177200D01*
X129356567Y-123195520D02*
X130819480Y-123195520D01*
X123923400Y-68093200D02*
X125145200Y-68093200D01*
X100758400Y-124298000D02*
X102384000Y-124298000D01*
X175050595Y-103625000D02*
X175525600Y-104100005D01*
X176743022Y-81718022D02*
X175600022Y-80575022D01*
X117565805Y-90340800D02*
X117470500Y-90340800D01*
X114473400Y-64893200D02*
X113864800Y-65501800D01*
X174050605Y-103625000D02*
X175050595Y-103625000D01*
X121791800Y-71293000D02*
X121789600Y-71290800D01*
X102384000Y-124298000D02*
X104009600Y-124298000D01*
X124712422Y-97981700D02*
X124901650Y-98170928D01*
X117979600Y-72814800D02*
X117979600Y-71290800D01*
X175581000Y-77277500D02*
X175581000Y-71552500D01*
X121208400Y-69208200D02*
X121208400Y-70709600D01*
X113913400Y-96538400D02*
X113915600Y-96540600D01*
X123923400Y-99181700D02*
X124180000Y-99181700D01*
X151781000Y-102717700D02*
X150898000Y-103600700D01*
X168424000Y-88766000D02*
X169694000Y-88766000D01*
X141754000Y-71773400D02*
X143379600Y-73399000D01*
D40*
X118650200Y-111271600D02*
X118650200Y-113901800D01*
D39*
X112340800Y-65499600D02*
X113862600Y-65499600D01*
X175525600Y-101222400D02*
X176425000Y-100323000D01*
X167535000Y-103117000D02*
X168424000Y-104006000D01*
X118408400Y-70862000D02*
X117979600Y-71290800D01*
D40*
X80550200Y-113774800D02*
X80550200Y-116321600D01*
D39*
X144548000Y-73399000D02*
X144573400Y-73424400D01*
X134743600Y-98773600D02*
X134742500Y-98772500D01*
X149323200Y-71698300D02*
X149042700Y-71698300D01*
X121208400Y-101697600D02*
X121688000Y-102177200D01*
X115338000Y-123157600D02*
X115338000Y-124326000D01*
X125145200Y-68093200D02*
X125179880Y-68127880D01*
X80535000Y-82294000D02*
X80540000Y-82289000D01*
X168424000Y-104006000D02*
X168424000Y-105530000D01*
X118030400Y-104742600D02*
X118005000Y-104768000D01*
X132965600Y-95167900D02*
X133804900Y-95167900D01*
X174770864Y-109070269D02*
X174535731Y-109070269D01*
X113862600Y-65499600D02*
X113864800Y-65501800D01*
X121208400Y-60978200D02*
X121208400Y-59682200D01*
X125904400Y-69737500D02*
X127427300Y-69737500D01*
D40*
X156735000Y-82040000D02*
X156735000Y-79525000D01*
D39*
X148561200Y-98875200D02*
X148434200Y-98875200D01*
X125179880Y-69012980D02*
X125904400Y-69737500D01*
X117979600Y-72814800D02*
X117979600Y-73881600D01*
X176425000Y-117437079D02*
X171885533Y-121976546D01*
X146707000Y-123455006D02*
X146707000Y-120902500D01*
X132818800Y-95021100D02*
X132965600Y-95167900D01*
X128565400Y-64893200D02*
X129308000Y-64150600D01*
X143407600Y-63264400D02*
X144522600Y-63264400D01*
D40*
X80535000Y-84575000D02*
X80535000Y-82294000D01*
D39*
X121688000Y-103701200D02*
X121688000Y-104768000D01*
X124712422Y-66893200D02*
X125179880Y-67360658D01*
X127427300Y-91458400D02*
X127428400Y-91459500D01*
X112340800Y-65499600D02*
X111616280Y-66224120D01*
X134742500Y-91050900D02*
X134742500Y-93336900D01*
X174462546Y-75337499D02*
X175581000Y-76455953D01*
X125179880Y-67360658D02*
X125179880Y-68127880D01*
X123923400Y-64893200D02*
X128565400Y-64893200D01*
X117471600Y-88816800D02*
X117471600Y-90339700D01*
X135627477Y-96035523D02*
X135658000Y-96005000D01*
X108886400Y-124298000D02*
X110103000Y-124298000D01*
X169998800Y-109287000D02*
X170674301Y-108611499D01*
X143405000Y-122294000D02*
X139163200Y-122294000D01*
X111616280Y-68280280D02*
X111655000Y-68319000D01*
X131136800Y-63954100D02*
X132182100Y-63954100D01*
X95881600Y-124298000D02*
X97507200Y-124298000D01*
X134742500Y-98772500D02*
X135053523Y-98461477D01*
X152281000Y-102016500D02*
X151781000Y-102016500D01*
X149551800Y-122700400D02*
X150415400Y-122700400D01*
X173575600Y-104100005D02*
X174050605Y-103625000D01*
X169998800Y-75964400D02*
X170625701Y-75337499D01*
X175663000Y-113119079D02*
X175663000Y-114547000D01*
X130227000Y-95981700D02*
X131187600Y-95021100D01*
X148561200Y-67023600D02*
X148561200Y-68547600D01*
X150093500Y-68442000D02*
X148666800Y-68442000D01*
X141680400Y-61537200D02*
X143407600Y-63264400D01*
X143431500Y-105249500D02*
X144524800Y-105249500D01*
X167535000Y-86353000D02*
X168424000Y-87242000D01*
X118030400Y-103701200D02*
X118030400Y-104742600D01*
X127428400Y-100905000D02*
X127428400Y-101948600D01*
X135378600Y-64864600D02*
X135404000Y-64890000D01*
X141629600Y-61537200D02*
X141680400Y-61537200D01*
X123923400Y-97981700D02*
X124712422Y-97981700D01*
X141754000Y-71674000D02*
X141754000Y-71773400D01*
X132182100Y-63954100D02*
X132229000Y-64001000D01*
X175536000Y-84926078D02*
X176743022Y-83719056D01*
X134742500Y-69991500D02*
X134742500Y-67705500D01*
X133804900Y-95167900D02*
X133880000Y-95243000D01*
X150093500Y-68442000D02*
X150093500Y-67942000D01*
X148631400Y-100329000D02*
X148561200Y-100399200D01*
X170674301Y-108611499D02*
X174312094Y-108611499D01*
D40*
X156750200Y-116321600D02*
X156750200Y-113774800D01*
D39*
X99132800Y-124298000D02*
X100758400Y-124298000D01*
X125904400Y-91458400D02*
X127427300Y-91458400D01*
X118408400Y-91183395D02*
X117565805Y-90340800D01*
X167535000Y-118673000D02*
X167535000Y-119881000D01*
X94538000Y-124298000D02*
X94510000Y-124326000D01*
X130819480Y-123195520D02*
X131594000Y-122421000D01*
X112391600Y-96538400D02*
X112391600Y-95395400D01*
X149323200Y-71698300D02*
X150847200Y-71698300D01*
X134743600Y-59986100D02*
X134741400Y-59983900D01*
X121208400Y-59682200D02*
X121690200Y-59200400D01*
X141756200Y-92983500D02*
X143481200Y-94708500D01*
X167535000Y-101909000D02*
X167535000Y-103117000D01*
X115693400Y-95981700D02*
X114474500Y-95981700D01*
X149042700Y-71698300D02*
X148231000Y-72510000D01*
X174770864Y-109070269D02*
X175525600Y-109825005D01*
X114474500Y-95981700D02*
X113915600Y-96540600D01*
X143862200Y-122751200D02*
X143405000Y-122294000D01*
X127428400Y-101948600D02*
X127403000Y-101974000D01*
X118408400Y-69208200D02*
X118408400Y-70862000D01*
X125904400Y-60267200D02*
X127428400Y-60267200D01*
X175600022Y-80575022D02*
X175600022Y-77296522D01*
X168424000Y-87242000D02*
X168424000Y-88766000D01*
X141652400Y-92983500D02*
X141756200Y-92983500D01*
X134743600Y-62269900D02*
X134743600Y-64864600D01*
X127427300Y-69737500D02*
X127428400Y-69736400D01*
X144522600Y-63264400D02*
X144548000Y-63239000D01*
X168424000Y-105530000D02*
X169567000Y-105530000D01*
X151781000Y-102016500D02*
X151781000Y-102717700D01*
X124901650Y-99903350D02*
X125904400Y-100906100D01*
X110103000Y-124298000D02*
X110131000Y-124326000D01*
X134743600Y-67704400D02*
X134742500Y-67705500D01*
X121791800Y-72814800D02*
X121791800Y-73883800D01*
X117419700Y-59199300D02*
X117420800Y-59200400D01*
X143379600Y-73399000D02*
X144548000Y-73399000D01*
X167535000Y-119881000D02*
X168424000Y-120770000D01*
X112391600Y-95395400D02*
X112417000Y-95370000D01*
X131187600Y-95021100D02*
X132818800Y-95021100D01*
X176743022Y-83719056D02*
X176743022Y-81718022D01*
X150093500Y-100329000D02*
X148631400Y-100329000D01*
X124901650Y-98170928D02*
X124901650Y-99903350D01*
X134743600Y-62269900D02*
X134743600Y-59986100D01*
X176425000Y-98037000D02*
X175536000Y-97148000D01*
X150415400Y-122700400D02*
X150517000Y-122802000D01*
X121688000Y-102177200D02*
X121688000Y-103701200D01*
D40*
X121175000Y-82167000D02*
X121175000Y-79525000D01*
D39*
X148561200Y-67023600D02*
X148561200Y-66871200D01*
X171885533Y-121976546D02*
X171885533Y-123744316D01*
X95881600Y-124298000D02*
X94538000Y-124298000D01*
X176425000Y-115309000D02*
X176425000Y-117437079D01*
X150898000Y-103600700D02*
X149374000Y-103600700D01*
X151781000Y-70764500D02*
X150847200Y-71698300D01*
X127428400Y-60267200D02*
X127428400Y-59200400D01*
X167535000Y-85145000D02*
X167535000Y-86353000D01*
D40*
X156735000Y-84575000D02*
X156735000Y-82040000D01*
X80550200Y-111271600D02*
X80550200Y-113774800D01*
D39*
X135053523Y-96035523D02*
X135627477Y-96035523D01*
X125179880Y-60991720D02*
X125904400Y-60267200D01*
X170033849Y-125596000D02*
X116608000Y-125596000D01*
X127428400Y-90442400D02*
X127403000Y-90417000D01*
X123923400Y-66893200D02*
X124712422Y-66893200D01*
X173575600Y-104681800D02*
X173575600Y-104100005D01*
X123923400Y-63293200D02*
X124712422Y-63293200D01*
D40*
X121175000Y-84575000D02*
X121175000Y-82167000D01*
D39*
X176425000Y-100323000D02*
X176425000Y-98037000D01*
X117471600Y-88816800D02*
X117471600Y-87775400D01*
X123923400Y-62093200D02*
X125114200Y-62093200D01*
X148666800Y-68442000D02*
X148561200Y-68547600D01*
X177187000Y-111595079D02*
X175663000Y-113119079D01*
X152281000Y-70129500D02*
X151781000Y-70129500D01*
X175536000Y-97148000D02*
X175536000Y-84926078D01*
X167535000Y-68635000D02*
X167535000Y-69843000D01*
X148890300Y-103600700D02*
X148104000Y-104387000D01*
X117471600Y-90339700D02*
X117470500Y-90340800D01*
X175600022Y-77296522D02*
X175581000Y-77277500D01*
X121741000Y-88815700D02*
X121741000Y-90339700D01*
X170625701Y-75337499D02*
X174462546Y-75337499D01*
X125179880Y-93148120D02*
X125179880Y-92182920D01*
X125179880Y-93914242D02*
X125179880Y-93148120D01*
X129308000Y-64150600D02*
X130940300Y-64150600D01*
X117419700Y-57676400D02*
X118487600Y-57676400D01*
X175663000Y-114547000D02*
X176425000Y-115309000D01*
X127428400Y-100905000D02*
X125905500Y-100905000D01*
X125114200Y-62093200D02*
X125179880Y-62158880D01*
X134743600Y-64864600D02*
X135378600Y-64864600D01*
X118408400Y-101799200D02*
X118030400Y-102177200D01*
X116608000Y-125596000D02*
X115338000Y-124326000D01*
X121690200Y-57676400D02*
X120697400Y-57676400D01*
X121078400Y-124300600D02*
X121053000Y-124326000D01*
X123923400Y-93181700D02*
X125146300Y-93181700D01*
X121791800Y-73883800D02*
X121815000Y-73907000D01*
X104009600Y-124298000D02*
X105635200Y-124298000D01*
X167535000Y-69843000D02*
X168424000Y-70732000D01*
X147341514Y-124089520D02*
X146707000Y-123455006D01*
X97507200Y-124298000D02*
X99132800Y-124298000D01*
X108886400Y-124298000D02*
X107260800Y-124298000D01*
X129356567Y-123195520D02*
X127693047Y-121532000D01*
X175525600Y-107297600D02*
X175525600Y-101222400D01*
X149551800Y-122700400D02*
X148162680Y-124089520D01*
X168424000Y-122294000D02*
X168424000Y-123564000D01*
X168424000Y-72256000D02*
X168424000Y-70732000D01*
X144394500Y-94708500D02*
X144421000Y-94735000D01*
X125146300Y-93181700D02*
X125179880Y-93148120D01*
X171885533Y-123744316D02*
X170033849Y-125596000D01*
X153968500Y-100329000D02*
X154640000Y-100329000D01*
X125904400Y-62595505D02*
X125904400Y-61992200D01*
X119258600Y-121532000D02*
X119258600Y-122912600D01*
X153968500Y-100329000D02*
X153968500Y-99829000D01*
X125904400Y-61992200D02*
X127428400Y-61992200D01*
X148341890Y-63705490D02*
X148319953Y-63705490D01*
X149374000Y-96589200D02*
X148688200Y-96589200D01*
X163799000Y-76574000D02*
X163799000Y-75632000D01*
X123514600Y-72812600D02*
X123516800Y-72814800D01*
X123514600Y-71290800D02*
X123514600Y-72812600D01*
X123413000Y-103701200D02*
X123413000Y-104715000D01*
X151781000Y-66254500D02*
X151781000Y-65620600D01*
X120977900Y-121532000D02*
X121078400Y-121431500D01*
X151781000Y-65620600D02*
X150847200Y-64686800D01*
X124806705Y-63693200D02*
X125904400Y-62595505D01*
X152281000Y-66254500D02*
X151781000Y-66254500D01*
X123516800Y-73856200D02*
X123466000Y-73907000D01*
X125905500Y-68011400D02*
X125904400Y-68012500D01*
X155521900Y-69360400D02*
X155521900Y-67836400D01*
X148688200Y-96589200D02*
X148358000Y-96259000D01*
X123516800Y-72814800D02*
X123516800Y-73856200D01*
X124806705Y-94781700D02*
X125904400Y-93684005D01*
X127428400Y-93184500D02*
X128165000Y-92447900D01*
X122808400Y-92066700D02*
X123466000Y-91409100D01*
X163725000Y-96959000D02*
X163725000Y-94936000D01*
X125904400Y-93684005D02*
X125904400Y-93183400D01*
X119258600Y-122404600D02*
X119783000Y-122929000D01*
X163799000Y-111626000D02*
X163799000Y-110102000D01*
X122808400Y-69208200D02*
X122808400Y-70584600D01*
X123466000Y-88815700D02*
X123466000Y-87750000D01*
X163725000Y-80195000D02*
X163725000Y-78172000D01*
X163799000Y-60064000D02*
X163799000Y-61588000D01*
X155523000Y-99690200D02*
X155520800Y-99688000D01*
X123466000Y-91409100D02*
X123466000Y-90339700D01*
X122808400Y-100296700D02*
X122808400Y-101572600D01*
X127428400Y-68011400D02*
X125905500Y-68011400D01*
X122808400Y-59807200D02*
X123415200Y-59200400D01*
X123413000Y-104715000D02*
X123466000Y-104768000D01*
X128165000Y-92447900D02*
X128165000Y-90417000D01*
X163799000Y-110102000D02*
X163799000Y-109139000D01*
X154640000Y-100329000D02*
X155523000Y-101212000D01*
X156282800Y-98926000D02*
X158391000Y-98926000D01*
X119258600Y-121532000D02*
X120977900Y-121532000D01*
X127428400Y-61992200D02*
X128165000Y-61255600D01*
X163725000Y-94936000D02*
X163799000Y-94862000D01*
X127428400Y-99180000D02*
X128165000Y-99916600D01*
X125904400Y-98679395D02*
X125904400Y-99181100D01*
X163799000Y-59122000D02*
X163725000Y-59048000D01*
X153968500Y-68442000D02*
X154603500Y-68442000D01*
X123415200Y-57676400D02*
X123415200Y-59200400D01*
X163799000Y-93338000D02*
X163799000Y-94862000D01*
X123923400Y-66493200D02*
X124806705Y-66493200D01*
X149374000Y-96589200D02*
X150898000Y-96589200D01*
X123413000Y-102177200D02*
X123413000Y-103701200D01*
X163799000Y-75632000D02*
X163725000Y-75558000D01*
X163799000Y-60064000D02*
X163799000Y-59122000D01*
X155520800Y-99688000D02*
X156282800Y-98926000D01*
X123923400Y-97581700D02*
X124806705Y-97581700D01*
X127427300Y-93183400D02*
X127428400Y-93184500D01*
X124456600Y-57676400D02*
X124482000Y-57651000D01*
X122808400Y-60978200D02*
X122808400Y-59807200D01*
X125904400Y-67590895D02*
X125904400Y-68012500D01*
X125904400Y-99181100D02*
X127427300Y-99181100D01*
X123466000Y-90339700D02*
X123466000Y-88815700D01*
X163725000Y-61662000D02*
X163799000Y-61588000D01*
X128165000Y-61255600D02*
X128165000Y-59175000D01*
X128165000Y-99916600D02*
X128165000Y-101974000D01*
X154603500Y-68442000D02*
X155521900Y-69360400D01*
X163799000Y-93338000D02*
X163799000Y-92396000D01*
X149323200Y-64686800D02*
X150847200Y-64686800D01*
X124806705Y-66493200D02*
X125904400Y-67590895D01*
X163725000Y-111700000D02*
X163799000Y-111626000D01*
X153968500Y-68442000D02*
X153968500Y-67942000D01*
X152281000Y-98141500D02*
X151781000Y-98141500D01*
X163799000Y-109139000D02*
X163852000Y-109086000D01*
X122808400Y-70584600D02*
X123514600Y-71290800D01*
X125904400Y-93183400D02*
X127427300Y-93183400D01*
X119258600Y-122912600D02*
X119275000Y-122929000D01*
X163725000Y-113723000D02*
X163725000Y-111700000D01*
X123923400Y-94781700D02*
X124806705Y-94781700D01*
X163725000Y-63685000D02*
X163725000Y-61662000D01*
X156309300Y-67049000D02*
X158264000Y-67049000D01*
X155521900Y-67836400D02*
X156309300Y-67049000D01*
X151781000Y-98141500D02*
X151781000Y-97472200D01*
X127428400Y-68011400D02*
X128165000Y-68748000D01*
X119258600Y-122437400D02*
X118767000Y-122929000D01*
X123923400Y-63693200D02*
X124806705Y-63693200D01*
X128165000Y-68748000D02*
X128165000Y-70859000D01*
X163799000Y-76574000D02*
X163799000Y-78098000D01*
X123415200Y-57676400D02*
X124456600Y-57676400D01*
X163799000Y-92396000D02*
X163725000Y-92322000D01*
X149323200Y-64686800D02*
X148341890Y-63705490D01*
X163725000Y-78172000D02*
X163799000Y-78098000D01*
X124806705Y-97581700D02*
X125904400Y-98679395D01*
X155523000Y-101212000D02*
X155523000Y-99690200D01*
X151781000Y-97472200D02*
X150898000Y-96589200D01*
X127427300Y-99181100D02*
X127428400Y-99180000D01*
X122808400Y-101572600D02*
X123413000Y-102177200D01*
X131134600Y-100903900D02*
X131187600Y-100956900D01*
X134577012Y-95711319D02*
X134704012Y-95584318D01*
X134577012Y-94397662D02*
X133804520Y-93625170D01*
X133955480Y-100121620D02*
X133955480Y-98333270D01*
X130890600Y-91457300D02*
X131187600Y-91160300D01*
X131187600Y-91160300D02*
X132908100Y-91160300D01*
X123923400Y-95181700D02*
X126657450Y-95181700D01*
X134704012Y-94901681D02*
X134577012Y-94774682D01*
X132917000Y-100956900D02*
X133018600Y-101058500D01*
X129358800Y-100903900D02*
X128634280Y-100179380D01*
X129358800Y-100903900D02*
X131134600Y-100903900D01*
X134704012Y-95584318D02*
X134704012Y-94901681D01*
X128634280Y-93204870D02*
X128634280Y-92181820D01*
X133804520Y-93625170D02*
X133804520Y-91837920D01*
X126657450Y-95181700D02*
X128634280Y-93204870D01*
X128634280Y-98887280D02*
X126928700Y-97181700D01*
X133018600Y-101058500D02*
X133955480Y-100121620D01*
X134577012Y-94774682D02*
X134577012Y-94397662D01*
X128634280Y-100179380D02*
X128634280Y-98887280D01*
X132908100Y-91160300D02*
X133017500Y-91050900D01*
X133804520Y-91837920D02*
X133017500Y-91050900D01*
X131187600Y-100956900D02*
X132917000Y-100956900D01*
X133955480Y-98333270D02*
X134577012Y-97711738D01*
X126928700Y-97181700D02*
X123923400Y-97181700D01*
X128634280Y-92181820D02*
X129358800Y-91457300D01*
X134577012Y-97711738D02*
X134577012Y-95711319D01*
X129358800Y-91457300D02*
X130890600Y-91457300D01*
X129655800Y-98881900D02*
X129358800Y-99178900D01*
X134076546Y-95717501D02*
X134354501Y-95439546D01*
X123923400Y-96781700D02*
X127022983Y-96781700D01*
X133975511Y-94667464D02*
X133975511Y-94294911D01*
X133975511Y-94294911D02*
X133017500Y-93336900D01*
X131134600Y-93182300D02*
X131187600Y-93235300D01*
X133017500Y-93336900D02*
X131289200Y-93336900D01*
X133017500Y-98772500D02*
X134076546Y-97713454D01*
X131289200Y-93336900D02*
X131187600Y-93235300D01*
X129358800Y-93182300D02*
X131134600Y-93182300D01*
X127022983Y-96781700D02*
X129358800Y-99117517D01*
X131187600Y-98881900D02*
X129655800Y-98881900D01*
X126959400Y-95581700D02*
X129358800Y-93182300D01*
X134076546Y-97713454D02*
X134076546Y-95717501D01*
X134354501Y-95046454D02*
X133975511Y-94667464D01*
X129358800Y-99117517D02*
X129358800Y-99178900D01*
X123923400Y-95581700D02*
X126959400Y-95581700D01*
X132908100Y-98881900D02*
X133017500Y-98772500D01*
X131187600Y-98881900D02*
X132908100Y-98881900D01*
X134354501Y-95439546D02*
X134354501Y-95046454D01*
X118008400Y-69997222D02*
X116714822Y-71290800D01*
X122704000Y-120262000D02*
X122577000Y-120135000D01*
X173243605Y-102482000D02*
X173250000Y-102482000D01*
X121608400Y-62302600D02*
X120959499Y-62951501D01*
X118008400Y-60282284D02*
X117651036Y-59924920D01*
X112343000Y-67226800D02*
X112340800Y-67224600D01*
X174139000Y-102482000D02*
X174297480Y-102323520D01*
X114589320Y-66502280D02*
X113864800Y-67226800D01*
X114474400Y-57676400D02*
X114449000Y-57651000D01*
X121630546Y-98705499D02*
X122008400Y-99083353D01*
X121608400Y-92066700D02*
X121608400Y-92855722D01*
X112340800Y-67224600D02*
X112340800Y-68268200D01*
X116254600Y-72814800D02*
X116254600Y-73879400D01*
X173225775Y-70565480D02*
X173631000Y-70970705D01*
X129943000Y-124453000D02*
X169694000Y-124453000D01*
X176138467Y-109434467D02*
X176138467Y-111160761D01*
X113915600Y-98265600D02*
X112393800Y-98265600D01*
X118008400Y-91277678D02*
X117796042Y-91065320D01*
X118810579Y-98705499D02*
X121630546Y-98705499D01*
X116714822Y-71290800D02*
X116254600Y-71290800D01*
X115338000Y-121432600D02*
X115338000Y-120135000D01*
X116470020Y-91065320D02*
X115745500Y-90340800D01*
X121688000Y-67303000D02*
X118386000Y-67303000D01*
X174931000Y-71552500D02*
X174281000Y-71552500D01*
X174551489Y-114933568D02*
X175282000Y-115664079D01*
X173631000Y-70970705D02*
X173631000Y-71552500D01*
X170710000Y-121669229D02*
X170710000Y-123437000D01*
X176138467Y-111160761D02*
X174551489Y-112747739D01*
X121608400Y-60978200D02*
X122008400Y-60978200D01*
X115746600Y-90339700D02*
X115745500Y-90340800D01*
X174487440Y-97582326D02*
X174487441Y-84480559D01*
X173758000Y-79114000D02*
X173758000Y-78987000D01*
D40*
X123715000Y-82167000D02*
X123715000Y-79525000D01*
D39*
X112391600Y-98263400D02*
X111428600Y-98263400D01*
X114904378Y-65293200D02*
X114589320Y-65608258D01*
X120959499Y-62951501D02*
X118606501Y-62951501D01*
X114904378Y-96381700D02*
X114640120Y-96645958D01*
X169998800Y-107562000D02*
X171625600Y-105935200D01*
X174225600Y-105824400D02*
X174012000Y-106038000D01*
X117982911Y-101111211D02*
X117371389Y-101111211D01*
X171625600Y-104681800D02*
X171625600Y-104100005D01*
X175282000Y-115664079D02*
X175282000Y-117097229D01*
X171625600Y-104100005D02*
X173243605Y-102482000D01*
X114589320Y-65608258D02*
X114589320Y-66502280D01*
X114640120Y-97541080D02*
X113915600Y-98265600D01*
X171625600Y-105935200D02*
X171625600Y-104681800D01*
X174520000Y-81019000D02*
X175536000Y-82035000D01*
X121608400Y-92066700D02*
X122008400Y-92066700D01*
X120397621Y-94066501D02*
X118824454Y-94066501D01*
X118008400Y-62353400D02*
X118008400Y-60978200D01*
X173250000Y-102482000D02*
X174139000Y-102482000D01*
X117796042Y-91065320D02*
X116470020Y-91065320D01*
X122008400Y-67623400D02*
X121688000Y-67303000D01*
X175376440Y-99874968D02*
X175376440Y-98545000D01*
X112393800Y-98265600D02*
X112391600Y-98263400D01*
X172086225Y-70565480D02*
X173225775Y-70565480D01*
X169998800Y-74239400D02*
X171346100Y-72892100D01*
X171346100Y-72892100D02*
X171681000Y-72557200D01*
X118008400Y-99507678D02*
X118810579Y-98705499D01*
X115694700Y-57676400D02*
X115694700Y-59199300D01*
X174487440Y-97582326D02*
X175376440Y-98471328D01*
X118008400Y-67687400D02*
X118008400Y-69208200D01*
X118008400Y-100296700D02*
X118008400Y-99507678D01*
X175282000Y-117097229D02*
X170710000Y-121669229D01*
X122577000Y-120135000D02*
X115338000Y-120135000D01*
X118386000Y-67303000D02*
X118005000Y-67684000D01*
X115746600Y-88816800D02*
X115746600Y-90339700D01*
X118008400Y-93250447D02*
X118008400Y-92066700D01*
X117651036Y-59924920D02*
X116420320Y-59924920D01*
X174520000Y-79876000D02*
X173758000Y-79114000D01*
X125498000Y-123183000D02*
X123974000Y-123183000D01*
X121608400Y-92855722D02*
X120397621Y-94066501D01*
X174225600Y-104681800D02*
X174225600Y-105824400D01*
X174487441Y-84480559D02*
X175536000Y-83432000D01*
X118008400Y-101085722D02*
X117982911Y-101111211D01*
D40*
X116110200Y-113901800D02*
X116110200Y-116321600D01*
D39*
X169998800Y-107562000D02*
X170062822Y-107626022D01*
X115693400Y-96381700D02*
X114904378Y-96381700D01*
X116305400Y-104689600D02*
X116227000Y-104768000D01*
X175536000Y-83432000D02*
X175536000Y-82035000D01*
X116420320Y-59924920D02*
X115695800Y-59200400D01*
X118005000Y-67684000D02*
X118008400Y-67687400D01*
X111428600Y-98263400D02*
X111401000Y-98291000D01*
X115746600Y-88816800D02*
X115746600Y-87777600D01*
X170710000Y-123437000D02*
X169694000Y-124453000D01*
X174297480Y-100953930D02*
X175359204Y-99892204D01*
D40*
X116110200Y-111271600D02*
X116110200Y-113901800D01*
D39*
X114640120Y-96645958D02*
X114640120Y-97541080D01*
D40*
X123715000Y-84575000D02*
X123715000Y-82167000D01*
D39*
X116305400Y-102177200D02*
X116305400Y-103701200D01*
X122008400Y-99083353D02*
X122008400Y-100296700D01*
X115693400Y-65293200D02*
X114904378Y-65293200D01*
X121608400Y-60978200D02*
X121608400Y-62302600D01*
X174330022Y-107626022D02*
X176138467Y-109434467D01*
X174297480Y-102323520D02*
X174297480Y-102228000D01*
X171681000Y-70970705D02*
X172086225Y-70565480D01*
X115746600Y-87777600D02*
X115719000Y-87750000D01*
X174551489Y-112747739D02*
X174551489Y-114933568D01*
X174875600Y-104681800D02*
X174225600Y-104681800D01*
X115694700Y-59199300D02*
X115695800Y-59200400D01*
X171681000Y-72557200D02*
X171681000Y-71552500D01*
X113864800Y-67226800D02*
X112343000Y-67226800D01*
X175359204Y-99892204D02*
X175376440Y-99874968D01*
X129943000Y-124453000D02*
X128546000Y-123056000D01*
X174281000Y-71552500D02*
X173631000Y-71552500D01*
X175376440Y-98545000D02*
X175376440Y-98471328D01*
X117109200Y-121432600D02*
X117208600Y-121532000D01*
X116254600Y-73879400D02*
X116227000Y-73907000D01*
X115338000Y-121432600D02*
X117109200Y-121432600D01*
X116305400Y-103701200D02*
X116305400Y-104689600D01*
X122704000Y-121913000D02*
X122704000Y-120262000D01*
X118008400Y-69208200D02*
X118008400Y-69997222D01*
X122008400Y-69208200D02*
X122008400Y-67623400D01*
X118008400Y-100296700D02*
X118008400Y-101085722D01*
X123974000Y-123183000D02*
X122704000Y-121913000D01*
X118606501Y-62951501D02*
X118008400Y-62353400D01*
X118008400Y-60978200D02*
X118008400Y-60282284D01*
X116254600Y-72814800D02*
X116254600Y-71290800D01*
X118824454Y-94066501D02*
X118008400Y-93250447D01*
X171681000Y-71552500D02*
X171681000Y-70970705D01*
X112340800Y-68268200D02*
X112290000Y-68319000D01*
X118008400Y-92066700D02*
X118008400Y-91277678D01*
X174520000Y-81019000D02*
X174520000Y-79876000D01*
X174297480Y-102228000D02*
X174297480Y-100953930D01*
X170062822Y-107626022D02*
X174330022Y-107626022D01*
X117371389Y-101111211D02*
X116305400Y-102177200D01*
X115694700Y-57676400D02*
X114474400Y-57676400D01*
X128583480Y-67940230D02*
X128583480Y-69012980D01*
X131246200Y-59983900D02*
X131136800Y-60093300D01*
X126553650Y-64093200D02*
X128583480Y-62063370D01*
X128583480Y-62063370D02*
X128583480Y-60964620D01*
X133016400Y-59983900D02*
X131246200Y-59983900D01*
X129308000Y-69737500D02*
X130984400Y-69737500D01*
X133017500Y-69991500D02*
X133955480Y-69053520D01*
X128583480Y-60964620D02*
X129308000Y-60240100D01*
X129308000Y-60240100D02*
X130990000Y-60240100D01*
X133955480Y-69053520D02*
X133955480Y-60922980D01*
X130990000Y-60240100D02*
X131136800Y-60093300D01*
X128583480Y-69012980D02*
X129308000Y-69737500D01*
X133017500Y-69991500D02*
X131238400Y-69991500D01*
X123923400Y-64093200D02*
X126553650Y-64093200D01*
X130984400Y-69737500D02*
X131136800Y-69889900D01*
X126736450Y-66093200D02*
X128583480Y-67940230D01*
X123923400Y-66093200D02*
X126736450Y-66093200D01*
X131238400Y-69991500D02*
X131136800Y-69889900D01*
X133955480Y-60922980D02*
X133016400Y-59983900D01*
X126988700Y-65693200D02*
X129308000Y-68012500D01*
X131136800Y-67814900D02*
X132908100Y-67814900D01*
X131238400Y-62269900D02*
X131136800Y-62168300D01*
X129308000Y-68012500D02*
X130939200Y-68012500D01*
X130933600Y-61965100D02*
X131136800Y-62168300D01*
X123923400Y-64493200D02*
X126779900Y-64493200D01*
X130939200Y-68012500D02*
X131136800Y-67814900D01*
X133018600Y-67704400D02*
X133017500Y-67705500D01*
X133018600Y-62269900D02*
X133018600Y-67704400D01*
X132908100Y-67814900D02*
X133017500Y-67705500D01*
X133018600Y-62269900D02*
X131238400Y-62269900D01*
X126779900Y-64493200D02*
X129308000Y-61965100D01*
X129308000Y-61965100D02*
X130933600Y-61965100D01*
X123923400Y-65693200D02*
X126988700Y-65693200D01*
D40*
X160239711Y-118346111D02*
X159593822Y-118992000D01*
X160239711Y-112221111D02*
X160239711Y-118346111D01*
X146834000Y-118992000D02*
X145757000Y-120069000D01*
X145757000Y-123177500D02*
X145757000Y-120902500D01*
X145633300Y-121026200D02*
X145757000Y-120902500D01*
X143862200Y-121026200D02*
X145633300Y-121026200D01*
X159593822Y-118992000D02*
X146834000Y-118992000D01*
X159290200Y-111271600D02*
X160239711Y-112221111D01*
X145757000Y-120069000D02*
X145757000Y-120902500D01*
D39*
X139976000Y-105169600D02*
X139976000Y-103244000D01*
X139976000Y-105169600D02*
X141681500Y-106875100D01*
X122232300Y-98381700D02*
X122196000Y-98418000D01*
X141653500Y-105249500D02*
X141653500Y-106847100D01*
X123923400Y-98381700D02*
X122232300Y-98381700D01*
X123923400Y-93981700D02*
X122949300Y-93981700D01*
X141652400Y-94708500D02*
X141652400Y-96294700D01*
X141652400Y-96294700D02*
X141691800Y-96334100D01*
X139976000Y-94735000D02*
X141625900Y-94735000D01*
X141625900Y-94735000D02*
X141652400Y-94708500D01*
X122949300Y-93981700D02*
X122704000Y-94227000D01*
X143309300Y-103524500D02*
X141681500Y-101896700D01*
X123923400Y-98781700D02*
X122975300Y-98781700D01*
X143431500Y-103524500D02*
X143309300Y-103524500D01*
X141631800Y-101847000D02*
X141681500Y-101896700D01*
X122975300Y-98781700D02*
X122831000Y-98926000D01*
X139976000Y-101847000D02*
X141631800Y-101847000D01*
X123923400Y-93581700D02*
X122698815Y-93581700D01*
X141853400Y-91355700D02*
X143481200Y-92983500D01*
X141680400Y-91355700D02*
X141853400Y-91355700D01*
X141603100Y-91433000D02*
X141680400Y-91355700D01*
X139468000Y-91433000D02*
X141603100Y-91433000D01*
X122698815Y-93581700D02*
X122688535Y-93571420D01*
X163231000Y-122294000D02*
X163231000Y-120782500D01*
X163243500Y-120770000D02*
X163243500Y-119219500D01*
X163129000Y-119105000D02*
X163243500Y-119219500D01*
X163231000Y-120782500D02*
X163243500Y-120770000D01*
X163243500Y-119154500D02*
X163725000Y-118673000D01*
X162074000Y-119105000D02*
X163129000Y-119105000D01*
X163243500Y-119219500D02*
X163243500Y-119154500D01*
X169186000Y-117327000D02*
X166070994Y-117327000D01*
X166070994Y-117327000D02*
X164995000Y-118402994D01*
X164981000Y-120782500D02*
X164968500Y-120770000D01*
X164995000Y-118673000D02*
X164995000Y-120743500D01*
X164995000Y-120743500D02*
X164968500Y-120770000D01*
X164981000Y-122294000D02*
X164981000Y-120782500D01*
X164995000Y-118402994D02*
X164995000Y-118673000D01*
X163243500Y-88753500D02*
X163231000Y-88766000D01*
X162074000Y-85577000D02*
X163293000Y-85577000D01*
X163243500Y-87242000D02*
X163243500Y-85626500D01*
X163243500Y-87242000D02*
X163243500Y-88753500D01*
X163293000Y-85577000D02*
X163725000Y-85145000D01*
X163243500Y-85626500D02*
X163293000Y-85577000D01*
X164995000Y-85145000D02*
X164995000Y-84874994D01*
X165949514Y-83920480D02*
X169166480Y-83920480D01*
X164968500Y-87242000D02*
X164968500Y-85171500D01*
X164995000Y-84874994D02*
X165949514Y-83920480D01*
X164968500Y-87242000D02*
X164968500Y-88753500D01*
X169166480Y-83920480D02*
X169186000Y-83940000D01*
X164968500Y-88753500D02*
X164981000Y-88766000D01*
X164968500Y-85171500D02*
X164995000Y-85145000D01*
X141731200Y-73421800D02*
X141754000Y-73399000D01*
X123923400Y-67293200D02*
X123075200Y-67293200D01*
X138071000Y-73907000D02*
X139137800Y-74973800D01*
X141731200Y-74973800D02*
X141731200Y-73421800D01*
X139137800Y-74973800D02*
X141731200Y-74973800D01*
X123075200Y-67293200D02*
X122831000Y-67049000D01*
X122922800Y-62893200D02*
X122831000Y-62985000D01*
X141629600Y-64940800D02*
X141629600Y-63262200D01*
X138833000Y-65017000D02*
X141553400Y-65017000D01*
X141553400Y-65017000D02*
X141629600Y-64940800D01*
X123923400Y-62893200D02*
X122922800Y-62893200D01*
X123075800Y-67693200D02*
X123923400Y-67693200D01*
X141782000Y-70097000D02*
X141802600Y-70097000D01*
X141802600Y-70097000D02*
X143379600Y-71674000D01*
X141782000Y-70097000D02*
X138071000Y-70097000D01*
X122831000Y-67938000D02*
X123075800Y-67693200D01*
X122974200Y-62493200D02*
X122831000Y-62350000D01*
X123923400Y-62493200D02*
X122974200Y-62493200D01*
X138833000Y-59810000D02*
X141680400Y-59810000D01*
X141680400Y-59810000D02*
X141680400Y-59812200D01*
X141680400Y-59812200D02*
X143407600Y-61539400D01*
X166265000Y-85145000D02*
X166265000Y-86808000D01*
X153120680Y-62173680D02*
X151635320Y-62173680D01*
X147657000Y-120902500D02*
X149478900Y-120902500D01*
X167760000Y-63460000D02*
X171660000Y-63460000D01*
X154798200Y-62948200D02*
X154835000Y-62985000D01*
X147873200Y-62961800D02*
X149323200Y-62961800D01*
X171660000Y-96660000D02*
X167834000Y-96660000D01*
X166265000Y-68635000D02*
X166265000Y-70298000D01*
X171660000Y-80060000D02*
X167670000Y-80060000D01*
X167535000Y-63685000D02*
X167760000Y-63460000D01*
X149062930Y-69272120D02*
X149393050Y-68942000D01*
X162074000Y-76574000D02*
X162074000Y-75558000D01*
X158238600Y-67836400D02*
X158264000Y-67811000D01*
X146836200Y-68547600D02*
X147334949Y-68547600D01*
X148255300Y-73423300D02*
X148231000Y-73399000D01*
X156994000Y-101466000D02*
X157248000Y-101212000D01*
X146836200Y-98875200D02*
X146836200Y-97912200D01*
X148181300Y-105325700D02*
X148104000Y-105403000D01*
X166699000Y-72256000D02*
X166699000Y-73346000D01*
X157246900Y-67836400D02*
X157246900Y-69360400D01*
X146836200Y-66035200D02*
X146834000Y-66033000D01*
X157246900Y-67836400D02*
X158238600Y-67836400D01*
X150093500Y-100829000D02*
X149357650Y-100829000D01*
X147334949Y-68547600D02*
X148059469Y-69272120D01*
X156994000Y-70935200D02*
X156994000Y-69613300D01*
X157248000Y-101212000D02*
X157248000Y-99690200D01*
X166265000Y-86808000D02*
X166699000Y-87242000D01*
X166699000Y-73346000D02*
X166646000Y-73399000D01*
X150870400Y-122294000D02*
X154200000Y-122294000D01*
X167670000Y-80060000D02*
X167535000Y-80195000D01*
X162074000Y-111626000D02*
X162074000Y-110102000D01*
X150930262Y-65525000D02*
X148935150Y-65525000D01*
X166699000Y-106493000D02*
X166646000Y-106546000D01*
X148827753Y-94864200D02*
X149374000Y-94864200D01*
X149551800Y-120975400D02*
X150870400Y-122294000D01*
X171660000Y-113460000D02*
X167798000Y-113460000D01*
X149374000Y-94864200D02*
X150898000Y-94864200D01*
X149393050Y-68942000D02*
X150093500Y-68942000D01*
X156994000Y-102826200D02*
X156994000Y-101466000D01*
X166699000Y-89856000D02*
X166646000Y-89909000D01*
X166265000Y-101909000D02*
X166265000Y-103572000D01*
X147596000Y-63239000D02*
X147873200Y-62961800D01*
X162074000Y-110102000D02*
X162074000Y-109086000D01*
X146836200Y-98875200D02*
X146836200Y-100399200D01*
X167798000Y-113460000D02*
X167535000Y-113723000D01*
X166699000Y-122294000D02*
X166699000Y-120770000D01*
X146836200Y-67023600D02*
X146836200Y-68547600D01*
X149323200Y-73423300D02*
X148255300Y-73423300D01*
X162074000Y-60064000D02*
X162074000Y-59048000D01*
X150894482Y-97376220D02*
X148804173Y-97376220D01*
X149374000Y-105325700D02*
X148181300Y-105325700D01*
X167834000Y-96660000D02*
X167535000Y-96959000D01*
X156994000Y-69613300D02*
X157246900Y-69360400D01*
X147596000Y-64185850D02*
X147596000Y-63239000D01*
X151686120Y-94076080D02*
X153171480Y-94076080D01*
X148935150Y-65525000D02*
X147596000Y-64185850D01*
X166699000Y-88766000D02*
X166699000Y-89856000D01*
X147883499Y-95808454D02*
X148827753Y-94864200D01*
X148059469Y-69272120D02*
X149062930Y-69272120D01*
X153895200Y-62948200D02*
X153120680Y-62173680D01*
X166699000Y-104006000D02*
X166699000Y-105530000D01*
X153895200Y-62948200D02*
X154798200Y-62948200D01*
X166699000Y-105530000D02*
X166699000Y-106493000D01*
X166265000Y-70298000D02*
X166699000Y-70732000D01*
X151281000Y-97762738D02*
X150894482Y-97376220D01*
X166699000Y-88766000D02*
X166699000Y-87242000D01*
X147883499Y-96455546D02*
X147883499Y-95808454D01*
X151281000Y-65875738D02*
X150930262Y-65525000D01*
X151281000Y-98141500D02*
X151281000Y-97762738D01*
X150898000Y-94864200D02*
X151686120Y-94076080D01*
X147560720Y-101123720D02*
X146836200Y-100399200D01*
X162074000Y-93338000D02*
X162074000Y-92322000D01*
X149478900Y-120902500D02*
X149551800Y-120975400D01*
X166265000Y-118673000D02*
X166265000Y-120336000D01*
X153946000Y-94850600D02*
X154950600Y-94850600D01*
X162074000Y-78098000D02*
X162074000Y-76574000D01*
X162074000Y-93338000D02*
X162074000Y-94862000D01*
X153171480Y-94076080D02*
X153946000Y-94850600D01*
X149323200Y-62961800D02*
X150847200Y-62961800D01*
X151281000Y-66254500D02*
X151281000Y-65875738D01*
X166699000Y-72256000D02*
X166699000Y-70732000D01*
X166699000Y-122294000D02*
X166699000Y-123511000D01*
X151635320Y-62173680D02*
X150847200Y-62961800D01*
X146836200Y-97912200D02*
X146834000Y-97910000D01*
X146836200Y-67023600D02*
X146836200Y-66035200D01*
X166699000Y-123511000D02*
X166646000Y-123564000D01*
X157248000Y-99690200D02*
X157245800Y-99688000D01*
X149323200Y-73423300D02*
X150847200Y-73423300D01*
X166265000Y-103572000D02*
X166699000Y-104006000D01*
X162074000Y-60064000D02*
X162074000Y-61588000D01*
X148804173Y-97376220D02*
X147883499Y-96455546D01*
X149062930Y-101123720D02*
X147560720Y-101123720D01*
X166265000Y-120336000D02*
X166699000Y-120770000D01*
X157245800Y-99688000D02*
X158391000Y-99688000D01*
X154950600Y-94850600D02*
X154962000Y-94862000D01*
X149357650Y-100829000D02*
X149062930Y-101123720D01*
X150898000Y-105325700D02*
X149374000Y-105325700D01*
X173363000Y-115577000D02*
X173377000Y-115563000D01*
X173763000Y-115563000D02*
X174200000Y-116000000D01*
X173377000Y-115563000D02*
X173763000Y-115563000D01*
X169186000Y-115577000D02*
X173363000Y-115577000D01*
X173490000Y-98813000D02*
X173504000Y-98799000D01*
X173504000Y-98799000D02*
X173799000Y-98799000D01*
X169186000Y-98813000D02*
X173490000Y-98813000D01*
X173799000Y-98799000D02*
X174200000Y-99200000D01*
X173349000Y-82190000D02*
X173377000Y-82162000D01*
X173377000Y-82162000D02*
X173762000Y-82162000D01*
X169186000Y-82190000D02*
X173349000Y-82190000D01*
X173762000Y-82162000D02*
X174200000Y-82600000D01*
X173250000Y-65525000D02*
X173725000Y-65525000D01*
X169186000Y-65539000D02*
X173236000Y-65539000D01*
X173236000Y-65539000D02*
X173250000Y-65525000D01*
X173725000Y-65525000D02*
X174200000Y-66000000D01*
X123923400Y-65293200D02*
X128725600Y-65293200D01*
X131136800Y-66029100D02*
X129461500Y-66029100D01*
X128725600Y-65293200D02*
X129308000Y-65875600D01*
X129461500Y-66029100D02*
X129308000Y-65875600D01*
X132762400Y-97096100D02*
X132965600Y-96892900D01*
X131187600Y-97096100D02*
X132762400Y-97096100D01*
X123923400Y-96381700D02*
X130473200Y-96381700D01*
X130473200Y-96381700D02*
X131187600Y-97096100D01*
X164968500Y-68661500D02*
X164995000Y-68635000D01*
X164995000Y-68364994D02*
X164995000Y-68635000D01*
X164968500Y-70732000D02*
X164968500Y-68661500D01*
X164981000Y-72256000D02*
X164981000Y-70744500D01*
X169186000Y-67289000D02*
X166070994Y-67289000D01*
X164981000Y-70744500D02*
X164968500Y-70732000D01*
X166070994Y-67289000D02*
X164995000Y-68364994D01*
X163243500Y-70732000D02*
X163243500Y-69116500D01*
X163231000Y-70744500D02*
X163243500Y-70732000D01*
X163231000Y-72256000D02*
X163231000Y-70744500D01*
X163194000Y-69067000D02*
X163243500Y-69116500D01*
X163243500Y-69116500D02*
X163725000Y-68635000D01*
X162074000Y-69067000D02*
X163194000Y-69067000D01*
X164995000Y-101909000D02*
X164995000Y-103979500D01*
X164995000Y-103979500D02*
X164968500Y-104006000D01*
X169186000Y-100563000D02*
X166070994Y-100563000D01*
X164995000Y-101638994D02*
X164995000Y-101909000D01*
X166070994Y-100563000D02*
X164995000Y-101638994D01*
X164981000Y-105530000D02*
X164981000Y-104018500D01*
X164981000Y-104018500D02*
X164968500Y-104006000D01*
X163194000Y-102341000D02*
X163243500Y-102390500D01*
X162074000Y-102341000D02*
X163194000Y-102341000D01*
X163231000Y-105530000D02*
X163231000Y-104018500D01*
X163231000Y-104018500D02*
X163243500Y-104006000D01*
X163243500Y-102390500D02*
X163725000Y-101909000D01*
X163243500Y-104006000D02*
X163243500Y-102390500D01*
X120672000Y-74669000D02*
X132864000Y-74669000D01*
X119859200Y-73091600D02*
X119859200Y-73856200D01*
X133875000Y-75680000D02*
X133875000Y-79525000D01*
X132864000Y-74669000D02*
X133875000Y-75680000D01*
X119859200Y-73856200D02*
X120672000Y-74669000D01*
X130451000Y-75050000D02*
X131335000Y-75934000D01*
X120291000Y-74796000D02*
X120545000Y-75050000D01*
X120280000Y-74807000D02*
X120291000Y-74796000D01*
X120545000Y-75050000D02*
X130451000Y-75050000D01*
X131335000Y-75934000D02*
X131335000Y-79525000D01*
X114633000Y-74807000D02*
X120280000Y-74807000D01*
X113833000Y-75407000D02*
X113984000Y-75558000D01*
X113984000Y-75558000D02*
X127911000Y-75558000D01*
X128795000Y-76452000D02*
X128795000Y-79525000D01*
X128800000Y-76447000D02*
X128795000Y-76452000D01*
X127911000Y-75558000D02*
X128800000Y-76447000D01*
X113833000Y-74807000D02*
X113833000Y-75407000D01*
X113433000Y-76320000D02*
X115211000Y-76320000D01*
X116095000Y-77204000D02*
X116095000Y-79525000D01*
X115211000Y-76320000D02*
X116095000Y-77204000D01*
X112233000Y-74807000D02*
X112233000Y-75120000D01*
X112233000Y-75120000D02*
X113433000Y-76320000D01*
X113565000Y-75939000D02*
X125244000Y-75939000D01*
X126255000Y-76950000D02*
X126255000Y-79525000D01*
X113033000Y-75407000D02*
X113565000Y-75939000D01*
X125244000Y-75939000D02*
X126255000Y-76950000D01*
X113033000Y-74807000D02*
X113033000Y-75407000D01*
X113555000Y-77278022D02*
X113555000Y-79525000D01*
X111655000Y-72298600D02*
X111655000Y-75378022D01*
X106919600Y-67563200D02*
X111655000Y-72298600D01*
X111655000Y-75378022D02*
X113555000Y-77278022D01*
X111015000Y-79525000D02*
X111015000Y-73267000D01*
X106194000Y-66888800D02*
X106319600Y-66763200D01*
X106319600Y-66763200D02*
X106919600Y-66763200D01*
X106194000Y-68446000D02*
X106194000Y-66888800D01*
X111015000Y-73267000D02*
X106194000Y-68446000D01*
X129562000Y-124834000D02*
X126161000Y-121433000D01*
X176487978Y-111305533D02*
X174901000Y-112892511D01*
X174647000Y-102863000D02*
X173512605Y-102863000D01*
X175917000Y-81908000D02*
X175917000Y-83556511D01*
X175663000Y-115550795D02*
X175663000Y-117210512D01*
X174836961Y-84636550D02*
X174836961Y-97437553D01*
X173512605Y-102863000D02*
X172275600Y-104100005D01*
X126270200Y-116321600D02*
X126270200Y-120660800D01*
X126270200Y-120660800D02*
X125498000Y-121433000D01*
X174488511Y-107276511D02*
X176487978Y-109275978D01*
X171059511Y-123581772D02*
X169807283Y-124834000D01*
X172331000Y-71552500D02*
X172331000Y-72988000D01*
X173232228Y-107276511D02*
X174488511Y-107276511D01*
X174647000Y-101098705D02*
X174647000Y-102863000D01*
X126161000Y-121433000D02*
X125498000Y-121433000D01*
X172275600Y-104100005D02*
X172275600Y-104681800D01*
X175917000Y-83556511D02*
X174836961Y-84636550D01*
X175663000Y-117210512D02*
X171059511Y-121814001D01*
X174393000Y-78987000D02*
X174393000Y-79241000D01*
X175725960Y-98326552D02*
X175725960Y-100019744D01*
X175725960Y-100019744D02*
X174647000Y-101098705D01*
X174901000Y-79749000D02*
X174901000Y-80892000D01*
X174836961Y-97437553D02*
X175725960Y-98326552D01*
X171059511Y-121814001D02*
X171059511Y-123581772D01*
X174901000Y-114788795D02*
X175663000Y-115550795D01*
X169807283Y-124834000D02*
X129562000Y-124834000D01*
X174901000Y-112892511D02*
X174901000Y-114788795D01*
X174393000Y-79241000D02*
X174901000Y-79749000D01*
X172275600Y-106319884D02*
X173232228Y-107276511D01*
X174901000Y-80892000D02*
X175917000Y-81908000D01*
X172275600Y-104681800D02*
X172275600Y-106319884D01*
X176487978Y-109275978D02*
X176487978Y-111305533D01*
X172331000Y-72988000D02*
X172361000Y-73018000D01*
X106319600Y-65963200D02*
X105813000Y-66469800D01*
X106919600Y-65963200D02*
X106319600Y-65963200D01*
X105813000Y-69970000D02*
X108480000Y-72637000D01*
X108480000Y-72637000D02*
X108475000Y-72642000D01*
X108475000Y-72642000D02*
X108475000Y-79525000D01*
X105813000Y-66469800D02*
X105813000Y-69970000D01*
X81810000Y-102482000D02*
X83090200Y-103762200D01*
X83090200Y-103762200D02*
X83090200Y-111271600D01*
X83969000Y-67381400D02*
X83969000Y-67469000D01*
X93420000Y-57930400D02*
X83969000Y-67381400D01*
X83969000Y-67469000D02*
X83969000Y-81205022D01*
X81810000Y-83364022D02*
X81810000Y-102482000D01*
X83969000Y-81205022D02*
X81810000Y-83364022D01*
X105305000Y-71367000D02*
X105940000Y-72002000D01*
X106919600Y-65163200D02*
X106174800Y-65163200D01*
X105305000Y-66033000D02*
X105305000Y-71367000D01*
X105940000Y-72256000D02*
X105940000Y-72002000D01*
X106174800Y-65163200D02*
X105305000Y-66033000D01*
X105935000Y-72261000D02*
X105935000Y-79525000D01*
X105935000Y-72261000D02*
X105940000Y-72256000D01*
X103395000Y-79525000D02*
X103395000Y-65022000D01*
X104613000Y-63804000D02*
X106919600Y-63804000D01*
X103395000Y-65022000D02*
X104613000Y-63804000D01*
X123730200Y-121189200D02*
X123974000Y-121433000D01*
X176044000Y-115437512D02*
X176044000Y-117323796D01*
X175028000Y-78987000D02*
X175028000Y-79291519D01*
X171536022Y-123599544D02*
X169920566Y-125215000D01*
X175250511Y-80733511D02*
X176329480Y-81812480D01*
X175186480Y-84781315D02*
X175186480Y-97292776D01*
X172925600Y-104681800D02*
X172925600Y-106475600D01*
X175186480Y-97292776D02*
X176075480Y-98181776D01*
X124748520Y-122207520D02*
X123974000Y-121433000D01*
X171536022Y-121831774D02*
X171536022Y-123599544D01*
X126046520Y-122207520D02*
X124748520Y-122207520D01*
X176329480Y-83638315D02*
X175186480Y-84781315D01*
X172981000Y-72622000D02*
X173250000Y-72891000D01*
X172981000Y-71552500D02*
X172981000Y-72622000D01*
X176329480Y-81812480D02*
X176329480Y-83638315D01*
X175176080Y-101063920D02*
X175176080Y-103095920D01*
X176837489Y-109117489D02*
X176837489Y-111450306D01*
X175028000Y-79291519D02*
X175250511Y-79514030D01*
X175282000Y-113005795D02*
X175282000Y-114675511D01*
X173377000Y-106927000D02*
X174647000Y-106927000D01*
X174647000Y-106927000D02*
X176837489Y-109117489D01*
X176075480Y-100164520D02*
X175176080Y-101063920D01*
X175176080Y-103095920D02*
X175028000Y-103244000D01*
X172925600Y-106475600D02*
X173377000Y-106927000D01*
X175028000Y-103244000D02*
X173781605Y-103244000D01*
X129054000Y-125215000D02*
X126046520Y-122207520D01*
X176044000Y-117323796D02*
X171536022Y-121831774D01*
X169920566Y-125215000D02*
X129054000Y-125215000D01*
X175282000Y-114675511D02*
X176044000Y-115437512D01*
X123730200Y-116321600D02*
X123730200Y-121189200D01*
X173781605Y-103244000D02*
X172925600Y-104100005D01*
X176837489Y-111450306D02*
X175282000Y-113005795D01*
X175250511Y-79514030D02*
X175250511Y-80733511D01*
X172925600Y-104100005D02*
X172925600Y-104681800D01*
X176075480Y-98181776D02*
X176075480Y-100164520D01*
X159290200Y-116321600D02*
X157883000Y-114914400D01*
X157883000Y-114914400D02*
X157883000Y-108832000D01*
X102892000Y-64255000D02*
X104143000Y-63004000D01*
X104143000Y-63004000D02*
X106919600Y-63004000D01*
X100855000Y-79525000D02*
X100855000Y-77214000D01*
X100855000Y-77214000D02*
X102892000Y-75177000D01*
X102892000Y-75177000D02*
X102892000Y-64255000D01*
X102384000Y-63747000D02*
X103927000Y-62204000D01*
X98315000Y-78230000D02*
X102384000Y-74161000D01*
X102384000Y-74161000D02*
X102384000Y-63747000D01*
X103927000Y-62204000D02*
X106919600Y-62204000D01*
X98315000Y-79525000D02*
X98315000Y-78230000D01*
X95775000Y-78484000D02*
X101876000Y-72383000D01*
X95775000Y-79525000D02*
X95775000Y-78484000D01*
X101876000Y-72383000D02*
X101876000Y-62731000D01*
X101876000Y-62731000D02*
X103203000Y-61404000D01*
X103203000Y-61404000D02*
X106919600Y-61404000D01*
X93235000Y-79525000D02*
X93235000Y-78611000D01*
X101368000Y-70478000D02*
X101368000Y-62604000D01*
X103927200Y-60044800D02*
X106919600Y-60044800D01*
X101368000Y-62604000D02*
X103927200Y-60044800D01*
X93235000Y-78611000D02*
X101368000Y-70478000D01*
X104092200Y-59244800D02*
X106919600Y-59244800D01*
X100860000Y-62477000D02*
X104092200Y-59244800D01*
X100860000Y-69360000D02*
X100860000Y-62477000D01*
X90695000Y-79525000D02*
X100860000Y-69360000D01*
X100479000Y-62096000D02*
X104130200Y-58444800D01*
X88155000Y-79246000D02*
X100479000Y-66922000D01*
X100479000Y-66922000D02*
X100479000Y-62096000D01*
X88155000Y-79525000D02*
X88155000Y-79246000D01*
X104130200Y-58444800D02*
X106919600Y-58444800D01*
X99971000Y-61969000D02*
X104289000Y-57651000D01*
X104422200Y-57644800D02*
X106919600Y-57644800D01*
X85615000Y-79525000D02*
X85717000Y-79525000D01*
X104289000Y-57651000D02*
X104416000Y-57651000D01*
X104416000Y-57651000D02*
X104422200Y-57644800D01*
X99971000Y-65271000D02*
X99971000Y-61969000D01*
X85717000Y-79525000D02*
X99971000Y-65271000D01*
X83839711Y-102225711D02*
X83461000Y-101847000D01*
X84865489Y-87742511D02*
X84865489Y-71634511D01*
X84865489Y-71564911D02*
X84865489Y-71634511D01*
X83839711Y-115572089D02*
X83839711Y-102225711D01*
X83461000Y-89147000D02*
X84865489Y-87742511D01*
X83090200Y-116321600D02*
X83839711Y-115572089D01*
X98500000Y-57930400D02*
X84865489Y-71564911D01*
X83461000Y-101847000D02*
X83461000Y-89147000D01*
X106067000Y-98359400D02*
X106067000Y-99688000D01*
X111030200Y-104651200D02*
X111030200Y-111271600D01*
X106067000Y-99688000D02*
X111030200Y-104651200D01*
X106319600Y-98106800D02*
X106067000Y-98359400D01*
X106919600Y-98106800D02*
X106319600Y-98106800D01*
X133890200Y-106810200D02*
X133890200Y-111271600D01*
X119859200Y-103966600D02*
X121168600Y-105276000D01*
X121168600Y-105276000D02*
X132356000Y-105276000D01*
X132356000Y-105276000D02*
X133890200Y-106810200D01*
X114633000Y-106811000D02*
X130081000Y-106811000D01*
X131350200Y-108080200D02*
X131350200Y-111271600D01*
X130081000Y-106811000D02*
X131350200Y-108080200D01*
X133890200Y-119665200D02*
X134896000Y-120671000D01*
X133890200Y-116321600D02*
X133890200Y-119665200D01*
X131350200Y-119263800D02*
X129943000Y-120671000D01*
X131350200Y-116321600D02*
X131350200Y-119263800D01*
X83075000Y-79525000D02*
X83075000Y-65735400D01*
X90880000Y-57930400D02*
X83075000Y-65735400D01*
X113984000Y-107562000D02*
X127784000Y-107562000D01*
X113833000Y-106811000D02*
X113833000Y-107411000D01*
X127784000Y-107562000D02*
X128810200Y-108588200D01*
X128810200Y-108588200D02*
X128810200Y-111271600D01*
X113833000Y-107411000D02*
X113984000Y-107562000D01*
X113033000Y-106811000D02*
X113033000Y-107289000D01*
X113814000Y-108070000D02*
X125117000Y-108070000D01*
X125117000Y-108070000D02*
X126270200Y-109223200D01*
X126270200Y-109223200D02*
X126270200Y-111271600D01*
X113033000Y-107289000D02*
X113814000Y-108070000D01*
X112233000Y-107124000D02*
X113687000Y-108578000D01*
X113687000Y-108578000D02*
X123212000Y-108578000D01*
X112233000Y-106811000D02*
X112233000Y-107124000D01*
X123730200Y-109096200D02*
X123730200Y-111271600D01*
X123212000Y-108578000D02*
X123730200Y-109096200D01*
X106919600Y-99524600D02*
X106919600Y-98906800D01*
X113570200Y-111271600D02*
X111528000Y-109229400D01*
X111528000Y-104133000D02*
X106919600Y-99524600D01*
X111528000Y-109229400D02*
X111528000Y-104133000D01*
X106919600Y-97306800D02*
X106416200Y-97306800D01*
X105559000Y-98164000D02*
X105559000Y-99942000D01*
X105559000Y-99942000D02*
X108490200Y-102873200D01*
X106416200Y-97306800D02*
X105559000Y-98164000D01*
X108490200Y-102873200D02*
X108490200Y-111271600D01*
X105051000Y-100069000D02*
X105950200Y-100968200D01*
X105950200Y-100968200D02*
X105950200Y-111271600D01*
X105051000Y-97275000D02*
X105051000Y-100069000D01*
X106919600Y-96506800D02*
X105819200Y-96506800D01*
X105819200Y-96506800D02*
X105051000Y-97275000D01*
X111030200Y-116321600D02*
X111030200Y-114938200D01*
X109369000Y-113277000D02*
X109369000Y-107167000D01*
X111030200Y-114938200D02*
X109369000Y-113277000D01*
X109369000Y-107167000D02*
X109750000Y-106786000D01*
X108490200Y-114938200D02*
X106956000Y-113404000D01*
X106956000Y-113404000D02*
X106956000Y-107026000D01*
X106956000Y-107026000D02*
X107210000Y-106772000D01*
X108490200Y-116321600D02*
X108490200Y-114938200D01*
X103400000Y-103752000D02*
X103410200Y-103762200D01*
X105273400Y-95147600D02*
X104543000Y-95878000D01*
X104543000Y-100069000D02*
X103400000Y-101212000D01*
X106919600Y-95147600D02*
X105273400Y-95147600D01*
X103410200Y-103762200D02*
X103410200Y-111271600D01*
X103400000Y-101212000D02*
X103400000Y-103752000D01*
X104543000Y-95878000D02*
X104543000Y-100069000D01*
X105950200Y-114938200D02*
X104289000Y-113277000D01*
X104289000Y-113277000D02*
X104289000Y-107153000D01*
X105950200Y-116321600D02*
X105950200Y-114938200D01*
X104289000Y-107153000D02*
X104670000Y-106772000D01*
X100870200Y-103762200D02*
X100870200Y-111271600D01*
X105057400Y-94347600D02*
X104035000Y-95370000D01*
X104035000Y-95370000D02*
X104035000Y-99942000D01*
X100860000Y-103752000D02*
X100870200Y-103762200D01*
X104035000Y-99942000D02*
X100860000Y-103117000D01*
X100860000Y-103117000D02*
X100860000Y-103752000D01*
X106919600Y-94347600D02*
X105057400Y-94347600D01*
X98330200Y-103889200D02*
X98330200Y-103868800D01*
X98330200Y-111271600D02*
X98330200Y-103889200D01*
X98330200Y-103889200D02*
X98320000Y-103879000D01*
X103527000Y-94481000D02*
X104460400Y-93547600D01*
X103527000Y-98672000D02*
X103527000Y-94481000D01*
X104460400Y-93547600D02*
X106919600Y-93547600D01*
X98330200Y-103868800D02*
X103527000Y-98672000D01*
X101749000Y-113277000D02*
X101749000Y-107153000D01*
X103410200Y-116321600D02*
X103410200Y-114938200D01*
X101749000Y-107153000D02*
X102130000Y-106772000D01*
X103410200Y-114938200D02*
X101749000Y-113277000D01*
X95790200Y-111271600D02*
X95790200Y-103889200D01*
X95790200Y-103889200D02*
X97705400Y-101974000D01*
X103019000Y-98418000D02*
X103019000Y-93846000D01*
X104117400Y-92747600D02*
X106919600Y-92747600D01*
X103019000Y-93846000D02*
X104117400Y-92747600D01*
X99463000Y-101974000D02*
X103019000Y-98418000D01*
X97705400Y-101974000D02*
X99463000Y-101974000D01*
X100870200Y-114811200D02*
X99209000Y-113150000D01*
X99209000Y-107153000D02*
X99590000Y-106772000D01*
X99209000Y-113150000D02*
X99209000Y-107153000D01*
X100870200Y-116321600D02*
X100870200Y-114811200D01*
X102511000Y-92322000D02*
X103495400Y-91337600D01*
X102511000Y-98291000D02*
X102511000Y-92322000D01*
X103495400Y-91337600D02*
X106919600Y-91337600D01*
X95653000Y-101466000D02*
X99336000Y-101466000D01*
X93250200Y-111271600D02*
X93250200Y-103889200D01*
X99336000Y-101466000D02*
X102511000Y-98291000D01*
X93240000Y-103879000D02*
X95653000Y-101466000D01*
X93250200Y-103889200D02*
X93240000Y-103879000D01*
X102898400Y-90537600D02*
X106919600Y-90537600D01*
X102003000Y-98164000D02*
X102003000Y-91433000D01*
X90710200Y-111271600D02*
X90710200Y-103762200D01*
X93494000Y-100958000D02*
X99209000Y-100958000D01*
X99209000Y-100958000D02*
X102003000Y-98164000D01*
X102003000Y-91433000D02*
X102898400Y-90537600D01*
X90700000Y-103752000D02*
X93494000Y-100958000D01*
X102555400Y-89737600D02*
X101495000Y-90798000D01*
X91990400Y-100450000D02*
X99082000Y-100450000D01*
X88170200Y-111271600D02*
X88170200Y-104270200D01*
X88170200Y-104270200D02*
X91990400Y-100450000D01*
X99082000Y-100450000D02*
X101495000Y-98037000D01*
X106919600Y-89737600D02*
X102555400Y-89737600D01*
X101495000Y-90798000D02*
X101495000Y-98037000D01*
X100987000Y-97910000D02*
X100987000Y-89782000D01*
X99018500Y-99878500D02*
X100987000Y-97910000D01*
X85630200Y-111271600D02*
X85630200Y-104270200D01*
X101831400Y-88937600D02*
X106919600Y-88937600D01*
X89894900Y-99985100D02*
X90001500Y-99878500D01*
X100987000Y-89782000D02*
X101831400Y-88937600D01*
X89894900Y-100005500D02*
X89894900Y-99985100D01*
X85630200Y-104270200D02*
X89894900Y-100005500D01*
X90001500Y-99878500D02*
X99018500Y-99878500D01*
X84515978Y-83134022D02*
X84515978Y-69374422D01*
X83075000Y-84575000D02*
X84515978Y-83134022D01*
X95960000Y-57930400D02*
X84515978Y-69374422D01*
X80535000Y-67465000D02*
X80535000Y-79525000D01*
X90500000Y-56500000D02*
X89500000Y-57500000D01*
X89500000Y-58500000D02*
X80535000Y-67465000D01*
X101040000Y-57930400D02*
X99609600Y-56500000D01*
X99609600Y-56500000D02*
X90500000Y-56500000D01*
X89500000Y-57500000D02*
X89500000Y-58500000D01*
X119910000Y-101339000D02*
X119910000Y-102165800D01*
X121608400Y-101085722D02*
X121633889Y-101111211D01*
X122382911Y-101111211D02*
X122408400Y-101085722D01*
X119910000Y-102165800D02*
X119859200Y-102216600D01*
X121608400Y-99354400D02*
X121434000Y-99180000D01*
X121633889Y-101111211D02*
X122382911Y-101111211D01*
X122408400Y-101085722D02*
X122408400Y-100296700D01*
X121608400Y-100296700D02*
X121608400Y-101085722D01*
X121608400Y-100296700D02*
X121608400Y-99354400D01*
X121608400Y-67985400D02*
X121434000Y-67811000D01*
X121608400Y-70017400D02*
X121608400Y-69208200D01*
X122382911Y-70022711D02*
X121613711Y-70022711D01*
X122408400Y-69208200D02*
X122408400Y-69997222D01*
X119910000Y-71290800D02*
X119859200Y-71341600D01*
X121608400Y-69208200D02*
X121608400Y-67985400D01*
X122408400Y-69997222D02*
X122382911Y-70022711D01*
X121613711Y-70022711D02*
X121608400Y-70017400D01*
X119910000Y-70351000D02*
X119910000Y-71290800D01*
X166265000Y-113452994D02*
X169294463Y-110423531D01*
X166265000Y-113723000D02*
X166265000Y-113452994D01*
X163090000Y-116325000D02*
X165249000Y-116325000D01*
X171608869Y-110423531D02*
X171625600Y-110406800D01*
X162074000Y-117341000D02*
X163090000Y-116325000D01*
X162074000Y-117355000D02*
X162074000Y-117341000D01*
X165249000Y-116325000D02*
X166265000Y-115309000D01*
X169294463Y-110423531D02*
X171608869Y-110423531D01*
X166265000Y-115309000D02*
X166265000Y-113723000D01*
X162074000Y-100577000D02*
X163344000Y-99307000D01*
X165757000Y-99307000D02*
X166265000Y-98799000D01*
X166265000Y-98799000D02*
X166265000Y-96959000D01*
X163344000Y-99307000D02*
X165757000Y-99307000D01*
X162074000Y-100591000D02*
X162074000Y-100577000D01*
X173575600Y-110406800D02*
X173575600Y-109665600D01*
X173575600Y-109665600D02*
X172996000Y-109086000D01*
X164995000Y-111626000D02*
X164995000Y-109340000D01*
X164995000Y-111626000D02*
X164995000Y-113723000D01*
X170610980Y-110074020D02*
X166745020Y-110074020D01*
X172275600Y-110406800D02*
X172275600Y-109825005D01*
X166646000Y-109975000D02*
X166745020Y-110074020D01*
X163217000Y-107562000D02*
X164995000Y-109340000D01*
X171265220Y-109419780D02*
X170610980Y-110074020D01*
X172925600Y-110406800D02*
X172275600Y-110406800D01*
X172275600Y-109825005D02*
X171870375Y-109419780D01*
X153946000Y-105338200D02*
X156169800Y-107562000D01*
X166646000Y-108324000D02*
X166646000Y-109975000D01*
X166546980Y-110074020D02*
X164995000Y-111626000D01*
X166745020Y-110074020D02*
X166546980Y-110074020D01*
X171870375Y-109419780D02*
X171265220Y-109419780D01*
X156169800Y-107562000D02*
X163217000Y-107562000D01*
X164995000Y-98672000D02*
X164995000Y-96959000D01*
X164995000Y-93211000D02*
X164995000Y-96959000D01*
X166646000Y-91560000D02*
X164995000Y-93211000D01*
X174875600Y-110406800D02*
X174225600Y-110406800D01*
X159915000Y-96640000D02*
X161947000Y-98672000D01*
X174225600Y-110406800D02*
X174225600Y-109553600D01*
X157270800Y-96640000D02*
X159915000Y-96640000D01*
X161947000Y-98672000D02*
X164995000Y-98672000D01*
X174225600Y-109553600D02*
X173758000Y-109086000D01*
X96669000Y-107153000D02*
X97050000Y-106772000D01*
X96669000Y-113404000D02*
X96669000Y-107153000D01*
X98330200Y-116321600D02*
X98330200Y-115065200D01*
X98330200Y-115065200D02*
X96669000Y-113404000D01*
X156994000Y-104576200D02*
X155481400Y-104576200D01*
X155481400Y-104576200D02*
X155470000Y-104564800D01*
X153968500Y-102396950D02*
X154670520Y-103098970D01*
X154670520Y-103098970D02*
X154670520Y-103765320D01*
X153968500Y-101329000D02*
X153968500Y-102396950D01*
X154670520Y-103765320D02*
X155470000Y-104564800D01*
X156994000Y-72685200D02*
X155470000Y-72685200D01*
X154619720Y-71185170D02*
X154073000Y-70638450D01*
X155470000Y-72685200D02*
X154619720Y-71834920D01*
X154073000Y-70638450D02*
X154073000Y-69546500D01*
X154073000Y-69546500D02*
X153968500Y-69442000D01*
X154619720Y-71834920D02*
X154619720Y-71185170D01*
X154347262Y-100829000D02*
X154655520Y-101137258D01*
X153968500Y-100829000D02*
X154347262Y-100829000D01*
X154655520Y-102000320D02*
X155470000Y-102814800D01*
X154655520Y-101137258D02*
X154655520Y-102000320D01*
X152781000Y-71264600D02*
X152371200Y-71674400D01*
X152781000Y-70129500D02*
X152781000Y-71264600D01*
X148054300Y-101896700D02*
X148477769Y-101473231D01*
X143431500Y-101896700D02*
X148054300Y-101896700D01*
X148477769Y-101473231D02*
X149949269Y-101473231D01*
X149949269Y-101473231D02*
X150093500Y-101329000D01*
X166265000Y-80195000D02*
X166265000Y-79924994D01*
X162074000Y-83827000D02*
X162695000Y-83827000D01*
X166265000Y-82035000D02*
X166265000Y-80195000D01*
X168912494Y-77277500D02*
X171681000Y-77277500D01*
X163852000Y-82670000D02*
X165630000Y-82670000D01*
X162695000Y-83827000D02*
X163852000Y-82670000D01*
X165630000Y-82670000D02*
X166265000Y-82035000D01*
X166265000Y-79924994D02*
X168912494Y-77277500D01*
X149665750Y-70129500D02*
X150781000Y-70129500D01*
X144821450Y-74973800D02*
X149665750Y-70129500D01*
X143481200Y-74973800D02*
X144821450Y-74973800D01*
X173631000Y-76066000D02*
X173504000Y-75939000D01*
X162709000Y-66160000D02*
X165630000Y-66160000D01*
X173631000Y-77277500D02*
X173631000Y-76066000D01*
X165630000Y-66160000D02*
X166265000Y-65525000D01*
X162074000Y-66795000D02*
X162709000Y-66160000D01*
X162074000Y-67317000D02*
X162074000Y-66795000D01*
X166265000Y-65525000D02*
X166265000Y-63685000D01*
X149755511Y-69779989D02*
X150093500Y-69442000D01*
X143532000Y-70097000D02*
X143849011Y-69779989D01*
X143849011Y-69779989D02*
X149755511Y-69779989D01*
X164995000Y-78606000D02*
X164995000Y-80195000D01*
X166773000Y-76828000D02*
X164995000Y-78606000D01*
X170898705Y-76828000D02*
X166773000Y-76828000D01*
X163277720Y-73459720D02*
X164995000Y-75177000D01*
X153895200Y-73424400D02*
X153930520Y-73459720D01*
X171925775Y-76290480D02*
X171436225Y-76290480D01*
X171436225Y-76290480D02*
X170898705Y-76828000D01*
X166646000Y-75050000D02*
X166646000Y-76828000D01*
X172981000Y-77277500D02*
X172331000Y-77277500D01*
X172331000Y-77277500D02*
X172331000Y-76695705D01*
X153930520Y-73459720D02*
X163277720Y-73459720D01*
X172331000Y-76695705D02*
X171925775Y-76290480D01*
X164995000Y-75177000D02*
X164995000Y-78606000D01*
X164995000Y-60191000D02*
X164995000Y-63685000D01*
X174281000Y-77277500D02*
X174281000Y-75827000D01*
X161947000Y-65525000D02*
X164995000Y-65525000D01*
X161210400Y-64788400D02*
X161947000Y-65525000D01*
X174931000Y-77277500D02*
X174281000Y-77277500D01*
X164995000Y-63685000D02*
X164995000Y-65525000D01*
X157259400Y-64788400D02*
X161210400Y-64788400D01*
X174281000Y-75827000D02*
X174266000Y-75812000D01*
X166646000Y-58540000D02*
X164995000Y-60191000D01*
X94129000Y-113277000D02*
X94129000Y-107153000D01*
X95790200Y-116321600D02*
X95790200Y-114938200D01*
X94129000Y-107153000D02*
X94510000Y-106772000D01*
X95790200Y-114938200D02*
X94129000Y-113277000D01*
X93250200Y-116321600D02*
X93250200Y-115065200D01*
X91589000Y-113404000D02*
X91589000Y-107167000D01*
X91589000Y-107167000D02*
X91970000Y-106786000D01*
X93250200Y-115065200D02*
X91589000Y-113404000D01*
X152781000Y-65108000D02*
X152371200Y-64698200D01*
X152781000Y-66254500D02*
X152781000Y-65108000D01*
X152781000Y-98141500D02*
X152781000Y-96959600D01*
X152781000Y-96959600D02*
X152422000Y-96600600D01*
X150093500Y-66942000D02*
X149375522Y-66224022D01*
X148585069Y-66224022D02*
X147301847Y-64940800D01*
X149375522Y-66224022D02*
X148585069Y-66224022D01*
X147301847Y-64940800D02*
X143379600Y-64940800D01*
X112233000Y-104063000D02*
X112290000Y-104006000D01*
X115693400Y-94381700D02*
X116834300Y-94381700D01*
X112233000Y-105011000D02*
X112233000Y-104063000D01*
X116834300Y-94381700D02*
X116989000Y-94227000D01*
X115693400Y-95181700D02*
X117101783Y-95181700D01*
X113833000Y-105011000D02*
X113833000Y-104025000D01*
X117101783Y-95181700D02*
X117300407Y-95380324D01*
X113833000Y-104025000D02*
X113814000Y-104006000D01*
X113033000Y-104025000D02*
X113052000Y-104006000D01*
X115693400Y-94781700D02*
X117288036Y-94781700D01*
X113033000Y-105011000D02*
X113033000Y-104025000D01*
X117288036Y-94781700D02*
X117312956Y-94756780D01*
X115693400Y-95581700D02*
X116615141Y-95581700D01*
X116615141Y-95581700D02*
X116888265Y-95854824D01*
X114633000Y-105011000D02*
X114633000Y-104063000D01*
X114633000Y-104063000D02*
X114576000Y-104006000D01*
X110618547Y-94755453D02*
X113307300Y-92066700D01*
X110618547Y-95644453D02*
X110618547Y-94755453D01*
X108719600Y-96506800D02*
X109756200Y-96506800D01*
X113307300Y-92066700D02*
X116808400Y-92066700D01*
X109756200Y-96506800D02*
X110618547Y-95644453D01*
X108719600Y-98106800D02*
X109319600Y-98106800D01*
X111317569Y-96108831D02*
X111317569Y-95199431D01*
X109319600Y-98106800D02*
X111317569Y-96108831D01*
X111317569Y-95199431D02*
X112935300Y-93581700D01*
X112935300Y-93581700D02*
X115693400Y-93581700D01*
X109450484Y-97306800D02*
X110968058Y-95789225D01*
X112700300Y-93181700D02*
X115693400Y-93181700D01*
X110968058Y-95789225D02*
X110968058Y-94913942D01*
X108719600Y-97306800D02*
X109450484Y-97306800D01*
X110968058Y-94913942D02*
X112700300Y-93181700D01*
X108719600Y-98906800D02*
X109319600Y-98906800D01*
X113043300Y-93981700D02*
X115693400Y-93981700D01*
X109319600Y-98906800D02*
X111667079Y-96559321D01*
X111667079Y-95357921D02*
X113043300Y-93981700D01*
X111667079Y-96559321D02*
X111667079Y-95357921D01*
X119021000Y-93201096D02*
X119021000Y-93592000D01*
X109705400Y-92747600D02*
X109750000Y-92703000D01*
X119208400Y-93013696D02*
X119021000Y-93201096D01*
X119208400Y-92066700D02*
X119208400Y-93013696D01*
X108719600Y-92747600D02*
X109705400Y-92747600D01*
X117608400Y-93576400D02*
X117624000Y-93592000D01*
X108719600Y-94347600D02*
X109743600Y-94347600D01*
X109743600Y-94347600D02*
X109750000Y-94354000D01*
X117608400Y-92066700D02*
X117608400Y-93576400D01*
X118808400Y-92788600D02*
X118513000Y-93084000D01*
X109705600Y-93547600D02*
X109750000Y-93592000D01*
X108719600Y-93547600D02*
X109705600Y-93547600D01*
X118808400Y-92066700D02*
X118808400Y-92788600D01*
X109654600Y-95147600D02*
X109750000Y-95243000D01*
X108719600Y-95147600D02*
X109654600Y-95147600D01*
X117208400Y-92066700D02*
X117208400Y-93175631D01*
X117208400Y-93175631D02*
X116825531Y-93558500D01*
X109705400Y-88937600D02*
X109750000Y-88893000D01*
X108719600Y-88937600D02*
X109705400Y-88937600D01*
X122408400Y-92066700D02*
X122408400Y-91220600D01*
X122408400Y-91220600D02*
X122450000Y-91179000D01*
X120008400Y-92928400D02*
X120164000Y-93084000D01*
X109743600Y-90537600D02*
X109750000Y-90544000D01*
X120008400Y-92066700D02*
X120008400Y-92928400D01*
X108719600Y-90537600D02*
X109743600Y-90537600D01*
X120164000Y-93084000D02*
X120164000Y-93592000D01*
X120408400Y-92820400D02*
X120672000Y-93084000D01*
X120408400Y-92066700D02*
X120408400Y-92820400D01*
X108719600Y-89737600D02*
X109705600Y-89737600D01*
X109705600Y-89737600D02*
X109750000Y-89782000D01*
X119608400Y-92066700D02*
X119608400Y-93198023D01*
X108719600Y-91337600D02*
X109718400Y-91337600D01*
X109718400Y-91337600D02*
X109750000Y-91306000D01*
X119608400Y-93198023D02*
X119651760Y-93241383D01*
X116639600Y-63112000D02*
X117030609Y-63112000D01*
X115693400Y-63293200D02*
X116458400Y-63293200D01*
X112233000Y-72059000D02*
X112290000Y-72002000D01*
X117030609Y-63112000D02*
X117033000Y-63109609D01*
X116458400Y-63293200D02*
X116639600Y-63112000D01*
X112233000Y-73007000D02*
X112233000Y-72059000D01*
X115693400Y-64093200D02*
X116537153Y-64093200D01*
X113833000Y-72021000D02*
X113814000Y-72002000D01*
X116537153Y-64093200D02*
X116665454Y-64221501D01*
X117276499Y-64221501D02*
X117497000Y-64001000D01*
X113833000Y-73007000D02*
X113833000Y-72021000D01*
X116665454Y-64221501D02*
X117276499Y-64221501D01*
X115693400Y-63693200D02*
X116856442Y-63693200D01*
X113033000Y-72021000D02*
X113052000Y-72002000D01*
X116856442Y-63693200D02*
X116864653Y-63684989D01*
X113033000Y-73007000D02*
X113033000Y-72021000D01*
X117815988Y-64571012D02*
X117878000Y-64509000D01*
X115693400Y-64493200D02*
X115718889Y-64518689D01*
X116455588Y-64518689D02*
X116507911Y-64571012D01*
X116507911Y-64571012D02*
X117815988Y-64571012D01*
X114633000Y-73007000D02*
X114633000Y-72059000D01*
X114633000Y-72059000D02*
X114576000Y-72002000D01*
X115718889Y-64518689D02*
X116455588Y-64518689D01*
X113534800Y-60978200D02*
X109349800Y-65163200D01*
X109349800Y-65163200D02*
X108719600Y-65163200D01*
X116808400Y-60978200D02*
X113534800Y-60978200D01*
X115693400Y-62493200D02*
X113626666Y-62493200D01*
X109356666Y-66763200D02*
X108719600Y-66763200D01*
X113626666Y-62493200D02*
X109356666Y-66763200D01*
X113532383Y-62093200D02*
X109662383Y-65963200D01*
X115693400Y-62093200D02*
X113532383Y-62093200D01*
X109662383Y-65963200D02*
X108719600Y-65963200D01*
X111616280Y-65436720D02*
X111616280Y-64997870D01*
X109489800Y-67563200D02*
X111616280Y-65436720D01*
X108719600Y-67563200D02*
X109489800Y-67563200D01*
X113720950Y-62893200D02*
X115693400Y-62893200D01*
X111616280Y-64997870D02*
X113720950Y-62893200D01*
X110074000Y-61404000D02*
X110131000Y-61461000D01*
X108719600Y-61404000D02*
X110074000Y-61404000D01*
X119208400Y-62162600D02*
X119021000Y-62350000D01*
X119208400Y-60978200D02*
X119208400Y-62162600D01*
X108719600Y-63004000D02*
X110112000Y-63004000D01*
X110112000Y-63004000D02*
X110131000Y-62985000D01*
X117608400Y-60978200D02*
X117608400Y-61984600D01*
X117608400Y-61984600D02*
X117497000Y-62096000D01*
X118808400Y-60978200D02*
X118808400Y-61673600D01*
X118808400Y-61673600D02*
X118513000Y-61969000D01*
X110112000Y-62204000D02*
X110131000Y-62223000D01*
X108719600Y-62204000D02*
X110112000Y-62204000D01*
X109947000Y-63804000D02*
X110004000Y-63747000D01*
X108719600Y-63804000D02*
X109947000Y-63804000D01*
X117208400Y-60978200D02*
X117208400Y-61622600D01*
X117208400Y-61622600D02*
X116735000Y-62096000D01*
X122408400Y-60978200D02*
X122408400Y-60149400D01*
X122408400Y-60149400D02*
X122323000Y-60064000D01*
X108719600Y-57644800D02*
X110124800Y-57644800D01*
X110124800Y-57644800D02*
X110131000Y-57651000D01*
X120008400Y-60978200D02*
X120008400Y-61898083D01*
X120008400Y-61898083D02*
X120192211Y-62081894D01*
X108719600Y-59244800D02*
X110073800Y-59244800D01*
X110073800Y-59244800D02*
X110131000Y-59302000D01*
X110099200Y-58444800D02*
X110131000Y-58413000D01*
X120408400Y-61627036D02*
X120750364Y-61969000D01*
X108719600Y-58444800D02*
X110099200Y-58444800D01*
X120408400Y-60978200D02*
X120408400Y-61627036D01*
X120750364Y-61969000D02*
X121053000Y-61969000D01*
X119608400Y-60978200D02*
X119608400Y-62429400D01*
X110111800Y-60044800D02*
X110131000Y-60064000D01*
X119608400Y-62429400D02*
X119656000Y-62477000D01*
X108719600Y-60044800D02*
X110111800Y-60044800D01*
X88919711Y-107282289D02*
X89430000Y-106772000D01*
X90710200Y-116321600D02*
X88919711Y-114531111D01*
X88919711Y-114531111D02*
X88919711Y-107282289D01*
X112163000Y-119271400D02*
X108886400Y-122548000D01*
X110474520Y-108234480D02*
X110131000Y-108578000D01*
X111401000Y-113658000D02*
X112163000Y-114420000D01*
X112163000Y-114420000D02*
X112163000Y-119271400D01*
X110131000Y-112946422D02*
X110842578Y-113658000D01*
X109750000Y-105036000D02*
X110474520Y-105760520D01*
X110131000Y-108578000D02*
X110131000Y-112946422D01*
X110842578Y-113658000D02*
X111401000Y-113658000D01*
X110474520Y-105760520D02*
X110474520Y-108234480D01*
X109115000Y-113912000D02*
X109750000Y-114547000D01*
X107591000Y-112896000D02*
X108607000Y-113912000D01*
X107934520Y-108361480D02*
X107591000Y-108705000D01*
X107934520Y-105746520D02*
X107934520Y-108361480D01*
X107591000Y-108705000D02*
X107591000Y-112896000D01*
X107210000Y-105022000D02*
X107934520Y-105746520D01*
X109750000Y-114547000D02*
X109750000Y-120058800D01*
X109750000Y-120058800D02*
X107260800Y-122548000D01*
X108607000Y-113912000D02*
X109115000Y-113912000D01*
X104924000Y-109213000D02*
X104924000Y-113023000D01*
X104670000Y-105022000D02*
X105394520Y-105746520D01*
X104924000Y-113023000D02*
X105686000Y-113785000D01*
X105686000Y-113785000D02*
X106448000Y-113785000D01*
X105394520Y-108742480D02*
X104924000Y-109213000D01*
X107210000Y-120973200D02*
X105635200Y-122548000D01*
X107210000Y-114547000D02*
X107210000Y-120973200D01*
X106448000Y-113785000D02*
X107210000Y-114547000D01*
X105394520Y-105746520D02*
X105394520Y-108742480D01*
X103095578Y-113531000D02*
X103781000Y-113531000D01*
X104670000Y-121887600D02*
X104009600Y-122548000D01*
X103781000Y-113531000D02*
X104670000Y-114420000D01*
X102854520Y-108615480D02*
X102384000Y-109086000D01*
X102854520Y-105746520D02*
X102854520Y-108615480D01*
X102384000Y-109086000D02*
X102384000Y-112819422D01*
X104670000Y-114420000D02*
X104670000Y-121887600D01*
X102130000Y-105022000D02*
X102854520Y-105746520D01*
X102384000Y-112819422D02*
X103095578Y-113531000D01*
X102130000Y-122294000D02*
X102384000Y-122548000D01*
X99844000Y-109467000D02*
X99844000Y-112819422D01*
X99590000Y-105022000D02*
X100314520Y-105746520D01*
X99844000Y-112819422D02*
X102130000Y-115105422D01*
X102130000Y-115105422D02*
X102130000Y-122294000D01*
X100314520Y-108996480D02*
X99844000Y-109467000D01*
X100314520Y-105746520D02*
X100314520Y-108996480D01*
X99540089Y-115007378D02*
X99540089Y-121329689D01*
X99540089Y-121329689D02*
X100758400Y-122548000D01*
X97050000Y-105022000D02*
X97774520Y-105746520D01*
X97774520Y-108869480D02*
X97304000Y-109340000D01*
X97774520Y-105746520D02*
X97774520Y-108869480D01*
X97428711Y-112896000D02*
X99540089Y-115007378D01*
X97428711Y-112893711D02*
X97428711Y-112896000D01*
X97304000Y-112769000D02*
X97428711Y-112893711D01*
X97304000Y-109340000D02*
X97304000Y-112769000D01*
X95234520Y-108615480D02*
X94891000Y-108959000D01*
X94891000Y-112946422D02*
X97050000Y-115105422D01*
X95234520Y-105746520D02*
X95234520Y-108615480D01*
X94510000Y-105022000D02*
X95234520Y-105746520D01*
X94891000Y-108959000D02*
X94891000Y-112946422D01*
X97050000Y-115105422D02*
X97050000Y-120465200D01*
X97050000Y-120465200D02*
X99132800Y-122548000D01*
X94510000Y-115007378D02*
X92224000Y-112721378D01*
X94510000Y-119550800D02*
X94510000Y-115007378D01*
X97507200Y-122548000D02*
X94510000Y-119550800D01*
X92224000Y-109723778D02*
X92694520Y-109253258D01*
X92694520Y-109253258D02*
X92694520Y-105760520D01*
X92224000Y-112721378D02*
X92224000Y-109723778D01*
X92694520Y-105760520D02*
X91970000Y-105036000D01*
X90154520Y-105746520D02*
X90154520Y-109253258D01*
X91970000Y-118636400D02*
X95881600Y-122548000D01*
X89684000Y-109723778D02*
X89684000Y-112819422D01*
X90903578Y-114039000D02*
X91335000Y-114039000D01*
X90154520Y-109253258D02*
X89684000Y-109723778D01*
X91970000Y-114674000D02*
X91970000Y-118636400D01*
X89430000Y-105022000D02*
X90154520Y-105746520D01*
X91335000Y-114039000D02*
X91970000Y-114674000D01*
X89684000Y-112819422D02*
X90903578Y-114039000D01*
X152422000Y-105338200D02*
X152422000Y-105112200D01*
X152422000Y-105112200D02*
X153946000Y-103588200D01*
X153281000Y-102016500D02*
X153281000Y-102923200D01*
X153281000Y-102923200D02*
X153946000Y-103588200D01*
X152371200Y-73198400D02*
X153895200Y-71674400D01*
X152371200Y-73424400D02*
X152371200Y-73198400D01*
X153281000Y-70129500D02*
X153281000Y-71060200D01*
X153281000Y-71060200D02*
X153895200Y-71674400D01*
X152781000Y-102016500D02*
X152781000Y-103229200D01*
X152781000Y-103229200D02*
X152422000Y-103588200D01*
X154734880Y-69329618D02*
X154347262Y-68942000D01*
X154734880Y-70200080D02*
X154734880Y-69329618D01*
X155470000Y-70935200D02*
X154734880Y-70200080D01*
X154347262Y-68942000D02*
X153968500Y-68942000D01*
X143431500Y-106875100D02*
X144873350Y-106875100D01*
X144873350Y-106875100D02*
X149731950Y-102016500D01*
X149731950Y-102016500D02*
X150781000Y-102016500D01*
X157248000Y-66312400D02*
X157033400Y-66312400D01*
X153968500Y-66329300D02*
X155509400Y-64788400D01*
X153968500Y-66942000D02*
X153968500Y-66329300D01*
X157033400Y-66312400D02*
X155509400Y-64788400D01*
X153895200Y-64698200D02*
X153895200Y-64472200D01*
X153281000Y-66254500D02*
X153281000Y-65312400D01*
X153895200Y-64472200D02*
X152371200Y-62948200D01*
X153281000Y-65312400D02*
X153895200Y-64698200D01*
X134896000Y-122322000D02*
X133245000Y-120671000D01*
X134896000Y-122421000D02*
X134896000Y-122322000D01*
X129943000Y-122421000D02*
X131594000Y-120770000D01*
X131594000Y-120770000D02*
X131594000Y-120671000D01*
X153968500Y-98829000D02*
X153968500Y-98490050D01*
X157258300Y-98164000D02*
X157044800Y-98164000D01*
X153968500Y-98490050D02*
X155520800Y-96937750D01*
X155520800Y-96937750D02*
X155520800Y-96640000D01*
X157044800Y-98164000D02*
X155520800Y-96640000D01*
X153281000Y-98141500D02*
X153281000Y-97265600D01*
X153946000Y-96600600D02*
X153946000Y-96374600D01*
X153946000Y-96374600D02*
X152422000Y-94850600D01*
X153281000Y-97265600D02*
X153946000Y-96600600D01*
X153968500Y-67442000D02*
X154368400Y-67442000D01*
X154368400Y-67442000D02*
X155498000Y-66312400D01*
X154653550Y-99329000D02*
X155508300Y-98474250D01*
X153968500Y-99329000D02*
X154653550Y-99329000D01*
X155508300Y-98474250D02*
X155508300Y-98164000D01*
X147246489Y-63626089D02*
X143430400Y-59810000D01*
X150401011Y-65874511D02*
X148790377Y-65874511D01*
X150781000Y-66254500D02*
X150401011Y-65874511D01*
X147246489Y-64330622D02*
X147246489Y-63626089D01*
X148790377Y-65874511D02*
X147246489Y-64330622D01*
X148380727Y-98150680D02*
X146564147Y-96334100D01*
X150093500Y-98829000D02*
X149415180Y-98150680D01*
X146564147Y-96334100D02*
X143441800Y-96334100D01*
X149415180Y-98150680D02*
X148380727Y-98150680D01*
X145359700Y-93285000D02*
X143430400Y-91355700D01*
X150781000Y-98141500D02*
X150440669Y-97801169D01*
X147533988Y-96550556D02*
X145359700Y-94376268D01*
X145359700Y-94376268D02*
X145359700Y-93285000D01*
X147533988Y-96600318D02*
X147533988Y-96550556D01*
X150440669Y-97801169D02*
X148734839Y-97801169D01*
X148734839Y-97801169D02*
X147533988Y-96600318D01*
M02*
