G04 #@! TF.GenerationSoftware,KiCad,Pcbnew,(6.0.2)*
G04 #@! TF.CreationDate,2022-03-04T11:28:50+07:00*
G04 #@! TF.ProjectId,zeabus_hydrophone,7a656162-7573-45f6-9879-64726f70686f,3.1.0*
G04 #@! TF.SameCoordinates,Original*
G04 #@! TF.FileFunction,Copper,L4,Bot*
G04 #@! TF.FilePolarity,Positive*
%FSLAX46Y46*%
G04 Gerber Fmt 4.6, Leading zero omitted, Abs format (unit mm)*
G04 Created by KiCad (PCBNEW (6.0.2)) date 2022-03-04 11:28:50*
%MOMM*%
%LPD*%
G01*
G04 APERTURE LIST*
G04 #@! TA.AperFunction,Profile*
%ADD10C,0.050000*%
G04 #@! TD*
G04 #@! TA.AperFunction,ComponentPad*
%ADD11C,1.506220*%
G04 #@! TD*
G04 #@! TA.AperFunction,ComponentPad*
%ADD12R,1.700000X1.700000*%
G04 #@! TD*
G04 #@! TA.AperFunction,ComponentPad*
%ADD13O,1.700000X1.700000*%
G04 #@! TD*
G04 #@! TA.AperFunction,ViaPad*
%ADD14C,0.450000*%
G04 #@! TD*
G04 #@! TA.AperFunction,Conductor*
%ADD15C,0.200000*%
G04 #@! TD*
G04 APERTURE END LIST*
D10*
X178000000Y-56000000D02*
X78000000Y-56000000D01*
X78000000Y-126000000D02*
X178000000Y-126000000D01*
X78000000Y-56000000D02*
X78000000Y-126000000D01*
X178000000Y-126000000D02*
X178000000Y-56000000D01*
D11*
X174200000Y-116000000D03*
X171660000Y-113460000D03*
X176740000Y-113460000D03*
X171660000Y-118540000D03*
X176740000Y-118540000D03*
D12*
X101040000Y-57930400D03*
D13*
X98500000Y-57930400D03*
X95960000Y-57930400D03*
X93420000Y-57930400D03*
X90880000Y-57930400D03*
X88340000Y-57930400D03*
X85800000Y-57930400D03*
D12*
X166646000Y-58540000D03*
X166646000Y-75050000D03*
X139163200Y-122294000D03*
X166646000Y-108324000D03*
D11*
X174200000Y-66000000D03*
X171660000Y-63460000D03*
X176740000Y-63460000D03*
X171660000Y-68540000D03*
X176740000Y-68540000D03*
X174200000Y-82600000D03*
X171660000Y-80060000D03*
X176740000Y-80060000D03*
X171660000Y-85140000D03*
X176740000Y-85140000D03*
X174200000Y-99200000D03*
X171660000Y-96660000D03*
X176740000Y-96660000D03*
X171660000Y-101740000D03*
X176740000Y-101740000D03*
D12*
X166646000Y-91560000D03*
X154200000Y-122294000D03*
D14*
X147469000Y-97910000D03*
X111655000Y-68319000D03*
X80550200Y-113774800D03*
X144573400Y-73424400D03*
X127530000Y-121532000D03*
X127403000Y-101974000D03*
X135404000Y-64890000D03*
X127403000Y-70859000D03*
X118513000Y-57651000D03*
X117497000Y-87750000D03*
X152549000Y-67684000D03*
X151533000Y-99561000D03*
X148104000Y-104387000D03*
X169567000Y-105530000D03*
X156735000Y-82040000D03*
X127403000Y-59175000D03*
X169567000Y-72256000D03*
X110131000Y-124326000D03*
X152549000Y-100577000D03*
X168424000Y-123564000D03*
X135658000Y-96005000D03*
X152549000Y-68573000D03*
X118005000Y-73907000D03*
X121053000Y-124326000D03*
X152549000Y-99561000D03*
X174520000Y-109086000D03*
X156750200Y-113774800D03*
X121815000Y-73907000D03*
X115338000Y-124326000D03*
X151406000Y-67684000D03*
X121688000Y-104768000D03*
X144421000Y-94735000D03*
X151533000Y-100577000D03*
X118650200Y-113901800D03*
X151406000Y-68573000D03*
X169694000Y-88766000D03*
X133880000Y-95243000D03*
X147723000Y-66033000D03*
X80540000Y-82289000D03*
X121175000Y-82167000D03*
X144548000Y-63239000D03*
X121688000Y-87750000D03*
X150517000Y-122802000D03*
X94510000Y-124326000D03*
X112417000Y-95370000D03*
X144549100Y-105225200D03*
X132229000Y-64001000D03*
X127403000Y-90417000D03*
X120672000Y-57651000D03*
X148231000Y-72510000D03*
X175536000Y-106927000D03*
X118005000Y-104768000D03*
X148358000Y-96259000D03*
X119783000Y-122929000D03*
X123466000Y-87750000D03*
X118767000Y-122929000D03*
X163725000Y-75558000D03*
X124482000Y-57651000D03*
X128165000Y-59175000D03*
X163725000Y-92322000D03*
X123466000Y-73907000D03*
X123466000Y-104768000D03*
X148319953Y-63705490D03*
X163852000Y-109086000D03*
X158264000Y-67049000D03*
X158391000Y-98926000D03*
X128165000Y-90417000D03*
X128165000Y-70859000D03*
X163725000Y-59048000D03*
X128165000Y-101974000D03*
X119275000Y-122929000D03*
X116227000Y-104768000D03*
X173758000Y-78987000D03*
X115338000Y-120135000D03*
X128546000Y-123056000D03*
X114449000Y-57651000D03*
X171346100Y-72892100D03*
X116110200Y-113901800D03*
X115719000Y-87750000D03*
X116227000Y-73907000D03*
X171560900Y-105999900D03*
X111401000Y-98291000D03*
X112290000Y-68319000D03*
X123715000Y-82167000D03*
X174012000Y-106038000D03*
X139976000Y-103244000D03*
X122196000Y-98418000D03*
X122704000Y-94227000D03*
X139976000Y-94735000D03*
X139976000Y-101847000D03*
X122831000Y-98926000D03*
X139468000Y-91433000D03*
X122688535Y-93571420D03*
X122831000Y-67049000D03*
X138071000Y-73907000D03*
X138833000Y-65017000D03*
X122831000Y-62985000D03*
X138071000Y-70097000D03*
X122831000Y-67938000D03*
X122831000Y-62350000D03*
X138833000Y-59810000D03*
X158391000Y-99688000D03*
X162074000Y-92322000D03*
X166646000Y-106546000D03*
X166646000Y-123564000D03*
X162074000Y-75558000D03*
X148104000Y-105403000D03*
X162074000Y-109086000D03*
X148231000Y-73399000D03*
X166646000Y-89909000D03*
X162074000Y-59048000D03*
X146834000Y-66033000D03*
X146834000Y-97910000D03*
X166646000Y-73399000D03*
X158264000Y-67811000D03*
X154835000Y-62985000D03*
X154962000Y-94862000D03*
X172361000Y-73018000D03*
X174393000Y-78987000D03*
X175028000Y-78987000D03*
X173250000Y-72891000D03*
X157883000Y-108832000D03*
X121434000Y-99180000D03*
X119910000Y-101339000D03*
X121434000Y-67811000D03*
X119910000Y-70351000D03*
X165757000Y-99307000D03*
X172996000Y-109086000D03*
X173758000Y-109086000D03*
X164995000Y-98672000D03*
X165630000Y-66160000D03*
X173504000Y-75939000D03*
X164995000Y-65525000D03*
X174266000Y-75812000D03*
X112290000Y-104006000D03*
X116989000Y-94227000D03*
X113814000Y-104006000D03*
X117300407Y-95380324D03*
X117312956Y-94756780D03*
X113052000Y-104006000D03*
X116888265Y-95854824D03*
X114576000Y-104006000D03*
X109750000Y-92703000D03*
X119021000Y-93592000D03*
X109750000Y-94354000D03*
X117624000Y-93592000D03*
X118513000Y-93084000D03*
X109750000Y-93592000D03*
X109750000Y-95243000D03*
X116825531Y-93558500D03*
X109750000Y-88893000D03*
X122450000Y-91179000D03*
X109750000Y-90544000D03*
X120164000Y-93592000D03*
X120672000Y-93084000D03*
X109750000Y-89782000D03*
X109750000Y-91306000D03*
X119651760Y-93241383D03*
X117033000Y-63109609D03*
X112290000Y-72002000D03*
X117497000Y-64001000D03*
X113814000Y-72002000D03*
X116864653Y-63684989D03*
X113052000Y-72002000D03*
X114576000Y-72002000D03*
X117878000Y-64509000D03*
X110131000Y-61461000D03*
X119021000Y-62350000D03*
X117497000Y-62096000D03*
X110131000Y-62985000D03*
X110131000Y-62223000D03*
X118513000Y-61969000D03*
X116735000Y-62096000D03*
X110004000Y-63747000D03*
X122323000Y-60064000D03*
X110131000Y-57651000D03*
X120192211Y-62081894D03*
X110131000Y-59302000D03*
X121053000Y-61969000D03*
X110131000Y-58413000D03*
X119656000Y-62477000D03*
X110131000Y-60064000D03*
D15*
X128546000Y-123056000D02*
X123847000Y-123056000D01*
X122450000Y-120135000D02*
X115338000Y-120135000D01*
X122704000Y-121913000D02*
X122704000Y-120389000D01*
X123847000Y-123056000D02*
X122704000Y-121913000D01*
X122704000Y-120389000D02*
X122450000Y-120135000D01*
X124355000Y-101339000D02*
X122196000Y-99180000D01*
X122196000Y-99180000D02*
X122196000Y-98418000D01*
X139976000Y-103244000D02*
X138071000Y-101339000D01*
X138071000Y-101339000D02*
X124355000Y-101339000D01*
X122704000Y-94227000D02*
X123339000Y-93592000D01*
X139976000Y-94608000D02*
X139976000Y-94735000D01*
X123339000Y-93592000D02*
X138960000Y-93592000D01*
X138960000Y-93592000D02*
X139976000Y-94608000D01*
X138960000Y-100831000D02*
X124736000Y-100831000D01*
X124736000Y-100831000D02*
X122831000Y-98926000D01*
X139976000Y-101847000D02*
X138960000Y-100831000D01*
X139214000Y-91687000D02*
X124572955Y-91687000D01*
X124572955Y-91687000D02*
X122688535Y-93571420D01*
X139468000Y-91433000D02*
X139214000Y-91687000D01*
X133753000Y-69589000D02*
X138071000Y-73907000D01*
X122323000Y-67557000D02*
X122323000Y-68573000D01*
X122831000Y-67049000D02*
X122323000Y-67557000D01*
X122323000Y-68573000D02*
X123339000Y-69589000D01*
X123339000Y-69589000D02*
X133753000Y-69589000D01*
X136801000Y-62985000D02*
X138833000Y-65017000D01*
X122831000Y-62985000D02*
X136801000Y-62985000D01*
X122831000Y-68446000D02*
X123466000Y-69081000D01*
X137055000Y-69081000D02*
X138071000Y-70097000D01*
X123466000Y-69081000D02*
X137055000Y-69081000D01*
X122831000Y-67938000D02*
X122831000Y-68446000D01*
X136293000Y-62350000D02*
X138833000Y-59810000D01*
X122831000Y-62350000D02*
X136293000Y-62350000D01*
X85366000Y-103371000D02*
X85366000Y-96894000D01*
X85366000Y-96894000D02*
X85213600Y-96741600D01*
X157883000Y-108832000D02*
X90827000Y-108832000D01*
X85213600Y-96741600D02*
X85213600Y-57930400D01*
X90827000Y-108832000D02*
X85366000Y-103371000D01*
X119910000Y-99688000D02*
X119910000Y-101339000D01*
X120418000Y-99180000D02*
X119910000Y-99688000D01*
X121434000Y-99180000D02*
X120418000Y-99180000D01*
X121434000Y-67811000D02*
X120291000Y-67811000D01*
X120291000Y-67811000D02*
X119910000Y-68192000D01*
X119910000Y-68192000D02*
X119910000Y-70351000D01*
X112290000Y-96640000D02*
X114703000Y-94227000D01*
X112290000Y-104006000D02*
X112290000Y-96640000D01*
X114703000Y-94227000D02*
X116989000Y-94227000D01*
X113814000Y-96640000D02*
X115084000Y-95370000D01*
X117300407Y-95380324D02*
X115094324Y-95380324D01*
X113814000Y-104006000D02*
X113814000Y-96640000D01*
X115094324Y-95380324D02*
X115084000Y-95370000D01*
X113052000Y-104006000D02*
X113052000Y-96767000D01*
X115062220Y-94756780D02*
X117312956Y-94756780D01*
X113052000Y-96767000D02*
X115062220Y-94756780D01*
X114576000Y-96894000D02*
X115615176Y-95854824D01*
X115615176Y-95854824D02*
X116888265Y-95854824D01*
X114576000Y-104006000D02*
X114576000Y-96894000D01*
X118448978Y-92130978D02*
X110322022Y-92130978D01*
X119021000Y-92703000D02*
X118448978Y-92130978D01*
X119021000Y-93592000D02*
X119021000Y-92703000D01*
X110322022Y-92130978D02*
X109750000Y-92703000D01*
X111147000Y-92957000D02*
X109750000Y-94354000D01*
X116989000Y-92957000D02*
X111147000Y-92957000D01*
X117624000Y-93592000D02*
X116989000Y-92957000D01*
X110861511Y-92480489D02*
X109750000Y-93592000D01*
X117909489Y-92480489D02*
X110861511Y-92480489D01*
X118513000Y-93084000D02*
X117909489Y-92480489D01*
X111434500Y-93558500D02*
X109750000Y-95243000D01*
X116825531Y-93558500D02*
X111434500Y-93558500D01*
X120164000Y-88893000D02*
X109750000Y-88893000D01*
X122450000Y-91179000D02*
X120164000Y-88893000D01*
X119402000Y-90544000D02*
X109750000Y-90544000D01*
X120164000Y-91306000D02*
X119402000Y-90544000D01*
X120164000Y-93592000D02*
X120164000Y-91306000D01*
X120672000Y-93084000D02*
X120672000Y-90671000D01*
X120672000Y-90671000D02*
X119783000Y-89782000D01*
X119783000Y-89782000D02*
X109750000Y-89782000D01*
X119651760Y-93241383D02*
X119651760Y-91437240D01*
X119656000Y-91433000D02*
X119529000Y-91306000D01*
X119529000Y-91306000D02*
X109750000Y-91306000D01*
X119651760Y-91437240D02*
X119656000Y-91433000D01*
X112798000Y-71494000D02*
X112798000Y-66668000D01*
X112798000Y-66668000D02*
X116356391Y-63109609D01*
X112290000Y-72002000D02*
X112798000Y-71494000D01*
X116356391Y-63109609D02*
X117033000Y-63109609D01*
X117338511Y-64159489D02*
X117497000Y-64001000D01*
X113814000Y-72002000D02*
X113814000Y-66922000D01*
X113814000Y-66922000D02*
X116481000Y-64255000D01*
X116844228Y-64159489D02*
X117338511Y-64159489D01*
X116748716Y-64255000D02*
X116844228Y-64159489D01*
X116481000Y-64255000D02*
X116748716Y-64255000D01*
X113052000Y-72002000D02*
X113179000Y-71875000D01*
X116416011Y-63684989D02*
X116864653Y-63684989D01*
X113179000Y-71875000D02*
X113179000Y-66922000D01*
X113179000Y-66922000D02*
X116416011Y-63684989D01*
X116989000Y-64509000D02*
X117878000Y-64509000D01*
X114576000Y-66922000D02*
X116989000Y-64509000D01*
X114576000Y-72002000D02*
X114576000Y-66922000D01*
X118386000Y-60826000D02*
X119021000Y-61461000D01*
X115592000Y-61461000D02*
X116227000Y-60826000D01*
X119021000Y-61461000D02*
X119021000Y-62350000D01*
X110131000Y-61461000D02*
X115592000Y-61461000D01*
X116227000Y-60826000D02*
X118386000Y-60826000D01*
X110131000Y-62985000D02*
X115084000Y-62985000D01*
X115084000Y-62985000D02*
X116481000Y-61588000D01*
X116481000Y-61588000D02*
X116989000Y-61588000D01*
X116989000Y-61588000D02*
X117497000Y-62096000D01*
X117751000Y-61207000D02*
X118513000Y-61969000D01*
X115338000Y-62223000D02*
X116354000Y-61207000D01*
X116354000Y-61207000D02*
X117751000Y-61207000D01*
X110131000Y-62223000D02*
X115338000Y-62223000D01*
X115084000Y-63747000D02*
X116735000Y-62096000D01*
X110004000Y-63747000D02*
X115084000Y-63747000D01*
X110783773Y-58190489D02*
X110244284Y-57651000D01*
X110244284Y-57651000D02*
X110131000Y-57651000D01*
X120449489Y-58190489D02*
X110783773Y-58190489D01*
X122323000Y-60064000D02*
X120449489Y-58190489D01*
X110893000Y-59302000D02*
X110131000Y-59302000D01*
X120192211Y-62081894D02*
X120192211Y-61108211D01*
X111655000Y-60064000D02*
X110893000Y-59302000D01*
X119148000Y-60064000D02*
X111655000Y-60064000D01*
X120192211Y-61108211D02*
X119148000Y-60064000D01*
X121053000Y-61969000D02*
X121053000Y-61461000D01*
X121053000Y-61461000D02*
X119275000Y-59683000D01*
X110512000Y-58413000D02*
X110131000Y-58413000D01*
X119275000Y-59683000D02*
X111782000Y-59683000D01*
X111782000Y-59683000D02*
X110512000Y-58413000D01*
X118640000Y-60445000D02*
X119656000Y-61461000D01*
X119656000Y-61461000D02*
X119656000Y-62477000D01*
X111541716Y-60445000D02*
X118640000Y-60445000D01*
X111160716Y-60064000D02*
X111541716Y-60445000D01*
X110131000Y-60064000D02*
X111160716Y-60064000D01*
G04 #@! TA.AperFunction,Conductor*
G36*
X177759191Y-56218907D02*
G01*
X177795155Y-56268407D01*
X177800000Y-56299000D01*
X177800000Y-63026240D01*
X177781093Y-63084431D01*
X177731593Y-63120395D01*
X177670407Y-63120395D01*
X177620907Y-63084431D01*
X177613588Y-63072717D01*
X177574868Y-62999894D01*
X177566449Y-62991764D01*
X177556732Y-62996822D01*
X177104642Y-63448911D01*
X177098585Y-63460798D01*
X177099381Y-63465828D01*
X177556077Y-63922523D01*
X177566935Y-63928055D01*
X177574342Y-63920977D01*
X177614920Y-63849546D01*
X177660102Y-63808289D01*
X177720906Y-63801468D01*
X177774107Y-63831690D01*
X177799383Y-63887410D01*
X177800000Y-63898446D01*
X177800000Y-68106240D01*
X177781093Y-68164431D01*
X177731593Y-68200395D01*
X177670407Y-68200395D01*
X177620907Y-68164431D01*
X177613588Y-68152717D01*
X177574868Y-68079894D01*
X177566449Y-68071764D01*
X177556732Y-68076822D01*
X177104642Y-68528911D01*
X177098585Y-68540798D01*
X177099381Y-68545828D01*
X177556077Y-69002523D01*
X177566935Y-69008055D01*
X177574342Y-69000977D01*
X177614920Y-68929546D01*
X177660102Y-68888289D01*
X177720906Y-68881468D01*
X177774107Y-68911690D01*
X177799383Y-68967410D01*
X177800000Y-68978446D01*
X177800000Y-79626240D01*
X177781093Y-79684431D01*
X177731593Y-79720395D01*
X177670407Y-79720395D01*
X177620907Y-79684431D01*
X177613588Y-79672717D01*
X177574868Y-79599894D01*
X177566449Y-79591764D01*
X177556732Y-79596822D01*
X177104642Y-80048911D01*
X177098585Y-80060798D01*
X177099381Y-80065828D01*
X177556077Y-80522523D01*
X177566935Y-80528055D01*
X177574342Y-80520977D01*
X177614920Y-80449546D01*
X177660102Y-80408289D01*
X177720906Y-80401468D01*
X177774107Y-80431690D01*
X177799383Y-80487410D01*
X177800000Y-80498446D01*
X177800000Y-84706240D01*
X177781093Y-84764431D01*
X177731593Y-84800395D01*
X177670407Y-84800395D01*
X177620907Y-84764431D01*
X177613588Y-84752717D01*
X177574868Y-84679894D01*
X177566449Y-84671764D01*
X177556732Y-84676822D01*
X177104642Y-85128911D01*
X177098585Y-85140798D01*
X177099381Y-85145828D01*
X177556077Y-85602523D01*
X177566935Y-85608055D01*
X177574342Y-85600977D01*
X177614920Y-85529546D01*
X177660102Y-85488289D01*
X177720906Y-85481468D01*
X177774107Y-85511690D01*
X177799383Y-85567410D01*
X177800000Y-85578446D01*
X177800000Y-96226240D01*
X177781093Y-96284431D01*
X177731593Y-96320395D01*
X177670407Y-96320395D01*
X177620907Y-96284431D01*
X177613588Y-96272717D01*
X177574868Y-96199894D01*
X177566449Y-96191764D01*
X177556732Y-96196822D01*
X177104642Y-96648911D01*
X177098585Y-96660798D01*
X177099381Y-96665828D01*
X177556077Y-97122523D01*
X177566935Y-97128055D01*
X177574342Y-97120977D01*
X177614920Y-97049546D01*
X177660102Y-97008289D01*
X177720906Y-97001468D01*
X177774107Y-97031690D01*
X177799383Y-97087410D01*
X177800000Y-97098446D01*
X177800000Y-101306240D01*
X177781093Y-101364431D01*
X177731593Y-101400395D01*
X177670407Y-101400395D01*
X177620907Y-101364431D01*
X177613588Y-101352717D01*
X177574868Y-101279894D01*
X177566449Y-101271764D01*
X177556732Y-101276822D01*
X177104642Y-101728911D01*
X177098585Y-101740798D01*
X177099381Y-101745828D01*
X177556077Y-102202523D01*
X177566935Y-102208055D01*
X177574342Y-102200977D01*
X177614920Y-102129546D01*
X177660102Y-102088289D01*
X177720906Y-102081468D01*
X177774107Y-102111690D01*
X177799383Y-102167410D01*
X177800000Y-102178446D01*
X177800000Y-113026240D01*
X177781093Y-113084431D01*
X177731593Y-113120395D01*
X177670407Y-113120395D01*
X177620907Y-113084431D01*
X177613588Y-113072717D01*
X177574868Y-112999894D01*
X177566449Y-112991764D01*
X177556732Y-112996822D01*
X177104642Y-113448911D01*
X177098585Y-113460798D01*
X177099381Y-113465828D01*
X177556077Y-113922523D01*
X177566935Y-113928055D01*
X177574342Y-113920977D01*
X177614920Y-113849546D01*
X177660102Y-113808289D01*
X177720906Y-113801468D01*
X177774107Y-113831690D01*
X177799383Y-113887410D01*
X177800000Y-113898446D01*
X177800000Y-118106240D01*
X177781093Y-118164431D01*
X177731593Y-118200395D01*
X177670407Y-118200395D01*
X177620907Y-118164431D01*
X177613588Y-118152717D01*
X177574868Y-118079894D01*
X177566449Y-118071764D01*
X177556732Y-118076822D01*
X177104642Y-118528911D01*
X177098585Y-118540798D01*
X177099381Y-118545828D01*
X177556077Y-119002523D01*
X177566935Y-119008055D01*
X177574342Y-119000977D01*
X177614920Y-118929546D01*
X177660102Y-118888289D01*
X177720906Y-118881468D01*
X177774107Y-118911690D01*
X177799383Y-118967410D01*
X177800000Y-118978446D01*
X177800000Y-125701000D01*
X177781093Y-125759191D01*
X177731593Y-125795155D01*
X177701000Y-125800000D01*
X146107729Y-125800000D01*
X146049538Y-125781093D01*
X146013574Y-125731593D01*
X146008729Y-125700929D01*
X146010256Y-123564000D01*
X167993196Y-123564000D01*
X167994415Y-123571696D01*
X168011225Y-123677829D01*
X168014281Y-123697126D01*
X168075472Y-123817220D01*
X168170780Y-123912528D01*
X168177717Y-123916063D01*
X168177719Y-123916064D01*
X168283934Y-123970183D01*
X168290874Y-123973719D01*
X168298568Y-123974938D01*
X168298569Y-123974938D01*
X168416304Y-123993585D01*
X168424000Y-123994804D01*
X168431696Y-123993585D01*
X168549431Y-123974938D01*
X168549432Y-123974938D01*
X168557126Y-123973719D01*
X168564066Y-123970183D01*
X168670281Y-123916064D01*
X168670283Y-123916063D01*
X168677220Y-123912528D01*
X168772528Y-123817220D01*
X168833719Y-123697126D01*
X168836776Y-123677829D01*
X168853585Y-123571696D01*
X168854804Y-123564000D01*
X168833719Y-123430874D01*
X168830183Y-123423934D01*
X168776064Y-123317719D01*
X168776063Y-123317717D01*
X168772528Y-123310780D01*
X168677220Y-123215472D01*
X168670283Y-123211937D01*
X168670281Y-123211936D01*
X168564066Y-123157817D01*
X168564065Y-123157817D01*
X168557126Y-123154281D01*
X168549432Y-123153062D01*
X168549431Y-123153062D01*
X168431696Y-123134415D01*
X168424000Y-123133196D01*
X168416304Y-123134415D01*
X168298569Y-123153062D01*
X168298568Y-123153062D01*
X168290874Y-123154281D01*
X168283935Y-123157817D01*
X168283934Y-123157817D01*
X168177719Y-123211936D01*
X168177717Y-123211937D01*
X168170780Y-123215472D01*
X168075472Y-123310780D01*
X168071937Y-123317717D01*
X168071936Y-123317719D01*
X168017817Y-123423934D01*
X168014281Y-123430874D01*
X167993196Y-123564000D01*
X146010256Y-123564000D01*
X146010800Y-122802000D01*
X150086196Y-122802000D01*
X150107281Y-122935126D01*
X150110817Y-122942065D01*
X150110817Y-122942066D01*
X150142532Y-123004309D01*
X150168472Y-123055220D01*
X150263780Y-123150528D01*
X150270717Y-123154063D01*
X150270719Y-123154064D01*
X150298977Y-123168462D01*
X150383874Y-123211719D01*
X150391568Y-123212938D01*
X150391569Y-123212938D01*
X150509304Y-123231585D01*
X150517000Y-123232804D01*
X150524696Y-123231585D01*
X150642431Y-123212938D01*
X150642432Y-123212938D01*
X150650126Y-123211719D01*
X150735023Y-123168462D01*
X150753907Y-123158840D01*
X153150000Y-123158840D01*
X153150948Y-123168462D01*
X153159702Y-123212474D01*
X153167021Y-123230142D01*
X153200389Y-123280082D01*
X153213918Y-123293611D01*
X153263858Y-123326979D01*
X153281526Y-123334298D01*
X153325538Y-123343052D01*
X153335160Y-123344000D01*
X153934320Y-123344000D01*
X153947005Y-123339878D01*
X153950000Y-123335757D01*
X153950000Y-123328320D01*
X154450000Y-123328320D01*
X154454122Y-123341005D01*
X154458243Y-123344000D01*
X155064840Y-123344000D01*
X155074462Y-123343052D01*
X155118474Y-123334298D01*
X155136142Y-123326979D01*
X155186082Y-123293611D01*
X155199611Y-123280082D01*
X155232979Y-123230142D01*
X155240298Y-123212474D01*
X155249052Y-123168462D01*
X155250000Y-123158840D01*
X155250000Y-123000000D01*
X173644341Y-123000000D01*
X173664937Y-123235408D01*
X173726097Y-123463663D01*
X173825965Y-123677829D01*
X173961505Y-123871401D01*
X174128599Y-124038495D01*
X174322171Y-124174035D01*
X174536337Y-124273903D01*
X174764592Y-124335063D01*
X174849431Y-124342486D01*
X174938870Y-124350311D01*
X174938878Y-124350311D01*
X174941034Y-124350500D01*
X175058966Y-124350500D01*
X175061122Y-124350311D01*
X175061130Y-124350311D01*
X175150569Y-124342486D01*
X175235408Y-124335063D01*
X175463663Y-124273903D01*
X175677829Y-124174035D01*
X175871401Y-124038495D01*
X176038495Y-123871401D01*
X176171554Y-123681374D01*
X176171554Y-123681373D01*
X176174035Y-123677830D01*
X176273903Y-123463663D01*
X176335063Y-123235408D01*
X176355659Y-123000000D01*
X176335063Y-122764592D01*
X176273903Y-122536337D01*
X176174035Y-122322171D01*
X176038495Y-122128599D01*
X175871401Y-121961505D01*
X175677829Y-121825965D01*
X175463663Y-121726097D01*
X175235408Y-121664937D01*
X175150569Y-121657514D01*
X175061130Y-121649689D01*
X175061122Y-121649689D01*
X175058966Y-121649500D01*
X174941034Y-121649500D01*
X174938878Y-121649689D01*
X174938870Y-121649689D01*
X174849431Y-121657514D01*
X174764592Y-121664937D01*
X174536337Y-121726097D01*
X174322171Y-121825965D01*
X174128599Y-121961505D01*
X173961505Y-122128599D01*
X173959026Y-122132140D01*
X173828447Y-122318625D01*
X173828446Y-122318627D01*
X173825965Y-122322170D01*
X173726097Y-122536337D01*
X173664937Y-122764592D01*
X173644341Y-123000000D01*
X155250000Y-123000000D01*
X155250000Y-122559680D01*
X155245878Y-122546995D01*
X155241757Y-122544000D01*
X154465680Y-122544000D01*
X154452995Y-122548122D01*
X154450000Y-122552243D01*
X154450000Y-123328320D01*
X153950000Y-123328320D01*
X153950000Y-122559680D01*
X153945878Y-122546995D01*
X153941757Y-122544000D01*
X153165680Y-122544000D01*
X153152995Y-122548122D01*
X153150000Y-122552243D01*
X153150000Y-123158840D01*
X150753907Y-123158840D01*
X150763281Y-123154064D01*
X150763283Y-123154063D01*
X150770220Y-123150528D01*
X150865528Y-123055220D01*
X150891469Y-123004309D01*
X150923183Y-122942066D01*
X150923183Y-122942065D01*
X150926719Y-122935126D01*
X150947804Y-122802000D01*
X150926719Y-122668874D01*
X150865528Y-122548780D01*
X150770220Y-122453472D01*
X150763283Y-122449937D01*
X150763281Y-122449936D01*
X150657066Y-122395817D01*
X150657065Y-122395817D01*
X150650126Y-122392281D01*
X150642432Y-122391062D01*
X150642431Y-122391062D01*
X150524696Y-122372415D01*
X150517000Y-122371196D01*
X150509304Y-122372415D01*
X150391569Y-122391062D01*
X150391568Y-122391062D01*
X150383874Y-122392281D01*
X150376935Y-122395817D01*
X150376934Y-122395817D01*
X150270719Y-122449936D01*
X150270717Y-122449937D01*
X150263780Y-122453472D01*
X150168472Y-122548780D01*
X150107281Y-122668874D01*
X150086196Y-122802000D01*
X146010800Y-122802000D01*
X146011353Y-122028320D01*
X153150000Y-122028320D01*
X153154122Y-122041005D01*
X153158243Y-122044000D01*
X153934320Y-122044000D01*
X153947005Y-122039878D01*
X153950000Y-122035757D01*
X153950000Y-122028320D01*
X154450000Y-122028320D01*
X154454122Y-122041005D01*
X154458243Y-122044000D01*
X155234320Y-122044000D01*
X155247005Y-122039878D01*
X155250000Y-122035757D01*
X155250000Y-121429160D01*
X155249052Y-121419538D01*
X155240298Y-121375526D01*
X155232979Y-121357858D01*
X155199611Y-121307918D01*
X155186082Y-121294389D01*
X155136142Y-121261021D01*
X155118474Y-121253702D01*
X155074462Y-121244948D01*
X155064840Y-121244000D01*
X154465680Y-121244000D01*
X154452995Y-121248122D01*
X154450000Y-121252243D01*
X154450000Y-122028320D01*
X153950000Y-122028320D01*
X153950000Y-121259680D01*
X153945878Y-121246995D01*
X153941757Y-121244000D01*
X153335160Y-121244000D01*
X153325538Y-121244948D01*
X153281526Y-121253702D01*
X153263858Y-121261021D01*
X153213918Y-121294389D01*
X153200389Y-121307918D01*
X153167021Y-121357858D01*
X153159702Y-121375526D01*
X153150948Y-121419538D01*
X153150000Y-121429160D01*
X153150000Y-122028320D01*
X146011353Y-122028320D01*
X146013253Y-119366862D01*
X171191966Y-119366862D01*
X171199194Y-119374373D01*
X171272353Y-119415260D01*
X171281175Y-119419115D01*
X171449738Y-119473885D01*
X171459151Y-119475954D01*
X171635141Y-119496939D01*
X171644768Y-119497141D01*
X171821479Y-119483544D01*
X171830970Y-119481870D01*
X172001675Y-119434208D01*
X172010655Y-119430726D01*
X172120580Y-119375198D01*
X172128618Y-119367216D01*
X172128438Y-119366862D01*
X176271966Y-119366862D01*
X176279194Y-119374373D01*
X176352353Y-119415260D01*
X176361175Y-119419115D01*
X176529738Y-119473885D01*
X176539151Y-119475954D01*
X176715141Y-119496939D01*
X176724768Y-119497141D01*
X176901479Y-119483544D01*
X176910970Y-119481870D01*
X177081675Y-119434208D01*
X177090655Y-119430726D01*
X177200580Y-119375198D01*
X177208618Y-119367216D01*
X177203425Y-119356979D01*
X176751089Y-118904642D01*
X176739202Y-118898585D01*
X176734172Y-118899381D01*
X176277444Y-119356110D01*
X176271966Y-119366862D01*
X172128438Y-119366862D01*
X172123425Y-119356979D01*
X171671089Y-118904642D01*
X171659202Y-118898585D01*
X171654172Y-118899381D01*
X171197444Y-119356110D01*
X171191966Y-119366862D01*
X146013253Y-119366862D01*
X146013850Y-118531448D01*
X170702776Y-118531448D01*
X170717607Y-118708068D01*
X170719345Y-118717536D01*
X170768198Y-118887904D01*
X170771749Y-118896872D01*
X170824945Y-119000383D01*
X170833076Y-119008457D01*
X170843138Y-119003308D01*
X171295358Y-118551089D01*
X171300602Y-118540798D01*
X172018585Y-118540798D01*
X172019381Y-118545828D01*
X172476077Y-119002523D01*
X172486935Y-119008055D01*
X172494342Y-119000977D01*
X172532534Y-118933747D01*
X172536449Y-118924952D01*
X172592395Y-118756773D01*
X172594529Y-118747379D01*
X172617001Y-118569493D01*
X172617388Y-118563968D01*
X172617683Y-118542771D01*
X172617451Y-118537241D01*
X172616883Y-118531448D01*
X175782776Y-118531448D01*
X175797607Y-118708068D01*
X175799345Y-118717536D01*
X175848198Y-118887904D01*
X175851749Y-118896872D01*
X175904945Y-119000383D01*
X175913076Y-119008457D01*
X175923138Y-119003308D01*
X176375358Y-118551089D01*
X176381415Y-118539202D01*
X176380619Y-118534172D01*
X175923822Y-118077376D01*
X175913178Y-118071952D01*
X175905564Y-118079331D01*
X175862055Y-118158473D01*
X175858261Y-118167325D01*
X175804673Y-118336258D01*
X175802667Y-118345695D01*
X175782910Y-118521820D01*
X175782776Y-118531448D01*
X172616883Y-118531448D01*
X172599954Y-118358795D01*
X172598084Y-118349347D01*
X172546856Y-118179672D01*
X172543186Y-118170768D01*
X172494868Y-118079894D01*
X172486449Y-118071764D01*
X172476732Y-118076822D01*
X172024642Y-118528911D01*
X172018585Y-118540798D01*
X171300602Y-118540798D01*
X171301415Y-118539202D01*
X171300619Y-118534172D01*
X170843822Y-118077376D01*
X170833178Y-118071952D01*
X170825564Y-118079331D01*
X170782055Y-118158473D01*
X170778261Y-118167325D01*
X170724673Y-118336258D01*
X170722667Y-118345695D01*
X170702910Y-118521820D01*
X170702776Y-118531448D01*
X146013850Y-118531448D01*
X146014434Y-117713331D01*
X171191671Y-117713331D01*
X171196776Y-117723222D01*
X171648911Y-118175358D01*
X171660798Y-118181415D01*
X171665828Y-118180619D01*
X172122727Y-117723719D01*
X172128020Y-117713331D01*
X176271671Y-117713331D01*
X176276776Y-117723222D01*
X176728911Y-118175358D01*
X176740798Y-118181415D01*
X176745828Y-118180619D01*
X177202727Y-117723719D01*
X177208096Y-117713182D01*
X177200567Y-117705468D01*
X177115396Y-117659416D01*
X177106506Y-117655679D01*
X176937198Y-117603269D01*
X176927766Y-117601333D01*
X176751502Y-117582807D01*
X176741864Y-117582740D01*
X176565361Y-117598803D01*
X176555895Y-117600609D01*
X176385878Y-117650648D01*
X176376937Y-117654261D01*
X176279774Y-117705056D01*
X176271671Y-117713331D01*
X172128020Y-117713331D01*
X172128096Y-117713182D01*
X172120567Y-117705468D01*
X172035396Y-117659416D01*
X172026506Y-117655679D01*
X171857198Y-117603269D01*
X171847766Y-117601333D01*
X171671502Y-117582807D01*
X171661864Y-117582740D01*
X171485361Y-117598803D01*
X171475895Y-117600609D01*
X171305878Y-117650648D01*
X171296937Y-117654261D01*
X171199774Y-117705056D01*
X171191671Y-117713331D01*
X146014434Y-117713331D01*
X146014440Y-117705056D01*
X146015668Y-115986621D01*
X173241869Y-115986621D01*
X173257518Y-116172978D01*
X173309066Y-116352746D01*
X173394549Y-116519078D01*
X173510711Y-116665638D01*
X173514391Y-116668770D01*
X173514393Y-116668772D01*
X173616349Y-116755543D01*
X173653129Y-116786845D01*
X173657352Y-116789205D01*
X173657356Y-116789208D01*
X173763246Y-116848388D01*
X173816376Y-116878081D01*
X173820974Y-116879575D01*
X173989630Y-116934375D01*
X173989632Y-116934376D01*
X173994235Y-116935871D01*
X174179932Y-116958014D01*
X174184754Y-116957643D01*
X174184756Y-116957643D01*
X174361566Y-116944038D01*
X174361571Y-116944037D01*
X174366394Y-116943666D01*
X174546517Y-116893375D01*
X174550835Y-116891194D01*
X174709121Y-116811238D01*
X174709123Y-116811237D01*
X174713442Y-116809055D01*
X174745886Y-116783707D01*
X174856995Y-116696900D01*
X174856997Y-116696898D01*
X174860810Y-116693919D01*
X174983008Y-116552351D01*
X175075381Y-116389745D01*
X175134412Y-116212293D01*
X175157850Y-116026755D01*
X175158224Y-116000000D01*
X175139975Y-115813880D01*
X175134625Y-115796159D01*
X175087321Y-115639481D01*
X175087319Y-115639476D01*
X175085922Y-115634849D01*
X174998125Y-115469727D01*
X174879928Y-115324803D01*
X174735832Y-115205596D01*
X174571327Y-115116649D01*
X174562108Y-115113795D01*
X174514617Y-115099094D01*
X174392678Y-115061347D01*
X174387868Y-115060841D01*
X174387866Y-115060841D01*
X174211506Y-115042305D01*
X174211504Y-115042305D01*
X174206690Y-115041799D01*
X174147030Y-115047229D01*
X174025267Y-115058310D01*
X174025264Y-115058311D01*
X174020447Y-115058749D01*
X174015805Y-115060115D01*
X174015801Y-115060116D01*
X173845690Y-115110182D01*
X173845687Y-115110183D01*
X173841043Y-115111550D01*
X173831290Y-115116649D01*
X173679609Y-115195945D01*
X173679605Y-115195948D01*
X173675312Y-115198192D01*
X173671536Y-115201228D01*
X173671533Y-115201230D01*
X173533338Y-115312342D01*
X173529566Y-115315375D01*
X173526457Y-115319080D01*
X173526454Y-115319083D01*
X173412473Y-115454920D01*
X173409356Y-115458635D01*
X173319262Y-115622515D01*
X173317799Y-115627128D01*
X173317797Y-115627132D01*
X173315349Y-115634849D01*
X173262715Y-115800774D01*
X173241869Y-115986621D01*
X146015668Y-115986621D01*
X146016882Y-114286862D01*
X171191966Y-114286862D01*
X171199194Y-114294373D01*
X171272353Y-114335260D01*
X171281175Y-114339115D01*
X171449738Y-114393885D01*
X171459151Y-114395954D01*
X171635141Y-114416939D01*
X171644768Y-114417141D01*
X171821479Y-114403544D01*
X171830970Y-114401870D01*
X172001675Y-114354208D01*
X172010655Y-114350726D01*
X172120580Y-114295198D01*
X172128618Y-114287216D01*
X172128438Y-114286862D01*
X176271966Y-114286862D01*
X176279194Y-114294373D01*
X176352353Y-114335260D01*
X176361175Y-114339115D01*
X176529738Y-114393885D01*
X176539151Y-114395954D01*
X176715141Y-114416939D01*
X176724768Y-114417141D01*
X176901479Y-114403544D01*
X176910970Y-114401870D01*
X177081675Y-114354208D01*
X177090655Y-114350726D01*
X177200580Y-114295198D01*
X177208618Y-114287216D01*
X177203425Y-114276979D01*
X176751089Y-113824642D01*
X176739202Y-113818585D01*
X176734172Y-113819381D01*
X176277444Y-114276110D01*
X176271966Y-114286862D01*
X172128438Y-114286862D01*
X172123425Y-114276979D01*
X171671089Y-113824642D01*
X171659202Y-113818585D01*
X171654172Y-113819381D01*
X171197444Y-114276110D01*
X171191966Y-114286862D01*
X146016882Y-114286862D01*
X146017248Y-113774800D01*
X156319396Y-113774800D01*
X156320615Y-113782496D01*
X156338980Y-113898446D01*
X156340481Y-113907926D01*
X156344017Y-113914865D01*
X156344017Y-113914866D01*
X156348319Y-113923308D01*
X156401672Y-114028020D01*
X156496980Y-114123328D01*
X156503917Y-114126863D01*
X156503919Y-114126864D01*
X156610134Y-114180983D01*
X156617074Y-114184519D01*
X156624768Y-114185738D01*
X156624769Y-114185738D01*
X156742504Y-114204385D01*
X156750200Y-114205604D01*
X156757896Y-114204385D01*
X156875631Y-114185738D01*
X156875632Y-114185738D01*
X156883326Y-114184519D01*
X156890266Y-114180983D01*
X156996481Y-114126864D01*
X156996483Y-114126863D01*
X157003420Y-114123328D01*
X157098728Y-114028020D01*
X157152082Y-113923308D01*
X157156383Y-113914866D01*
X157156383Y-113914865D01*
X157159919Y-113907926D01*
X157161421Y-113898446D01*
X157179785Y-113782496D01*
X157181004Y-113774800D01*
X157159919Y-113641674D01*
X157156383Y-113634734D01*
X157102264Y-113528519D01*
X157102263Y-113528517D01*
X157098728Y-113521580D01*
X157028596Y-113451448D01*
X170702776Y-113451448D01*
X170717607Y-113628068D01*
X170719345Y-113637536D01*
X170768198Y-113807904D01*
X170771749Y-113816872D01*
X170824945Y-113920383D01*
X170833076Y-113928457D01*
X170843138Y-113923308D01*
X171295358Y-113471089D01*
X171300602Y-113460798D01*
X172018585Y-113460798D01*
X172019381Y-113465828D01*
X172476077Y-113922523D01*
X172486935Y-113928055D01*
X172494342Y-113920977D01*
X172532534Y-113853747D01*
X172536449Y-113844952D01*
X172592395Y-113676773D01*
X172594529Y-113667379D01*
X172617001Y-113489493D01*
X172617388Y-113483968D01*
X172617683Y-113462771D01*
X172617451Y-113457241D01*
X172616883Y-113451448D01*
X175782776Y-113451448D01*
X175797607Y-113628068D01*
X175799345Y-113637536D01*
X175848198Y-113807904D01*
X175851749Y-113816872D01*
X175904945Y-113920383D01*
X175913076Y-113928457D01*
X175923138Y-113923308D01*
X176375358Y-113471089D01*
X176381415Y-113459202D01*
X176380619Y-113454172D01*
X175923822Y-112997376D01*
X175913178Y-112991952D01*
X175905564Y-112999331D01*
X175862055Y-113078473D01*
X175858261Y-113087325D01*
X175804673Y-113256258D01*
X175802667Y-113265695D01*
X175782910Y-113441820D01*
X175782776Y-113451448D01*
X172616883Y-113451448D01*
X172599954Y-113278795D01*
X172598084Y-113269347D01*
X172546856Y-113099672D01*
X172543186Y-113090768D01*
X172494868Y-112999894D01*
X172486449Y-112991764D01*
X172476732Y-112996822D01*
X172024642Y-113448911D01*
X172018585Y-113460798D01*
X171300602Y-113460798D01*
X171301415Y-113459202D01*
X171300619Y-113454172D01*
X170843822Y-112997376D01*
X170833178Y-112991952D01*
X170825564Y-112999331D01*
X170782055Y-113078473D01*
X170778261Y-113087325D01*
X170724673Y-113256258D01*
X170722667Y-113265695D01*
X170702910Y-113441820D01*
X170702776Y-113451448D01*
X157028596Y-113451448D01*
X157003420Y-113426272D01*
X156996483Y-113422737D01*
X156996481Y-113422736D01*
X156890266Y-113368617D01*
X156890265Y-113368617D01*
X156883326Y-113365081D01*
X156875632Y-113363862D01*
X156875631Y-113363862D01*
X156757896Y-113345215D01*
X156750200Y-113343996D01*
X156742504Y-113345215D01*
X156624769Y-113363862D01*
X156624768Y-113363862D01*
X156617074Y-113365081D01*
X156610135Y-113368617D01*
X156610134Y-113368617D01*
X156503919Y-113422736D01*
X156503917Y-113422737D01*
X156496980Y-113426272D01*
X156401672Y-113521580D01*
X156398137Y-113528517D01*
X156398136Y-113528519D01*
X156344017Y-113634734D01*
X156340481Y-113641674D01*
X156319396Y-113774800D01*
X146017248Y-113774800D01*
X146018063Y-112633331D01*
X171191671Y-112633331D01*
X171196776Y-112643222D01*
X171648911Y-113095358D01*
X171660798Y-113101415D01*
X171665828Y-113100619D01*
X172122727Y-112643719D01*
X172128020Y-112633331D01*
X176271671Y-112633331D01*
X176276776Y-112643222D01*
X176728911Y-113095358D01*
X176740798Y-113101415D01*
X176745828Y-113100619D01*
X177202727Y-112643719D01*
X177208096Y-112633182D01*
X177200567Y-112625468D01*
X177115396Y-112579416D01*
X177106506Y-112575679D01*
X176937198Y-112523269D01*
X176927766Y-112521333D01*
X176751502Y-112502807D01*
X176741864Y-112502740D01*
X176565361Y-112518803D01*
X176555895Y-112520609D01*
X176385878Y-112570648D01*
X176376937Y-112574261D01*
X176279774Y-112625056D01*
X176271671Y-112633331D01*
X172128020Y-112633331D01*
X172128096Y-112633182D01*
X172120567Y-112625468D01*
X172035396Y-112579416D01*
X172026506Y-112575679D01*
X171857198Y-112523269D01*
X171847766Y-112521333D01*
X171671502Y-112502807D01*
X171661864Y-112502740D01*
X171485361Y-112518803D01*
X171475895Y-112520609D01*
X171305878Y-112570648D01*
X171296937Y-112574261D01*
X171199774Y-112625056D01*
X171191671Y-112633331D01*
X146018063Y-112633331D01*
X146020493Y-109231427D01*
X146039441Y-109173252D01*
X146088967Y-109137324D01*
X146119492Y-109132500D01*
X157540744Y-109132500D01*
X157598935Y-109151407D01*
X157610748Y-109161496D01*
X157629780Y-109180528D01*
X157636717Y-109184063D01*
X157636719Y-109184064D01*
X157719153Y-109226066D01*
X157749874Y-109241719D01*
X157757568Y-109242938D01*
X157757569Y-109242938D01*
X157875304Y-109261585D01*
X157883000Y-109262804D01*
X157890696Y-109261585D01*
X158008431Y-109242938D01*
X158008432Y-109242938D01*
X158016126Y-109241719D01*
X158046847Y-109226066D01*
X158129281Y-109184064D01*
X158129283Y-109184063D01*
X158136220Y-109180528D01*
X158230748Y-109086000D01*
X163421196Y-109086000D01*
X163422415Y-109093696D01*
X163438262Y-109193748D01*
X163442281Y-109219126D01*
X163445817Y-109226065D01*
X163445817Y-109226066D01*
X163463281Y-109260340D01*
X163503472Y-109339220D01*
X163598780Y-109434528D01*
X163605717Y-109438063D01*
X163605719Y-109438064D01*
X163711934Y-109492183D01*
X163718874Y-109495719D01*
X163726568Y-109496938D01*
X163726569Y-109496938D01*
X163844304Y-109515585D01*
X163852000Y-109516804D01*
X163859696Y-109515585D01*
X163977431Y-109496938D01*
X163977432Y-109496938D01*
X163985126Y-109495719D01*
X163992066Y-109492183D01*
X164098281Y-109438064D01*
X164098283Y-109438063D01*
X164105220Y-109434528D01*
X164200528Y-109339220D01*
X164240720Y-109260340D01*
X164258183Y-109226066D01*
X164258183Y-109226065D01*
X164261719Y-109219126D01*
X164265739Y-109193748D01*
X165595500Y-109193748D01*
X165600548Y-109219126D01*
X165604339Y-109238183D01*
X165607133Y-109252231D01*
X165651448Y-109318552D01*
X165717769Y-109362867D01*
X165727332Y-109364769D01*
X165727334Y-109364770D01*
X165750005Y-109369279D01*
X165776252Y-109374500D01*
X167515748Y-109374500D01*
X167541995Y-109369279D01*
X167564666Y-109364770D01*
X167564668Y-109364769D01*
X167574231Y-109362867D01*
X167640552Y-109318552D01*
X167684867Y-109252231D01*
X167687662Y-109238183D01*
X167691452Y-109219126D01*
X167696500Y-109193748D01*
X167696500Y-109086000D01*
X172565196Y-109086000D01*
X172566415Y-109093696D01*
X172582262Y-109193748D01*
X172586281Y-109219126D01*
X172589817Y-109226065D01*
X172589817Y-109226066D01*
X172607281Y-109260340D01*
X172647472Y-109339220D01*
X172742780Y-109434528D01*
X172749717Y-109438063D01*
X172749719Y-109438064D01*
X172855934Y-109492183D01*
X172862874Y-109495719D01*
X172870568Y-109496938D01*
X172870569Y-109496938D01*
X172988304Y-109515585D01*
X172996000Y-109516804D01*
X173003696Y-109515585D01*
X173121431Y-109496938D01*
X173121432Y-109496938D01*
X173129126Y-109495719D01*
X173136066Y-109492183D01*
X173242281Y-109438064D01*
X173242283Y-109438063D01*
X173249220Y-109434528D01*
X173306996Y-109376752D01*
X173361513Y-109348975D01*
X173421945Y-109358546D01*
X173447004Y-109376752D01*
X173504780Y-109434528D01*
X173511717Y-109438063D01*
X173511719Y-109438064D01*
X173617934Y-109492183D01*
X173624874Y-109495719D01*
X173632568Y-109496938D01*
X173632569Y-109496938D01*
X173750304Y-109515585D01*
X173758000Y-109516804D01*
X173765696Y-109515585D01*
X173883431Y-109496938D01*
X173883432Y-109496938D01*
X173891126Y-109495719D01*
X173898066Y-109492183D01*
X174004281Y-109438064D01*
X174004283Y-109438063D01*
X174011220Y-109434528D01*
X174068996Y-109376752D01*
X174123513Y-109348975D01*
X174183945Y-109358546D01*
X174209004Y-109376752D01*
X174266780Y-109434528D01*
X174273717Y-109438063D01*
X174273719Y-109438064D01*
X174379934Y-109492183D01*
X174386874Y-109495719D01*
X174394568Y-109496938D01*
X174394569Y-109496938D01*
X174512304Y-109515585D01*
X174520000Y-109516804D01*
X174527696Y-109515585D01*
X174645431Y-109496938D01*
X174645432Y-109496938D01*
X174653126Y-109495719D01*
X174660066Y-109492183D01*
X174766281Y-109438064D01*
X174766283Y-109438063D01*
X174773220Y-109434528D01*
X174868528Y-109339220D01*
X174908720Y-109260340D01*
X174926183Y-109226066D01*
X174926183Y-109226065D01*
X174929719Y-109219126D01*
X174933739Y-109193748D01*
X174949585Y-109093696D01*
X174950804Y-109086000D01*
X174929719Y-108952874D01*
X174868528Y-108832780D01*
X174773220Y-108737472D01*
X174766283Y-108733937D01*
X174766281Y-108733936D01*
X174660066Y-108679817D01*
X174660065Y-108679817D01*
X174653126Y-108676281D01*
X174645432Y-108675062D01*
X174645431Y-108675062D01*
X174527696Y-108656415D01*
X174520000Y-108655196D01*
X174512304Y-108656415D01*
X174394569Y-108675062D01*
X174394568Y-108675062D01*
X174386874Y-108676281D01*
X174379935Y-108679817D01*
X174379934Y-108679817D01*
X174273719Y-108733936D01*
X174273717Y-108733937D01*
X174266780Y-108737472D01*
X174209004Y-108795248D01*
X174154487Y-108823025D01*
X174094055Y-108813454D01*
X174068996Y-108795248D01*
X174011220Y-108737472D01*
X174004283Y-108733937D01*
X174004281Y-108733936D01*
X173898066Y-108679817D01*
X173898065Y-108679817D01*
X173891126Y-108676281D01*
X173883432Y-108675062D01*
X173883431Y-108675062D01*
X173765696Y-108656415D01*
X173758000Y-108655196D01*
X173750304Y-108656415D01*
X173632569Y-108675062D01*
X173632568Y-108675062D01*
X173624874Y-108676281D01*
X173617935Y-108679817D01*
X173617934Y-108679817D01*
X173511719Y-108733936D01*
X173511717Y-108733937D01*
X173504780Y-108737472D01*
X173447004Y-108795248D01*
X173392487Y-108823025D01*
X173332055Y-108813454D01*
X173306996Y-108795248D01*
X173249220Y-108737472D01*
X173242283Y-108733937D01*
X173242281Y-108733936D01*
X173136066Y-108679817D01*
X173136065Y-108679817D01*
X173129126Y-108676281D01*
X173121432Y-108675062D01*
X173121431Y-108675062D01*
X173003696Y-108656415D01*
X172996000Y-108655196D01*
X172988304Y-108656415D01*
X172870569Y-108675062D01*
X172870568Y-108675062D01*
X172862874Y-108676281D01*
X172855935Y-108679817D01*
X172855934Y-108679817D01*
X172749719Y-108733936D01*
X172749717Y-108733937D01*
X172742780Y-108737472D01*
X172647472Y-108832780D01*
X172586281Y-108952874D01*
X172565196Y-109086000D01*
X167696500Y-109086000D01*
X167696500Y-107454252D01*
X167684867Y-107395769D01*
X167640552Y-107329448D01*
X167574231Y-107285133D01*
X167564668Y-107283231D01*
X167564666Y-107283230D01*
X167541995Y-107278721D01*
X167515748Y-107273500D01*
X165776252Y-107273500D01*
X165750005Y-107278721D01*
X165727334Y-107283230D01*
X165727332Y-107283231D01*
X165717769Y-107285133D01*
X165651448Y-107329448D01*
X165607133Y-107395769D01*
X165595500Y-107454252D01*
X165595500Y-109193748D01*
X164265739Y-109193748D01*
X164281585Y-109093696D01*
X164282804Y-109086000D01*
X164261719Y-108952874D01*
X164200528Y-108832780D01*
X164105220Y-108737472D01*
X164098283Y-108733937D01*
X164098281Y-108733936D01*
X163992066Y-108679817D01*
X163992065Y-108679817D01*
X163985126Y-108676281D01*
X163977432Y-108675062D01*
X163977431Y-108675062D01*
X163859696Y-108656415D01*
X163852000Y-108655196D01*
X163844304Y-108656415D01*
X163726569Y-108675062D01*
X163726568Y-108675062D01*
X163718874Y-108676281D01*
X163711935Y-108679817D01*
X163711934Y-108679817D01*
X163605719Y-108733936D01*
X163605717Y-108733937D01*
X163598780Y-108737472D01*
X163503472Y-108832780D01*
X163442281Y-108952874D01*
X163421196Y-109086000D01*
X158230748Y-109086000D01*
X158231528Y-109085220D01*
X158267680Y-109014269D01*
X158289183Y-108972066D01*
X158289183Y-108972065D01*
X158292719Y-108965126D01*
X158313804Y-108832000D01*
X158292719Y-108698874D01*
X158231528Y-108578780D01*
X158136220Y-108483472D01*
X158129283Y-108479937D01*
X158129281Y-108479936D01*
X158023066Y-108425817D01*
X158023065Y-108425817D01*
X158016126Y-108422281D01*
X158008432Y-108421062D01*
X158008431Y-108421062D01*
X157890696Y-108402415D01*
X157883000Y-108401196D01*
X157875304Y-108402415D01*
X157757569Y-108421062D01*
X157757568Y-108421062D01*
X157749874Y-108422281D01*
X157742935Y-108425817D01*
X157742934Y-108425817D01*
X157636719Y-108479936D01*
X157636717Y-108479937D01*
X157629780Y-108483472D01*
X157610748Y-108502504D01*
X157556231Y-108530281D01*
X157540744Y-108531500D01*
X146120063Y-108531500D01*
X146061872Y-108512593D01*
X146025908Y-108463093D01*
X146021063Y-108432429D01*
X146021071Y-108421062D01*
X146022138Y-106927000D01*
X175105196Y-106927000D01*
X175126281Y-107060126D01*
X175187472Y-107180220D01*
X175282780Y-107275528D01*
X175289717Y-107279063D01*
X175289719Y-107279064D01*
X175312266Y-107290552D01*
X175402874Y-107336719D01*
X175410568Y-107337938D01*
X175410569Y-107337938D01*
X175528304Y-107356585D01*
X175536000Y-107357804D01*
X175543696Y-107356585D01*
X175661431Y-107337938D01*
X175661432Y-107337938D01*
X175669126Y-107336719D01*
X175759734Y-107290552D01*
X175782281Y-107279064D01*
X175782283Y-107279063D01*
X175789220Y-107275528D01*
X175884528Y-107180220D01*
X175945719Y-107060126D01*
X175966804Y-106927000D01*
X175945719Y-106793874D01*
X175884528Y-106673780D01*
X175789220Y-106578472D01*
X175782283Y-106574937D01*
X175782281Y-106574936D01*
X175676066Y-106520817D01*
X175676065Y-106520817D01*
X175669126Y-106517281D01*
X175661432Y-106516062D01*
X175661431Y-106516062D01*
X175543696Y-106497415D01*
X175536000Y-106496196D01*
X175528304Y-106497415D01*
X175410569Y-106516062D01*
X175410568Y-106516062D01*
X175402874Y-106517281D01*
X175395935Y-106520817D01*
X175395934Y-106520817D01*
X175289719Y-106574936D01*
X175289717Y-106574937D01*
X175282780Y-106578472D01*
X175187472Y-106673780D01*
X175126281Y-106793874D01*
X175105196Y-106927000D01*
X146022138Y-106927000D01*
X146022800Y-105999900D01*
X171130096Y-105999900D01*
X171151181Y-106133026D01*
X171212372Y-106253120D01*
X171307680Y-106348428D01*
X171314617Y-106351963D01*
X171314619Y-106351964D01*
X171371649Y-106381022D01*
X171427774Y-106409619D01*
X171435468Y-106410838D01*
X171435469Y-106410838D01*
X171553204Y-106429485D01*
X171560900Y-106430704D01*
X171568596Y-106429485D01*
X171686331Y-106410838D01*
X171686332Y-106410838D01*
X171694026Y-106409619D01*
X171750151Y-106381022D01*
X171807181Y-106351964D01*
X171807183Y-106351963D01*
X171814120Y-106348428D01*
X171909428Y-106253120D01*
X171970619Y-106133026D01*
X171985670Y-106038000D01*
X173581196Y-106038000D01*
X173582415Y-106045696D01*
X173596247Y-106133026D01*
X173602281Y-106171126D01*
X173605817Y-106178065D01*
X173605817Y-106178066D01*
X173646865Y-106258626D01*
X173663472Y-106291220D01*
X173758780Y-106386528D01*
X173765717Y-106390063D01*
X173765719Y-106390064D01*
X173845480Y-106430704D01*
X173878874Y-106447719D01*
X173886568Y-106448938D01*
X173886569Y-106448938D01*
X174004304Y-106467585D01*
X174012000Y-106468804D01*
X174019696Y-106467585D01*
X174137431Y-106448938D01*
X174137432Y-106448938D01*
X174145126Y-106447719D01*
X174178520Y-106430704D01*
X174258281Y-106390064D01*
X174258283Y-106390063D01*
X174265220Y-106386528D01*
X174360528Y-106291220D01*
X174377136Y-106258626D01*
X174418183Y-106178066D01*
X174418183Y-106178065D01*
X174421719Y-106171126D01*
X174427754Y-106133026D01*
X174441585Y-106045696D01*
X174442804Y-106038000D01*
X174435551Y-105992204D01*
X174422938Y-105912569D01*
X174422938Y-105912568D01*
X174421719Y-105904874D01*
X174360528Y-105784780D01*
X174265220Y-105689472D01*
X174258283Y-105685937D01*
X174258281Y-105685936D01*
X174152066Y-105631817D01*
X174152065Y-105631817D01*
X174145126Y-105628281D01*
X174137432Y-105627062D01*
X174137431Y-105627062D01*
X174019696Y-105608415D01*
X174012000Y-105607196D01*
X174004304Y-105608415D01*
X173886569Y-105627062D01*
X173886568Y-105627062D01*
X173878874Y-105628281D01*
X173871935Y-105631817D01*
X173871934Y-105631817D01*
X173765719Y-105685936D01*
X173765717Y-105685937D01*
X173758780Y-105689472D01*
X173663472Y-105784780D01*
X173602281Y-105904874D01*
X173601062Y-105912568D01*
X173601062Y-105912569D01*
X173588449Y-105992204D01*
X173581196Y-106038000D01*
X171985670Y-106038000D01*
X171991704Y-105999900D01*
X171977872Y-105912569D01*
X171971838Y-105874469D01*
X171971838Y-105874468D01*
X171970619Y-105866774D01*
X171928046Y-105783220D01*
X171912964Y-105753619D01*
X171912963Y-105753617D01*
X171909428Y-105746680D01*
X171814120Y-105651372D01*
X171807183Y-105647837D01*
X171807181Y-105647836D01*
X171700966Y-105593717D01*
X171700965Y-105593717D01*
X171694026Y-105590181D01*
X171686332Y-105588962D01*
X171686331Y-105588962D01*
X171568596Y-105570315D01*
X171560900Y-105569096D01*
X171553204Y-105570315D01*
X171435469Y-105588962D01*
X171435468Y-105588962D01*
X171427774Y-105590181D01*
X171420835Y-105593717D01*
X171420834Y-105593717D01*
X171314619Y-105647836D01*
X171314617Y-105647837D01*
X171307680Y-105651372D01*
X171212372Y-105746680D01*
X171208837Y-105753617D01*
X171208836Y-105753619D01*
X171193754Y-105783220D01*
X171151181Y-105866774D01*
X171149962Y-105874468D01*
X171149962Y-105874469D01*
X171143928Y-105912569D01*
X171130096Y-105999900D01*
X146022800Y-105999900D01*
X146023136Y-105530000D01*
X169136196Y-105530000D01*
X169137415Y-105537696D01*
X169148423Y-105607196D01*
X169157281Y-105663126D01*
X169160817Y-105670065D01*
X169160817Y-105670066D01*
X169203390Y-105753619D01*
X169218472Y-105783220D01*
X169313780Y-105878528D01*
X169320717Y-105882063D01*
X169320719Y-105882064D01*
X169380589Y-105912569D01*
X169433874Y-105939719D01*
X169441568Y-105940938D01*
X169441569Y-105940938D01*
X169559304Y-105959585D01*
X169567000Y-105960804D01*
X169574696Y-105959585D01*
X169692431Y-105940938D01*
X169692432Y-105940938D01*
X169700126Y-105939719D01*
X169753411Y-105912569D01*
X169813281Y-105882064D01*
X169813283Y-105882063D01*
X169820220Y-105878528D01*
X169915528Y-105783220D01*
X169930611Y-105753619D01*
X169973183Y-105670066D01*
X169973183Y-105670065D01*
X169976719Y-105663126D01*
X169985578Y-105607196D01*
X169996585Y-105537696D01*
X169997804Y-105530000D01*
X169976719Y-105396874D01*
X169915528Y-105276780D01*
X169820220Y-105181472D01*
X169813283Y-105177937D01*
X169813281Y-105177936D01*
X169707066Y-105123817D01*
X169707065Y-105123817D01*
X169700126Y-105120281D01*
X169692432Y-105119062D01*
X169692431Y-105119062D01*
X169574696Y-105100415D01*
X169567000Y-105099196D01*
X169559304Y-105100415D01*
X169441569Y-105119062D01*
X169441568Y-105119062D01*
X169433874Y-105120281D01*
X169426935Y-105123817D01*
X169426934Y-105123817D01*
X169320719Y-105177936D01*
X169320717Y-105177937D01*
X169313780Y-105181472D01*
X169218472Y-105276780D01*
X169157281Y-105396874D01*
X169136196Y-105530000D01*
X146023136Y-105530000D01*
X146023953Y-104387000D01*
X147673196Y-104387000D01*
X147694281Y-104520126D01*
X147755472Y-104640220D01*
X147850780Y-104735528D01*
X147857717Y-104739063D01*
X147857719Y-104739064D01*
X147963934Y-104793183D01*
X147970874Y-104796719D01*
X147978568Y-104797938D01*
X147978569Y-104797938D01*
X148096304Y-104816585D01*
X148104000Y-104817804D01*
X148111696Y-104816585D01*
X148229431Y-104797938D01*
X148229432Y-104797938D01*
X148237126Y-104796719D01*
X148244066Y-104793183D01*
X148350281Y-104739064D01*
X148350283Y-104739063D01*
X148357220Y-104735528D01*
X148452528Y-104640220D01*
X148513719Y-104520126D01*
X148534804Y-104387000D01*
X148513719Y-104253874D01*
X148452528Y-104133780D01*
X148357220Y-104038472D01*
X148350283Y-104034937D01*
X148350281Y-104034936D01*
X148244066Y-103980817D01*
X148244065Y-103980817D01*
X148237126Y-103977281D01*
X148229432Y-103976062D01*
X148229431Y-103976062D01*
X148111696Y-103957415D01*
X148104000Y-103956196D01*
X148096304Y-103957415D01*
X147978569Y-103976062D01*
X147978568Y-103976062D01*
X147970874Y-103977281D01*
X147963935Y-103980817D01*
X147963934Y-103980817D01*
X147857719Y-104034936D01*
X147857717Y-104034937D01*
X147850780Y-104038472D01*
X147755472Y-104133780D01*
X147694281Y-104253874D01*
X147673196Y-104387000D01*
X146023953Y-104387000D01*
X146025253Y-102566862D01*
X171191966Y-102566862D01*
X171199194Y-102574373D01*
X171272353Y-102615260D01*
X171281175Y-102619115D01*
X171449738Y-102673885D01*
X171459151Y-102675954D01*
X171635141Y-102696939D01*
X171644768Y-102697141D01*
X171821479Y-102683544D01*
X171830970Y-102681870D01*
X172001675Y-102634208D01*
X172010655Y-102630726D01*
X172120580Y-102575198D01*
X172128618Y-102567216D01*
X172128438Y-102566862D01*
X176271966Y-102566862D01*
X176279194Y-102574373D01*
X176352353Y-102615260D01*
X176361175Y-102619115D01*
X176529738Y-102673885D01*
X176539151Y-102675954D01*
X176715141Y-102696939D01*
X176724768Y-102697141D01*
X176901479Y-102683544D01*
X176910970Y-102681870D01*
X177081675Y-102634208D01*
X177090655Y-102630726D01*
X177200580Y-102575198D01*
X177208618Y-102567216D01*
X177203425Y-102556979D01*
X176751089Y-102104642D01*
X176739202Y-102098585D01*
X176734172Y-102099381D01*
X176277444Y-102556110D01*
X176271966Y-102566862D01*
X172128438Y-102566862D01*
X172123425Y-102556979D01*
X171671089Y-102104642D01*
X171659202Y-102098585D01*
X171654172Y-102099381D01*
X171197444Y-102556110D01*
X171191966Y-102566862D01*
X146025253Y-102566862D01*
X146025850Y-101731448D01*
X170702776Y-101731448D01*
X170717607Y-101908068D01*
X170719345Y-101917536D01*
X170768198Y-102087904D01*
X170771749Y-102096872D01*
X170824945Y-102200383D01*
X170833076Y-102208457D01*
X170843138Y-102203308D01*
X171295358Y-101751089D01*
X171300602Y-101740798D01*
X172018585Y-101740798D01*
X172019381Y-101745828D01*
X172476077Y-102202523D01*
X172486935Y-102208055D01*
X172494342Y-102200977D01*
X172532534Y-102133747D01*
X172536449Y-102124952D01*
X172592395Y-101956773D01*
X172594529Y-101947379D01*
X172617001Y-101769493D01*
X172617388Y-101763968D01*
X172617683Y-101742771D01*
X172617451Y-101737241D01*
X172616883Y-101731448D01*
X175782776Y-101731448D01*
X175797607Y-101908068D01*
X175799345Y-101917536D01*
X175848198Y-102087904D01*
X175851749Y-102096872D01*
X175904945Y-102200383D01*
X175913076Y-102208457D01*
X175923138Y-102203308D01*
X176375358Y-101751089D01*
X176381415Y-101739202D01*
X176380619Y-101734172D01*
X175923822Y-101277376D01*
X175913178Y-101271952D01*
X175905564Y-101279331D01*
X175862055Y-101358473D01*
X175858261Y-101367325D01*
X175804673Y-101536258D01*
X175802667Y-101545695D01*
X175782910Y-101721820D01*
X175782776Y-101731448D01*
X172616883Y-101731448D01*
X172599954Y-101558795D01*
X172598084Y-101549347D01*
X172546856Y-101379672D01*
X172543186Y-101370768D01*
X172494868Y-101279894D01*
X172486449Y-101271764D01*
X172476732Y-101276822D01*
X172024642Y-101728911D01*
X172018585Y-101740798D01*
X171300602Y-101740798D01*
X171301415Y-101739202D01*
X171300619Y-101734172D01*
X170843822Y-101277376D01*
X170833178Y-101271952D01*
X170825564Y-101279331D01*
X170782055Y-101358473D01*
X170778261Y-101367325D01*
X170724673Y-101536258D01*
X170722667Y-101545695D01*
X170702910Y-101721820D01*
X170702776Y-101731448D01*
X146025850Y-101731448D01*
X146026674Y-100577000D01*
X151102196Y-100577000D01*
X151103415Y-100584696D01*
X151121020Y-100695848D01*
X151123281Y-100710126D01*
X151126817Y-100717065D01*
X151126817Y-100717066D01*
X151170740Y-100803269D01*
X151184472Y-100830220D01*
X151279780Y-100925528D01*
X151286717Y-100929063D01*
X151286719Y-100929064D01*
X151392934Y-100983183D01*
X151399874Y-100986719D01*
X151407568Y-100987938D01*
X151407569Y-100987938D01*
X151525304Y-101006585D01*
X151533000Y-101007804D01*
X151540696Y-101006585D01*
X151658431Y-100987938D01*
X151658432Y-100987938D01*
X151666126Y-100986719D01*
X151673066Y-100983183D01*
X151779281Y-100929064D01*
X151779283Y-100929063D01*
X151786220Y-100925528D01*
X151881528Y-100830220D01*
X151895261Y-100803269D01*
X151939183Y-100717066D01*
X151939183Y-100717065D01*
X151942719Y-100710126D01*
X151943938Y-100702431D01*
X151946345Y-100695022D01*
X151948886Y-100695848D01*
X151970996Y-100652453D01*
X152025512Y-100624675D01*
X152085945Y-100634246D01*
X152129209Y-100677510D01*
X152134971Y-100695244D01*
X152135655Y-100695022D01*
X152138062Y-100702431D01*
X152139281Y-100710126D01*
X152142817Y-100717065D01*
X152142817Y-100717066D01*
X152186740Y-100803269D01*
X152200472Y-100830220D01*
X152295780Y-100925528D01*
X152302717Y-100929063D01*
X152302719Y-100929064D01*
X152408934Y-100983183D01*
X152415874Y-100986719D01*
X152423568Y-100987938D01*
X152423569Y-100987938D01*
X152541304Y-101006585D01*
X152549000Y-101007804D01*
X152556696Y-101006585D01*
X152674431Y-100987938D01*
X152674432Y-100987938D01*
X152682126Y-100986719D01*
X152689066Y-100983183D01*
X152795281Y-100929064D01*
X152795283Y-100929063D01*
X152802220Y-100925528D01*
X152814417Y-100913331D01*
X171191671Y-100913331D01*
X171196776Y-100923222D01*
X171648911Y-101375358D01*
X171660798Y-101381415D01*
X171665828Y-101380619D01*
X172122727Y-100923719D01*
X172128020Y-100913331D01*
X176271671Y-100913331D01*
X176276776Y-100923222D01*
X176728911Y-101375358D01*
X176740798Y-101381415D01*
X176745828Y-101380619D01*
X177202727Y-100923719D01*
X177208096Y-100913182D01*
X177200567Y-100905468D01*
X177115396Y-100859416D01*
X177106506Y-100855679D01*
X176937198Y-100803269D01*
X176927766Y-100801333D01*
X176751502Y-100782807D01*
X176741864Y-100782740D01*
X176565361Y-100798803D01*
X176555895Y-100800609D01*
X176385878Y-100850648D01*
X176376937Y-100854261D01*
X176279774Y-100905056D01*
X176271671Y-100913331D01*
X172128020Y-100913331D01*
X172128096Y-100913182D01*
X172120567Y-100905468D01*
X172035396Y-100859416D01*
X172026506Y-100855679D01*
X171857198Y-100803269D01*
X171847766Y-100801333D01*
X171671502Y-100782807D01*
X171661864Y-100782740D01*
X171485361Y-100798803D01*
X171475895Y-100800609D01*
X171305878Y-100850648D01*
X171296937Y-100854261D01*
X171199774Y-100905056D01*
X171191671Y-100913331D01*
X152814417Y-100913331D01*
X152897528Y-100830220D01*
X152911261Y-100803269D01*
X152955183Y-100717066D01*
X152955183Y-100717065D01*
X152958719Y-100710126D01*
X152960981Y-100695848D01*
X152978585Y-100584696D01*
X152979804Y-100577000D01*
X152970737Y-100519754D01*
X152959938Y-100451569D01*
X152959938Y-100451568D01*
X152958719Y-100443874D01*
X152897528Y-100323780D01*
X152802220Y-100228472D01*
X152795283Y-100224937D01*
X152795281Y-100224936D01*
X152689066Y-100170817D01*
X152689065Y-100170817D01*
X152682126Y-100167281D01*
X152674432Y-100166062D01*
X152667022Y-100163655D01*
X152667848Y-100161114D01*
X152624453Y-100139004D01*
X152596675Y-100084488D01*
X152606246Y-100024055D01*
X152649510Y-99980791D01*
X152667244Y-99975029D01*
X152667022Y-99974345D01*
X152674432Y-99971938D01*
X152682126Y-99970719D01*
X152689066Y-99967183D01*
X152795281Y-99913064D01*
X152795283Y-99913063D01*
X152802220Y-99909528D01*
X152897528Y-99814220D01*
X152948202Y-99714768D01*
X152955183Y-99701066D01*
X152955183Y-99701065D01*
X152958719Y-99694126D01*
X152960981Y-99679848D01*
X152978585Y-99568696D01*
X152979804Y-99561000D01*
X152970737Y-99503754D01*
X152959938Y-99435569D01*
X152959938Y-99435568D01*
X152958719Y-99427874D01*
X152897528Y-99307780D01*
X152802220Y-99212472D01*
X152795283Y-99208937D01*
X152795281Y-99208936D01*
X152689066Y-99154817D01*
X152689065Y-99154817D01*
X152682126Y-99151281D01*
X152674432Y-99150062D01*
X152674431Y-99150062D01*
X152556696Y-99131415D01*
X152549000Y-99130196D01*
X152541304Y-99131415D01*
X152423569Y-99150062D01*
X152423568Y-99150062D01*
X152415874Y-99151281D01*
X152408935Y-99154817D01*
X152408934Y-99154817D01*
X152302719Y-99208936D01*
X152302717Y-99208937D01*
X152295780Y-99212472D01*
X152200472Y-99307780D01*
X152139281Y-99427874D01*
X152138062Y-99435568D01*
X152135655Y-99442978D01*
X152133114Y-99442152D01*
X152111004Y-99485547D01*
X152056488Y-99513325D01*
X151996055Y-99503754D01*
X151952791Y-99460490D01*
X151947029Y-99442756D01*
X151946345Y-99442978D01*
X151943938Y-99435568D01*
X151942719Y-99427874D01*
X151881528Y-99307780D01*
X151786220Y-99212472D01*
X151779283Y-99208937D01*
X151779281Y-99208936D01*
X151673066Y-99154817D01*
X151673065Y-99154817D01*
X151666126Y-99151281D01*
X151658432Y-99150062D01*
X151658431Y-99150062D01*
X151540696Y-99131415D01*
X151533000Y-99130196D01*
X151525304Y-99131415D01*
X151407569Y-99150062D01*
X151407568Y-99150062D01*
X151399874Y-99151281D01*
X151392935Y-99154817D01*
X151392934Y-99154817D01*
X151286719Y-99208936D01*
X151286717Y-99208937D01*
X151279780Y-99212472D01*
X151184472Y-99307780D01*
X151123281Y-99427874D01*
X151122062Y-99435568D01*
X151122062Y-99435569D01*
X151111263Y-99503754D01*
X151102196Y-99561000D01*
X151103415Y-99568696D01*
X151121020Y-99679848D01*
X151123281Y-99694126D01*
X151126817Y-99701065D01*
X151126817Y-99701066D01*
X151133799Y-99714768D01*
X151184472Y-99814220D01*
X151279780Y-99909528D01*
X151286717Y-99913063D01*
X151286719Y-99913064D01*
X151392934Y-99967183D01*
X151399874Y-99970719D01*
X151407568Y-99971938D01*
X151414978Y-99974345D01*
X151414152Y-99976886D01*
X151457547Y-99998996D01*
X151485325Y-100053512D01*
X151475754Y-100113945D01*
X151432490Y-100157209D01*
X151414756Y-100162971D01*
X151414978Y-100163655D01*
X151407568Y-100166062D01*
X151399874Y-100167281D01*
X151392935Y-100170817D01*
X151392934Y-100170817D01*
X151286719Y-100224936D01*
X151286717Y-100224937D01*
X151279780Y-100228472D01*
X151184472Y-100323780D01*
X151123281Y-100443874D01*
X151122062Y-100451568D01*
X151122062Y-100451569D01*
X151111263Y-100519754D01*
X151102196Y-100577000D01*
X146026674Y-100577000D01*
X146027853Y-98926000D01*
X157960196Y-98926000D01*
X157961415Y-98933696D01*
X157977763Y-99036911D01*
X157981281Y-99059126D01*
X158042472Y-99179220D01*
X158137780Y-99274528D01*
X158144717Y-99278063D01*
X158144719Y-99278064D01*
X158216614Y-99314696D01*
X158257874Y-99335719D01*
X158265568Y-99336938D01*
X158265569Y-99336938D01*
X158383304Y-99355585D01*
X158391000Y-99356804D01*
X158398696Y-99355585D01*
X158516431Y-99336938D01*
X158516432Y-99336938D01*
X158524126Y-99335719D01*
X158565386Y-99314696D01*
X158637281Y-99278064D01*
X158637283Y-99278063D01*
X158644220Y-99274528D01*
X158739528Y-99179220D01*
X158800719Y-99059126D01*
X158804238Y-99036911D01*
X158820585Y-98933696D01*
X158821804Y-98926000D01*
X158800719Y-98792874D01*
X158739528Y-98672780D01*
X158738748Y-98672000D01*
X164564196Y-98672000D01*
X164585281Y-98805126D01*
X164588817Y-98812065D01*
X164588817Y-98812066D01*
X164600426Y-98834849D01*
X164646472Y-98925220D01*
X164741780Y-99020528D01*
X164748717Y-99024063D01*
X164748719Y-99024064D01*
X164820659Y-99060719D01*
X164861874Y-99081719D01*
X164869568Y-99082938D01*
X164869569Y-99082938D01*
X164987304Y-99101585D01*
X164995000Y-99102804D01*
X165002696Y-99101585D01*
X165120431Y-99082938D01*
X165120432Y-99082938D01*
X165128126Y-99081719D01*
X165216067Y-99036911D01*
X165276498Y-99027340D01*
X165331014Y-99055117D01*
X165358792Y-99109634D01*
X165351006Y-99158799D01*
X165353226Y-99159520D01*
X165350817Y-99166934D01*
X165347281Y-99173874D01*
X165346062Y-99181568D01*
X165346062Y-99181569D01*
X165338469Y-99229509D01*
X165326196Y-99307000D01*
X165347281Y-99440126D01*
X165350817Y-99447065D01*
X165350817Y-99447066D01*
X165404664Y-99552746D01*
X165408472Y-99560220D01*
X165503780Y-99655528D01*
X165510717Y-99659063D01*
X165510719Y-99659064D01*
X165593153Y-99701066D01*
X165623874Y-99716719D01*
X165631568Y-99717938D01*
X165631569Y-99717938D01*
X165749304Y-99736585D01*
X165757000Y-99737804D01*
X165764696Y-99736585D01*
X165882431Y-99717938D01*
X165882432Y-99717938D01*
X165890126Y-99716719D01*
X165920847Y-99701066D01*
X166003281Y-99659064D01*
X166003283Y-99659063D01*
X166010220Y-99655528D01*
X166105528Y-99560220D01*
X166109337Y-99552746D01*
X166163183Y-99447066D01*
X166163183Y-99447065D01*
X166166719Y-99440126D01*
X166187804Y-99307000D01*
X166175531Y-99229509D01*
X166168738Y-99186621D01*
X173241869Y-99186621D01*
X173248623Y-99267051D01*
X173254492Y-99336938D01*
X173257518Y-99372978D01*
X173258851Y-99377626D01*
X173258851Y-99377627D01*
X173295018Y-99503754D01*
X173309066Y-99552746D01*
X173394549Y-99719078D01*
X173510711Y-99865638D01*
X173514391Y-99868770D01*
X173514393Y-99868772D01*
X173566436Y-99913064D01*
X173653129Y-99986845D01*
X173657352Y-99989205D01*
X173657356Y-99989208D01*
X173719708Y-100024055D01*
X173816376Y-100078081D01*
X173820974Y-100079575D01*
X173989630Y-100134375D01*
X173989632Y-100134376D01*
X173994235Y-100135871D01*
X174179932Y-100158014D01*
X174184754Y-100157643D01*
X174184756Y-100157643D01*
X174361566Y-100144038D01*
X174361571Y-100144037D01*
X174366394Y-100143666D01*
X174546517Y-100093375D01*
X174550835Y-100091194D01*
X174709121Y-100011238D01*
X174709123Y-100011237D01*
X174713442Y-100009055D01*
X174726317Y-99998996D01*
X174856995Y-99896900D01*
X174856997Y-99896898D01*
X174860810Y-99893919D01*
X174983008Y-99752351D01*
X175075381Y-99589745D01*
X175118379Y-99460490D01*
X175132884Y-99416887D01*
X175132885Y-99416885D01*
X175134412Y-99412293D01*
X175157850Y-99226755D01*
X175158224Y-99200000D01*
X175156912Y-99186621D01*
X175140447Y-99018690D01*
X175140446Y-99018686D01*
X175139975Y-99013880D01*
X175124909Y-98963978D01*
X175087321Y-98839481D01*
X175087319Y-98839476D01*
X175085922Y-98834849D01*
X174998125Y-98669727D01*
X174879928Y-98524803D01*
X174813155Y-98469563D01*
X174739559Y-98408679D01*
X174739557Y-98408678D01*
X174735832Y-98405596D01*
X174571327Y-98316649D01*
X174562108Y-98313795D01*
X174514617Y-98299094D01*
X174392678Y-98261347D01*
X174387868Y-98260841D01*
X174387866Y-98260841D01*
X174211506Y-98242305D01*
X174211504Y-98242305D01*
X174206690Y-98241799D01*
X174147030Y-98247229D01*
X174025267Y-98258310D01*
X174025264Y-98258311D01*
X174020447Y-98258749D01*
X174015805Y-98260115D01*
X174015801Y-98260116D01*
X173845690Y-98310182D01*
X173845687Y-98310183D01*
X173841043Y-98311550D01*
X173818238Y-98323472D01*
X173679609Y-98395945D01*
X173679605Y-98395948D01*
X173675312Y-98398192D01*
X173671536Y-98401228D01*
X173671533Y-98401230D01*
X173553147Y-98496415D01*
X173529566Y-98515375D01*
X173526457Y-98519080D01*
X173526454Y-98519083D01*
X173480427Y-98573936D01*
X173409356Y-98658635D01*
X173407020Y-98662883D01*
X173407020Y-98662884D01*
X173401580Y-98672780D01*
X173319262Y-98822515D01*
X173317799Y-98827128D01*
X173317797Y-98827132D01*
X173283993Y-98933696D01*
X173262715Y-99000774D01*
X173262175Y-99005586D01*
X173262175Y-99005587D01*
X173242436Y-99181569D01*
X173241869Y-99186621D01*
X166168738Y-99186621D01*
X166167938Y-99181569D01*
X166167938Y-99181568D01*
X166166719Y-99173874D01*
X166105528Y-99053780D01*
X166010220Y-98958472D01*
X166003283Y-98954937D01*
X166003281Y-98954936D01*
X165897066Y-98900817D01*
X165897065Y-98900817D01*
X165890126Y-98897281D01*
X165882432Y-98896062D01*
X165882431Y-98896062D01*
X165764696Y-98877415D01*
X165757000Y-98876196D01*
X165749304Y-98877415D01*
X165631569Y-98896062D01*
X165631568Y-98896062D01*
X165623874Y-98897281D01*
X165535933Y-98942089D01*
X165475502Y-98951660D01*
X165420986Y-98923883D01*
X165393208Y-98869366D01*
X165400994Y-98820201D01*
X165398774Y-98819480D01*
X165401183Y-98812066D01*
X165404719Y-98805126D01*
X165425804Y-98672000D01*
X165404719Y-98538874D01*
X165399462Y-98528556D01*
X165347064Y-98425719D01*
X165347063Y-98425717D01*
X165343528Y-98418780D01*
X165248220Y-98323472D01*
X165241283Y-98319937D01*
X165241281Y-98319936D01*
X165135066Y-98265817D01*
X165135065Y-98265817D01*
X165128126Y-98262281D01*
X165120432Y-98261062D01*
X165120431Y-98261062D01*
X165002696Y-98242415D01*
X164995000Y-98241196D01*
X164987304Y-98242415D01*
X164869569Y-98261062D01*
X164869568Y-98261062D01*
X164861874Y-98262281D01*
X164854935Y-98265817D01*
X164854934Y-98265817D01*
X164748719Y-98319936D01*
X164748717Y-98319937D01*
X164741780Y-98323472D01*
X164646472Y-98418780D01*
X164642937Y-98425717D01*
X164642936Y-98425719D01*
X164590538Y-98528556D01*
X164585281Y-98538874D01*
X164564196Y-98672000D01*
X158738748Y-98672000D01*
X158644220Y-98577472D01*
X158637283Y-98573937D01*
X158637281Y-98573936D01*
X158531066Y-98519817D01*
X158531065Y-98519817D01*
X158524126Y-98516281D01*
X158516432Y-98515062D01*
X158516431Y-98515062D01*
X158398696Y-98496415D01*
X158391000Y-98495196D01*
X158383304Y-98496415D01*
X158265569Y-98515062D01*
X158265568Y-98515062D01*
X158257874Y-98516281D01*
X158250935Y-98519817D01*
X158250934Y-98519817D01*
X158144719Y-98573936D01*
X158144717Y-98573937D01*
X158137780Y-98577472D01*
X158042472Y-98672780D01*
X157981281Y-98792874D01*
X157960196Y-98926000D01*
X146027853Y-98926000D01*
X146028579Y-97910000D01*
X147038196Y-97910000D01*
X147059281Y-98043126D01*
X147120472Y-98163220D01*
X147215780Y-98258528D01*
X147222717Y-98262063D01*
X147222719Y-98262064D01*
X147327034Y-98315215D01*
X147335874Y-98319719D01*
X147343568Y-98320938D01*
X147343569Y-98320938D01*
X147461304Y-98339585D01*
X147469000Y-98340804D01*
X147476696Y-98339585D01*
X147594431Y-98320938D01*
X147594432Y-98320938D01*
X147602126Y-98319719D01*
X147610966Y-98315215D01*
X147715281Y-98262064D01*
X147715283Y-98262063D01*
X147722220Y-98258528D01*
X147817528Y-98163220D01*
X147878719Y-98043126D01*
X147899804Y-97910000D01*
X147878719Y-97776874D01*
X147817528Y-97656780D01*
X147722220Y-97561472D01*
X147715283Y-97557937D01*
X147715281Y-97557936D01*
X147609066Y-97503817D01*
X147609065Y-97503817D01*
X147602126Y-97500281D01*
X147594432Y-97499062D01*
X147594431Y-97499062D01*
X147517402Y-97486862D01*
X171191966Y-97486862D01*
X171199194Y-97494373D01*
X171272353Y-97535260D01*
X171281175Y-97539115D01*
X171449738Y-97593885D01*
X171459151Y-97595954D01*
X171635141Y-97616939D01*
X171644768Y-97617141D01*
X171821479Y-97603544D01*
X171830970Y-97601870D01*
X172001675Y-97554208D01*
X172010655Y-97550726D01*
X172120580Y-97495198D01*
X172128618Y-97487216D01*
X172128438Y-97486862D01*
X176271966Y-97486862D01*
X176279194Y-97494373D01*
X176352353Y-97535260D01*
X176361175Y-97539115D01*
X176529738Y-97593885D01*
X176539151Y-97595954D01*
X176715141Y-97616939D01*
X176724768Y-97617141D01*
X176901479Y-97603544D01*
X176910970Y-97601870D01*
X177081675Y-97554208D01*
X177090655Y-97550726D01*
X177200580Y-97495198D01*
X177208618Y-97487216D01*
X177203425Y-97476979D01*
X176751089Y-97024642D01*
X176739202Y-97018585D01*
X176734172Y-97019381D01*
X176277444Y-97476110D01*
X176271966Y-97486862D01*
X172128438Y-97486862D01*
X172123425Y-97476979D01*
X171671089Y-97024642D01*
X171659202Y-97018585D01*
X171654172Y-97019381D01*
X171197444Y-97476110D01*
X171191966Y-97486862D01*
X147517402Y-97486862D01*
X147476696Y-97480415D01*
X147469000Y-97479196D01*
X147461304Y-97480415D01*
X147343569Y-97499062D01*
X147343568Y-97499062D01*
X147335874Y-97500281D01*
X147328935Y-97503817D01*
X147328934Y-97503817D01*
X147222719Y-97557936D01*
X147222717Y-97557937D01*
X147215780Y-97561472D01*
X147120472Y-97656780D01*
X147059281Y-97776874D01*
X147038196Y-97910000D01*
X146028579Y-97910000D01*
X146029758Y-96259000D01*
X147927196Y-96259000D01*
X147948281Y-96392126D01*
X148009472Y-96512220D01*
X148104780Y-96607528D01*
X148111717Y-96611063D01*
X148111719Y-96611064D01*
X148196324Y-96654172D01*
X148224874Y-96668719D01*
X148232568Y-96669938D01*
X148232569Y-96669938D01*
X148350304Y-96688585D01*
X148358000Y-96689804D01*
X148365696Y-96688585D01*
X148483431Y-96669938D01*
X148483432Y-96669938D01*
X148491126Y-96668719D01*
X148519676Y-96654172D01*
X148525022Y-96651448D01*
X170702776Y-96651448D01*
X170717607Y-96828068D01*
X170719345Y-96837536D01*
X170768198Y-97007904D01*
X170771749Y-97016872D01*
X170824945Y-97120383D01*
X170833076Y-97128457D01*
X170843138Y-97123308D01*
X171295358Y-96671089D01*
X171300602Y-96660798D01*
X172018585Y-96660798D01*
X172019381Y-96665828D01*
X172476077Y-97122523D01*
X172486935Y-97128055D01*
X172494342Y-97120977D01*
X172532534Y-97053747D01*
X172536449Y-97044952D01*
X172592395Y-96876773D01*
X172594529Y-96867379D01*
X172617001Y-96689493D01*
X172617388Y-96683968D01*
X172617683Y-96662771D01*
X172617451Y-96657241D01*
X172616883Y-96651448D01*
X175782776Y-96651448D01*
X175797607Y-96828068D01*
X175799345Y-96837536D01*
X175848198Y-97007904D01*
X175851749Y-97016872D01*
X175904945Y-97120383D01*
X175913076Y-97128457D01*
X175923138Y-97123308D01*
X176375358Y-96671089D01*
X176381415Y-96659202D01*
X176380619Y-96654172D01*
X175923822Y-96197376D01*
X175913178Y-96191952D01*
X175905564Y-96199331D01*
X175862055Y-96278473D01*
X175858261Y-96287325D01*
X175804673Y-96456258D01*
X175802667Y-96465695D01*
X175782910Y-96641820D01*
X175782776Y-96651448D01*
X172616883Y-96651448D01*
X172599954Y-96478795D01*
X172598084Y-96469347D01*
X172546856Y-96299672D01*
X172543186Y-96290768D01*
X172494868Y-96199894D01*
X172486449Y-96191764D01*
X172476732Y-96196822D01*
X172024642Y-96648911D01*
X172018585Y-96660798D01*
X171300602Y-96660798D01*
X171301415Y-96659202D01*
X171300619Y-96654172D01*
X170843822Y-96197376D01*
X170833178Y-96191952D01*
X170825564Y-96199331D01*
X170782055Y-96278473D01*
X170778261Y-96287325D01*
X170724673Y-96456258D01*
X170722667Y-96465695D01*
X170702910Y-96641820D01*
X170702776Y-96651448D01*
X148525022Y-96651448D01*
X148604281Y-96611064D01*
X148604283Y-96611063D01*
X148611220Y-96607528D01*
X148706528Y-96512220D01*
X148767719Y-96392126D01*
X148788804Y-96259000D01*
X148767719Y-96125874D01*
X148706528Y-96005780D01*
X148611220Y-95910472D01*
X148604283Y-95906937D01*
X148604281Y-95906936D01*
X148498066Y-95852817D01*
X148498065Y-95852817D01*
X148491126Y-95849281D01*
X148483432Y-95848062D01*
X148483431Y-95848062D01*
X148390421Y-95833331D01*
X171191671Y-95833331D01*
X171196776Y-95843222D01*
X171648911Y-96295358D01*
X171660798Y-96301415D01*
X171665828Y-96300619D01*
X172122727Y-95843719D01*
X172128020Y-95833331D01*
X176271671Y-95833331D01*
X176276776Y-95843222D01*
X176728911Y-96295358D01*
X176740798Y-96301415D01*
X176745828Y-96300619D01*
X177202727Y-95843719D01*
X177208096Y-95833182D01*
X177200567Y-95825468D01*
X177115396Y-95779416D01*
X177106506Y-95775679D01*
X176937198Y-95723269D01*
X176927766Y-95721333D01*
X176751502Y-95702807D01*
X176741864Y-95702740D01*
X176565361Y-95718803D01*
X176555895Y-95720609D01*
X176385878Y-95770648D01*
X176376937Y-95774261D01*
X176279774Y-95825056D01*
X176271671Y-95833331D01*
X172128020Y-95833331D01*
X172128096Y-95833182D01*
X172120567Y-95825468D01*
X172035396Y-95779416D01*
X172026506Y-95775679D01*
X171857198Y-95723269D01*
X171847766Y-95721333D01*
X171671502Y-95702807D01*
X171661864Y-95702740D01*
X171485361Y-95718803D01*
X171475895Y-95720609D01*
X171305878Y-95770648D01*
X171296937Y-95774261D01*
X171199774Y-95825056D01*
X171191671Y-95833331D01*
X148390421Y-95833331D01*
X148365696Y-95829415D01*
X148358000Y-95828196D01*
X148350304Y-95829415D01*
X148232569Y-95848062D01*
X148232568Y-95848062D01*
X148224874Y-95849281D01*
X148217935Y-95852817D01*
X148217934Y-95852817D01*
X148111719Y-95906936D01*
X148111717Y-95906937D01*
X148104780Y-95910472D01*
X148009472Y-96005780D01*
X147948281Y-96125874D01*
X147927196Y-96259000D01*
X146029758Y-96259000D01*
X146032570Y-92322000D01*
X163294196Y-92322000D01*
X163295415Y-92329696D01*
X163311262Y-92429748D01*
X163315281Y-92455126D01*
X163318817Y-92462065D01*
X163318817Y-92462066D01*
X163336281Y-92496340D01*
X163376472Y-92575220D01*
X163471780Y-92670528D01*
X163478717Y-92674063D01*
X163478719Y-92674064D01*
X163584934Y-92728183D01*
X163591874Y-92731719D01*
X163599568Y-92732938D01*
X163599569Y-92732938D01*
X163717304Y-92751585D01*
X163725000Y-92752804D01*
X163732696Y-92751585D01*
X163850431Y-92732938D01*
X163850432Y-92732938D01*
X163858126Y-92731719D01*
X163865066Y-92728183D01*
X163971281Y-92674064D01*
X163971283Y-92674063D01*
X163978220Y-92670528D01*
X164073528Y-92575220D01*
X164113720Y-92496340D01*
X164131183Y-92462066D01*
X164131183Y-92462065D01*
X164134719Y-92455126D01*
X164138739Y-92429748D01*
X165595500Y-92429748D01*
X165607133Y-92488231D01*
X165651448Y-92554552D01*
X165717769Y-92598867D01*
X165727332Y-92600769D01*
X165727334Y-92600770D01*
X165750005Y-92605279D01*
X165776252Y-92610500D01*
X167515748Y-92610500D01*
X167541995Y-92605279D01*
X167564666Y-92600770D01*
X167564668Y-92600769D01*
X167574231Y-92598867D01*
X167640552Y-92554552D01*
X167684867Y-92488231D01*
X167696500Y-92429748D01*
X167696500Y-90690252D01*
X167684867Y-90631769D01*
X167640552Y-90565448D01*
X167574231Y-90521133D01*
X167564668Y-90519231D01*
X167564666Y-90519230D01*
X167541995Y-90514721D01*
X167515748Y-90509500D01*
X165776252Y-90509500D01*
X165750005Y-90514721D01*
X165727334Y-90519230D01*
X165727332Y-90519231D01*
X165717769Y-90521133D01*
X165651448Y-90565448D01*
X165607133Y-90631769D01*
X165595500Y-90690252D01*
X165595500Y-92429748D01*
X164138739Y-92429748D01*
X164154585Y-92329696D01*
X164155804Y-92322000D01*
X164134719Y-92188874D01*
X164073528Y-92068780D01*
X163978220Y-91973472D01*
X163971283Y-91969937D01*
X163971281Y-91969936D01*
X163865066Y-91915817D01*
X163865065Y-91915817D01*
X163858126Y-91912281D01*
X163850432Y-91911062D01*
X163850431Y-91911062D01*
X163732696Y-91892415D01*
X163725000Y-91891196D01*
X163717304Y-91892415D01*
X163599569Y-91911062D01*
X163599568Y-91911062D01*
X163591874Y-91912281D01*
X163584935Y-91915817D01*
X163584934Y-91915817D01*
X163478719Y-91969936D01*
X163478717Y-91969937D01*
X163471780Y-91973472D01*
X163376472Y-92068780D01*
X163315281Y-92188874D01*
X163294196Y-92322000D01*
X146032570Y-92322000D01*
X146035110Y-88766000D01*
X169263196Y-88766000D01*
X169284281Y-88899126D01*
X169345472Y-89019220D01*
X169440780Y-89114528D01*
X169447717Y-89118063D01*
X169447719Y-89118064D01*
X169553934Y-89172183D01*
X169560874Y-89175719D01*
X169568568Y-89176938D01*
X169568569Y-89176938D01*
X169686304Y-89195585D01*
X169694000Y-89196804D01*
X169701696Y-89195585D01*
X169819431Y-89176938D01*
X169819432Y-89176938D01*
X169827126Y-89175719D01*
X169834066Y-89172183D01*
X169940281Y-89118064D01*
X169940283Y-89118063D01*
X169947220Y-89114528D01*
X170042528Y-89019220D01*
X170103719Y-88899126D01*
X170124804Y-88766000D01*
X170103719Y-88632874D01*
X170042528Y-88512780D01*
X169947220Y-88417472D01*
X169940283Y-88413937D01*
X169940281Y-88413936D01*
X169834066Y-88359817D01*
X169834065Y-88359817D01*
X169827126Y-88356281D01*
X169819432Y-88355062D01*
X169819431Y-88355062D01*
X169701696Y-88336415D01*
X169694000Y-88335196D01*
X169686304Y-88336415D01*
X169568569Y-88355062D01*
X169568568Y-88355062D01*
X169560874Y-88356281D01*
X169553935Y-88359817D01*
X169553934Y-88359817D01*
X169447719Y-88413936D01*
X169447717Y-88413937D01*
X169440780Y-88417472D01*
X169345472Y-88512780D01*
X169284281Y-88632874D01*
X169263196Y-88766000D01*
X146035110Y-88766000D01*
X146037109Y-85966862D01*
X171191966Y-85966862D01*
X171199194Y-85974373D01*
X171272353Y-86015260D01*
X171281175Y-86019115D01*
X171449738Y-86073885D01*
X171459151Y-86075954D01*
X171635141Y-86096939D01*
X171644768Y-86097141D01*
X171821479Y-86083544D01*
X171830970Y-86081870D01*
X172001675Y-86034208D01*
X172010655Y-86030726D01*
X172120580Y-85975198D01*
X172128618Y-85967216D01*
X172128438Y-85966862D01*
X176271966Y-85966862D01*
X176279194Y-85974373D01*
X176352353Y-86015260D01*
X176361175Y-86019115D01*
X176529738Y-86073885D01*
X176539151Y-86075954D01*
X176715141Y-86096939D01*
X176724768Y-86097141D01*
X176901479Y-86083544D01*
X176910970Y-86081870D01*
X177081675Y-86034208D01*
X177090655Y-86030726D01*
X177200580Y-85975198D01*
X177208618Y-85967216D01*
X177203425Y-85956979D01*
X176751089Y-85504642D01*
X176739202Y-85498585D01*
X176734172Y-85499381D01*
X176277444Y-85956110D01*
X176271966Y-85966862D01*
X172128438Y-85966862D01*
X172123425Y-85956979D01*
X171671089Y-85504642D01*
X171659202Y-85498585D01*
X171654172Y-85499381D01*
X171197444Y-85956110D01*
X171191966Y-85966862D01*
X146037109Y-85966862D01*
X146037706Y-85131448D01*
X170702776Y-85131448D01*
X170717607Y-85308068D01*
X170719345Y-85317536D01*
X170768198Y-85487904D01*
X170771749Y-85496872D01*
X170824945Y-85600383D01*
X170833076Y-85608457D01*
X170843138Y-85603308D01*
X171295358Y-85151089D01*
X171300602Y-85140798D01*
X172018585Y-85140798D01*
X172019381Y-85145828D01*
X172476077Y-85602523D01*
X172486935Y-85608055D01*
X172494342Y-85600977D01*
X172532534Y-85533747D01*
X172536449Y-85524952D01*
X172592395Y-85356773D01*
X172594529Y-85347379D01*
X172617001Y-85169493D01*
X172617388Y-85163968D01*
X172617683Y-85142771D01*
X172617451Y-85137241D01*
X172616883Y-85131448D01*
X175782776Y-85131448D01*
X175797607Y-85308068D01*
X175799345Y-85317536D01*
X175848198Y-85487904D01*
X175851749Y-85496872D01*
X175904945Y-85600383D01*
X175913076Y-85608457D01*
X175923138Y-85603308D01*
X176375358Y-85151089D01*
X176381415Y-85139202D01*
X176380619Y-85134172D01*
X175923822Y-84677376D01*
X175913178Y-84671952D01*
X175905564Y-84679331D01*
X175862055Y-84758473D01*
X175858261Y-84767325D01*
X175804673Y-84936258D01*
X175802667Y-84945695D01*
X175782910Y-85121820D01*
X175782776Y-85131448D01*
X172616883Y-85131448D01*
X172599954Y-84958795D01*
X172598084Y-84949347D01*
X172546856Y-84779672D01*
X172543186Y-84770768D01*
X172494868Y-84679894D01*
X172486449Y-84671764D01*
X172476732Y-84676822D01*
X172024642Y-85128911D01*
X172018585Y-85140798D01*
X171300602Y-85140798D01*
X171301415Y-85139202D01*
X171300619Y-85134172D01*
X170843822Y-84677376D01*
X170833178Y-84671952D01*
X170825564Y-84679331D01*
X170782055Y-84758473D01*
X170778261Y-84767325D01*
X170724673Y-84936258D01*
X170722667Y-84945695D01*
X170702910Y-85121820D01*
X170702776Y-85131448D01*
X146037706Y-85131448D01*
X146038291Y-84313331D01*
X171191671Y-84313331D01*
X171196776Y-84323222D01*
X171648911Y-84775358D01*
X171660798Y-84781415D01*
X171665828Y-84780619D01*
X172122727Y-84323719D01*
X172128020Y-84313331D01*
X176271671Y-84313331D01*
X176276776Y-84323222D01*
X176728911Y-84775358D01*
X176740798Y-84781415D01*
X176745828Y-84780619D01*
X177202727Y-84323719D01*
X177208096Y-84313182D01*
X177200567Y-84305468D01*
X177115396Y-84259416D01*
X177106506Y-84255679D01*
X176937198Y-84203269D01*
X176927766Y-84201333D01*
X176751502Y-84182807D01*
X176741864Y-84182740D01*
X176565361Y-84198803D01*
X176555895Y-84200609D01*
X176385878Y-84250648D01*
X176376937Y-84254261D01*
X176279774Y-84305056D01*
X176271671Y-84313331D01*
X172128020Y-84313331D01*
X172128096Y-84313182D01*
X172120567Y-84305468D01*
X172035396Y-84259416D01*
X172026506Y-84255679D01*
X171857198Y-84203269D01*
X171847766Y-84201333D01*
X171671502Y-84182807D01*
X171661864Y-84182740D01*
X171485361Y-84198803D01*
X171475895Y-84200609D01*
X171305878Y-84250648D01*
X171296937Y-84254261D01*
X171199774Y-84305056D01*
X171191671Y-84313331D01*
X146038291Y-84313331D01*
X146039525Y-82586621D01*
X173241869Y-82586621D01*
X173257518Y-82772978D01*
X173309066Y-82952746D01*
X173394549Y-83119078D01*
X173510711Y-83265638D01*
X173514391Y-83268770D01*
X173514393Y-83268772D01*
X173616349Y-83355543D01*
X173653129Y-83386845D01*
X173657352Y-83389205D01*
X173657356Y-83389208D01*
X173763246Y-83448388D01*
X173816376Y-83478081D01*
X173820974Y-83479575D01*
X173989630Y-83534375D01*
X173989632Y-83534376D01*
X173994235Y-83535871D01*
X174179932Y-83558014D01*
X174184754Y-83557643D01*
X174184756Y-83557643D01*
X174361566Y-83544038D01*
X174361571Y-83544037D01*
X174366394Y-83543666D01*
X174546517Y-83493375D01*
X174550835Y-83491194D01*
X174709121Y-83411238D01*
X174709123Y-83411237D01*
X174713442Y-83409055D01*
X174745886Y-83383707D01*
X174856995Y-83296900D01*
X174856997Y-83296898D01*
X174860810Y-83293919D01*
X174983008Y-83152351D01*
X175075381Y-82989745D01*
X175134412Y-82812293D01*
X175157850Y-82626755D01*
X175158224Y-82600000D01*
X175156441Y-82581813D01*
X175140447Y-82418690D01*
X175140446Y-82418686D01*
X175139975Y-82413880D01*
X175134625Y-82396159D01*
X175087321Y-82239481D01*
X175087319Y-82239476D01*
X175085922Y-82234849D01*
X174998125Y-82069727D01*
X174879928Y-81924803D01*
X174735832Y-81805596D01*
X174571327Y-81716649D01*
X174562108Y-81713795D01*
X174507781Y-81696978D01*
X174392678Y-81661347D01*
X174387868Y-81660841D01*
X174387866Y-81660841D01*
X174211506Y-81642305D01*
X174211504Y-81642305D01*
X174206690Y-81641799D01*
X174147030Y-81647229D01*
X174025267Y-81658310D01*
X174025264Y-81658311D01*
X174020447Y-81658749D01*
X174015805Y-81660115D01*
X174015801Y-81660116D01*
X173845690Y-81710182D01*
X173845687Y-81710183D01*
X173841043Y-81711550D01*
X173831290Y-81716649D01*
X173679609Y-81795945D01*
X173679605Y-81795948D01*
X173675312Y-81798192D01*
X173671536Y-81801228D01*
X173671533Y-81801230D01*
X173540139Y-81906874D01*
X173529566Y-81915375D01*
X173526457Y-81919080D01*
X173526454Y-81919083D01*
X173418535Y-82047696D01*
X173409356Y-82058635D01*
X173319262Y-82222515D01*
X173317799Y-82227128D01*
X173317797Y-82227132D01*
X173315349Y-82234849D01*
X173262715Y-82400774D01*
X173262175Y-82405586D01*
X173262175Y-82405587D01*
X173254997Y-82469585D01*
X173241869Y-82586621D01*
X146039525Y-82586621D01*
X146039915Y-82040000D01*
X156304196Y-82040000D01*
X156325281Y-82173126D01*
X156328817Y-82180065D01*
X156328817Y-82180066D01*
X156359091Y-82239481D01*
X156386472Y-82293220D01*
X156481780Y-82388528D01*
X156488717Y-82392063D01*
X156488719Y-82392064D01*
X156515260Y-82405587D01*
X156601874Y-82449719D01*
X156609568Y-82450938D01*
X156609569Y-82450938D01*
X156727304Y-82469585D01*
X156735000Y-82470804D01*
X156742696Y-82469585D01*
X156860431Y-82450938D01*
X156860432Y-82450938D01*
X156868126Y-82449719D01*
X156954740Y-82405587D01*
X156981281Y-82392064D01*
X156981283Y-82392063D01*
X156988220Y-82388528D01*
X157083528Y-82293220D01*
X157110910Y-82239481D01*
X157141183Y-82180066D01*
X157141183Y-82180065D01*
X157144719Y-82173126D01*
X157165804Y-82040000D01*
X157146653Y-81919083D01*
X157145938Y-81914569D01*
X157145938Y-81914568D01*
X157144719Y-81906874D01*
X157094686Y-81808679D01*
X157087064Y-81793719D01*
X157087063Y-81793717D01*
X157083528Y-81786780D01*
X156988220Y-81691472D01*
X156981283Y-81687937D01*
X156981281Y-81687936D01*
X156875066Y-81633817D01*
X156875065Y-81633817D01*
X156868126Y-81630281D01*
X156860432Y-81629062D01*
X156860431Y-81629062D01*
X156742696Y-81610415D01*
X156735000Y-81609196D01*
X156727304Y-81610415D01*
X156609569Y-81629062D01*
X156609568Y-81629062D01*
X156601874Y-81630281D01*
X156594935Y-81633817D01*
X156594934Y-81633817D01*
X156488719Y-81687936D01*
X156488717Y-81687937D01*
X156481780Y-81691472D01*
X156386472Y-81786780D01*
X156382937Y-81793717D01*
X156382936Y-81793719D01*
X156375314Y-81808679D01*
X156325281Y-81906874D01*
X156324062Y-81914568D01*
X156324062Y-81914569D01*
X156323347Y-81919083D01*
X156304196Y-82040000D01*
X146039915Y-82040000D01*
X146040738Y-80886862D01*
X171191966Y-80886862D01*
X171199194Y-80894373D01*
X171272353Y-80935260D01*
X171281175Y-80939115D01*
X171449738Y-80993885D01*
X171459151Y-80995954D01*
X171635141Y-81016939D01*
X171644768Y-81017141D01*
X171821479Y-81003544D01*
X171830970Y-81001870D01*
X172001675Y-80954208D01*
X172010655Y-80950726D01*
X172120580Y-80895198D01*
X172128618Y-80887216D01*
X172128438Y-80886862D01*
X176271966Y-80886862D01*
X176279194Y-80894373D01*
X176352353Y-80935260D01*
X176361175Y-80939115D01*
X176529738Y-80993885D01*
X176539151Y-80995954D01*
X176715141Y-81016939D01*
X176724768Y-81017141D01*
X176901479Y-81003544D01*
X176910970Y-81001870D01*
X177081675Y-80954208D01*
X177090655Y-80950726D01*
X177200580Y-80895198D01*
X177208618Y-80887216D01*
X177203425Y-80876979D01*
X176751089Y-80424642D01*
X176739202Y-80418585D01*
X176734172Y-80419381D01*
X176277444Y-80876110D01*
X176271966Y-80886862D01*
X172128438Y-80886862D01*
X172123425Y-80876979D01*
X171671089Y-80424642D01*
X171659202Y-80418585D01*
X171654172Y-80419381D01*
X171197444Y-80876110D01*
X171191966Y-80886862D01*
X146040738Y-80886862D01*
X146041335Y-80051448D01*
X170702776Y-80051448D01*
X170717607Y-80228068D01*
X170719345Y-80237536D01*
X170768198Y-80407904D01*
X170771749Y-80416872D01*
X170824945Y-80520383D01*
X170833076Y-80528457D01*
X170843138Y-80523308D01*
X171295358Y-80071089D01*
X171300602Y-80060798D01*
X172018585Y-80060798D01*
X172019381Y-80065828D01*
X172476077Y-80522523D01*
X172486935Y-80528055D01*
X172494342Y-80520977D01*
X172532534Y-80453747D01*
X172536449Y-80444952D01*
X172592395Y-80276773D01*
X172594529Y-80267379D01*
X172617001Y-80089493D01*
X172617388Y-80083968D01*
X172617683Y-80062771D01*
X172617451Y-80057241D01*
X172616883Y-80051448D01*
X175782776Y-80051448D01*
X175797607Y-80228068D01*
X175799345Y-80237536D01*
X175848198Y-80407904D01*
X175851749Y-80416872D01*
X175904945Y-80520383D01*
X175913076Y-80528457D01*
X175923138Y-80523308D01*
X176375358Y-80071089D01*
X176381415Y-80059202D01*
X176380619Y-80054172D01*
X175923822Y-79597376D01*
X175913178Y-79591952D01*
X175905564Y-79599331D01*
X175862055Y-79678473D01*
X175858261Y-79687325D01*
X175804673Y-79856258D01*
X175802667Y-79865695D01*
X175782910Y-80041820D01*
X175782776Y-80051448D01*
X172616883Y-80051448D01*
X172599954Y-79878795D01*
X172598084Y-79869347D01*
X172546856Y-79699672D01*
X172543186Y-79690768D01*
X172494868Y-79599894D01*
X172486449Y-79591764D01*
X172476732Y-79596822D01*
X172024642Y-80048911D01*
X172018585Y-80060798D01*
X171300602Y-80060798D01*
X171301415Y-80059202D01*
X171300619Y-80054172D01*
X170843822Y-79597376D01*
X170833178Y-79591952D01*
X170825564Y-79599331D01*
X170782055Y-79678473D01*
X170778261Y-79687325D01*
X170724673Y-79856258D01*
X170722667Y-79865695D01*
X170702910Y-80041820D01*
X170702776Y-80051448D01*
X146041335Y-80051448D01*
X146041919Y-79233331D01*
X171191671Y-79233331D01*
X171196776Y-79243222D01*
X171648911Y-79695358D01*
X171660798Y-79701415D01*
X171665828Y-79700619D01*
X172122727Y-79243719D01*
X172128096Y-79233182D01*
X172120567Y-79225468D01*
X172035396Y-79179416D01*
X172026506Y-79175679D01*
X171857198Y-79123269D01*
X171847766Y-79121333D01*
X171671502Y-79102807D01*
X171661864Y-79102740D01*
X171485361Y-79118803D01*
X171475895Y-79120609D01*
X171305878Y-79170648D01*
X171296937Y-79174261D01*
X171199774Y-79225056D01*
X171191671Y-79233331D01*
X146041919Y-79233331D01*
X146042095Y-78987000D01*
X173327196Y-78987000D01*
X173348281Y-79120126D01*
X173351817Y-79127065D01*
X173351817Y-79127066D01*
X173401746Y-79225056D01*
X173409472Y-79240220D01*
X173504780Y-79335528D01*
X173511717Y-79339063D01*
X173511719Y-79339064D01*
X173617934Y-79393183D01*
X173624874Y-79396719D01*
X173632568Y-79397938D01*
X173632569Y-79397938D01*
X173750304Y-79416585D01*
X173758000Y-79417804D01*
X173765696Y-79416585D01*
X173883431Y-79397938D01*
X173883432Y-79397938D01*
X173891126Y-79396719D01*
X174011220Y-79335528D01*
X174016726Y-79330022D01*
X174017311Y-79329597D01*
X174075502Y-79310691D01*
X174133689Y-79329597D01*
X174134274Y-79330022D01*
X174139780Y-79335528D01*
X174259874Y-79396719D01*
X174267568Y-79397938D01*
X174267569Y-79397938D01*
X174385304Y-79416585D01*
X174393000Y-79417804D01*
X174400696Y-79416585D01*
X174518431Y-79397938D01*
X174518432Y-79397938D01*
X174526126Y-79396719D01*
X174646220Y-79335528D01*
X174651726Y-79330022D01*
X174652311Y-79329597D01*
X174710502Y-79310691D01*
X174768689Y-79329597D01*
X174769274Y-79330022D01*
X174774780Y-79335528D01*
X174894874Y-79396719D01*
X174902568Y-79397938D01*
X174902569Y-79397938D01*
X175020304Y-79416585D01*
X175028000Y-79417804D01*
X175035696Y-79416585D01*
X175153431Y-79397938D01*
X175153432Y-79397938D01*
X175161126Y-79396719D01*
X175168066Y-79393183D01*
X175274281Y-79339064D01*
X175274283Y-79339063D01*
X175281220Y-79335528D01*
X175376528Y-79240220D01*
X175380038Y-79233331D01*
X176271671Y-79233331D01*
X176276776Y-79243222D01*
X176728911Y-79695358D01*
X176740798Y-79701415D01*
X176745828Y-79700619D01*
X177202727Y-79243719D01*
X177208096Y-79233182D01*
X177200567Y-79225468D01*
X177115396Y-79179416D01*
X177106506Y-79175679D01*
X176937198Y-79123269D01*
X176927766Y-79121333D01*
X176751502Y-79102807D01*
X176741864Y-79102740D01*
X176565361Y-79118803D01*
X176555895Y-79120609D01*
X176385878Y-79170648D01*
X176376937Y-79174261D01*
X176279774Y-79225056D01*
X176271671Y-79233331D01*
X175380038Y-79233331D01*
X175384255Y-79225056D01*
X175434183Y-79127066D01*
X175434183Y-79127065D01*
X175437719Y-79120126D01*
X175458804Y-78987000D01*
X175437719Y-78853874D01*
X175376528Y-78733780D01*
X175281220Y-78638472D01*
X175274283Y-78634937D01*
X175274281Y-78634936D01*
X175168066Y-78580817D01*
X175168065Y-78580817D01*
X175161126Y-78577281D01*
X175153432Y-78576062D01*
X175153431Y-78576062D01*
X175035696Y-78557415D01*
X175028000Y-78556196D01*
X175020304Y-78557415D01*
X174902569Y-78576062D01*
X174902568Y-78576062D01*
X174894874Y-78577281D01*
X174774780Y-78638472D01*
X174769274Y-78643978D01*
X174768689Y-78644403D01*
X174710498Y-78663309D01*
X174652311Y-78644403D01*
X174651726Y-78643978D01*
X174646220Y-78638472D01*
X174526126Y-78577281D01*
X174518432Y-78576062D01*
X174518431Y-78576062D01*
X174400696Y-78557415D01*
X174393000Y-78556196D01*
X174385304Y-78557415D01*
X174267569Y-78576062D01*
X174267568Y-78576062D01*
X174259874Y-78577281D01*
X174139780Y-78638472D01*
X174134274Y-78643978D01*
X174133689Y-78644403D01*
X174075498Y-78663309D01*
X174017311Y-78644403D01*
X174016726Y-78643978D01*
X174011220Y-78638472D01*
X173891126Y-78577281D01*
X173883432Y-78576062D01*
X173883431Y-78576062D01*
X173765696Y-78557415D01*
X173758000Y-78556196D01*
X173750304Y-78557415D01*
X173632569Y-78576062D01*
X173632568Y-78576062D01*
X173624874Y-78577281D01*
X173617935Y-78580817D01*
X173617934Y-78580817D01*
X173511719Y-78634936D01*
X173511717Y-78634937D01*
X173504780Y-78638472D01*
X173409472Y-78733780D01*
X173348281Y-78853874D01*
X173327196Y-78987000D01*
X146042095Y-78987000D01*
X146044545Y-75558000D01*
X163294196Y-75558000D01*
X163315281Y-75691126D01*
X163376472Y-75811220D01*
X163471780Y-75906528D01*
X163478717Y-75910063D01*
X163478719Y-75910064D01*
X163550614Y-75946696D01*
X163591874Y-75967719D01*
X163599568Y-75968938D01*
X163599569Y-75968938D01*
X163717304Y-75987585D01*
X163725000Y-75988804D01*
X163732696Y-75987585D01*
X163850431Y-75968938D01*
X163850432Y-75968938D01*
X163858126Y-75967719D01*
X163899386Y-75946696D01*
X163952275Y-75919748D01*
X165595500Y-75919748D01*
X165600548Y-75945126D01*
X165604339Y-75964183D01*
X165607133Y-75978231D01*
X165651448Y-76044552D01*
X165717769Y-76088867D01*
X165727332Y-76090769D01*
X165727334Y-76090770D01*
X165750005Y-76095279D01*
X165776252Y-76100500D01*
X167515748Y-76100500D01*
X167541995Y-76095279D01*
X167564666Y-76090770D01*
X167564668Y-76090769D01*
X167574231Y-76088867D01*
X167640552Y-76044552D01*
X167684867Y-75978231D01*
X167687662Y-75964183D01*
X167691452Y-75945126D01*
X167692671Y-75939000D01*
X173073196Y-75939000D01*
X173077185Y-75964183D01*
X173092557Y-76061239D01*
X173094281Y-76072126D01*
X173097817Y-76079065D01*
X173097817Y-76079066D01*
X173141126Y-76164064D01*
X173155472Y-76192220D01*
X173250780Y-76287528D01*
X173257717Y-76291063D01*
X173257719Y-76291064D01*
X173363934Y-76345183D01*
X173370874Y-76348719D01*
X173378568Y-76349938D01*
X173378569Y-76349938D01*
X173496304Y-76368585D01*
X173504000Y-76369804D01*
X173511696Y-76368585D01*
X173629431Y-76349938D01*
X173629432Y-76349938D01*
X173637126Y-76348719D01*
X173644066Y-76345183D01*
X173750281Y-76291064D01*
X173750283Y-76291063D01*
X173757220Y-76287528D01*
X173852528Y-76192220D01*
X173856064Y-76185281D01*
X173860645Y-76178975D01*
X173861934Y-76179911D01*
X173898805Y-76143036D01*
X173959237Y-76133461D01*
X174001945Y-76151150D01*
X174007273Y-76155021D01*
X174012780Y-76160528D01*
X174132874Y-76221719D01*
X174140568Y-76222938D01*
X174140569Y-76222938D01*
X174258304Y-76241585D01*
X174266000Y-76242804D01*
X174273696Y-76241585D01*
X174391431Y-76222938D01*
X174391432Y-76222938D01*
X174399126Y-76221719D01*
X174483016Y-76178975D01*
X174512281Y-76164064D01*
X174512283Y-76164063D01*
X174519220Y-76160528D01*
X174614528Y-76065220D01*
X174654720Y-75986340D01*
X174672183Y-75952066D01*
X174672183Y-75952065D01*
X174675719Y-75945126D01*
X174679739Y-75919748D01*
X174695585Y-75819696D01*
X174696804Y-75812000D01*
X174677660Y-75691126D01*
X174676938Y-75686569D01*
X174676938Y-75686568D01*
X174675719Y-75678874D01*
X174639589Y-75607964D01*
X174618064Y-75565719D01*
X174618063Y-75565717D01*
X174614528Y-75558780D01*
X174519220Y-75463472D01*
X174512283Y-75459937D01*
X174512281Y-75459936D01*
X174406066Y-75405817D01*
X174406065Y-75405817D01*
X174399126Y-75402281D01*
X174391432Y-75401062D01*
X174391431Y-75401062D01*
X174273696Y-75382415D01*
X174266000Y-75381196D01*
X174258304Y-75382415D01*
X174140569Y-75401062D01*
X174140568Y-75401062D01*
X174132874Y-75402281D01*
X174125935Y-75405817D01*
X174125934Y-75405817D01*
X174019719Y-75459936D01*
X174019717Y-75459937D01*
X174012780Y-75463472D01*
X173917472Y-75558780D01*
X173913936Y-75565719D01*
X173909355Y-75572025D01*
X173908066Y-75571089D01*
X173871195Y-75607964D01*
X173810763Y-75617539D01*
X173768055Y-75599850D01*
X173762726Y-75595978D01*
X173757220Y-75590472D01*
X173637126Y-75529281D01*
X173629432Y-75528062D01*
X173629431Y-75528062D01*
X173511696Y-75509415D01*
X173504000Y-75508196D01*
X173496304Y-75509415D01*
X173378569Y-75528062D01*
X173378568Y-75528062D01*
X173370874Y-75529281D01*
X173363935Y-75532817D01*
X173363934Y-75532817D01*
X173257719Y-75586936D01*
X173257717Y-75586937D01*
X173250780Y-75590472D01*
X173155472Y-75685780D01*
X173094281Y-75805874D01*
X173073196Y-75939000D01*
X167692671Y-75939000D01*
X167696500Y-75919748D01*
X167696500Y-74180252D01*
X167684867Y-74121769D01*
X167640552Y-74055448D01*
X167574231Y-74011133D01*
X167564668Y-74009231D01*
X167564666Y-74009230D01*
X167541995Y-74004721D01*
X167515748Y-73999500D01*
X165776252Y-73999500D01*
X165750005Y-74004721D01*
X165727334Y-74009230D01*
X165727332Y-74009231D01*
X165717769Y-74011133D01*
X165651448Y-74055448D01*
X165607133Y-74121769D01*
X165595500Y-74180252D01*
X165595500Y-75919748D01*
X163952275Y-75919748D01*
X163971281Y-75910064D01*
X163971283Y-75910063D01*
X163978220Y-75906528D01*
X164073528Y-75811220D01*
X164134719Y-75691126D01*
X164155804Y-75558000D01*
X164134719Y-75424874D01*
X164073528Y-75304780D01*
X163978220Y-75209472D01*
X163971283Y-75205937D01*
X163971281Y-75205936D01*
X163865066Y-75151817D01*
X163865065Y-75151817D01*
X163858126Y-75148281D01*
X163850432Y-75147062D01*
X163850431Y-75147062D01*
X163732696Y-75128415D01*
X163725000Y-75127196D01*
X163717304Y-75128415D01*
X163599569Y-75147062D01*
X163599568Y-75147062D01*
X163591874Y-75148281D01*
X163584935Y-75151817D01*
X163584934Y-75151817D01*
X163478719Y-75205936D01*
X163478717Y-75205937D01*
X163471780Y-75209472D01*
X163376472Y-75304780D01*
X163315281Y-75424874D01*
X163294196Y-75558000D01*
X146044545Y-75558000D01*
X146046722Y-72510000D01*
X147800196Y-72510000D01*
X147801415Y-72517696D01*
X147812423Y-72587196D01*
X147821281Y-72643126D01*
X147824817Y-72650065D01*
X147824817Y-72650066D01*
X147864352Y-72727657D01*
X147882472Y-72763220D01*
X147977780Y-72858528D01*
X147984717Y-72862063D01*
X147984719Y-72862064D01*
X148090934Y-72916183D01*
X148097874Y-72919719D01*
X148105568Y-72920938D01*
X148105569Y-72920938D01*
X148223304Y-72939585D01*
X148231000Y-72940804D01*
X148238696Y-72939585D01*
X148356431Y-72920938D01*
X148356432Y-72920938D01*
X148364126Y-72919719D01*
X148371066Y-72916183D01*
X148418332Y-72892100D01*
X170915296Y-72892100D01*
X170936381Y-73025226D01*
X170939917Y-73032165D01*
X170939917Y-73032166D01*
X170993883Y-73138079D01*
X170997572Y-73145320D01*
X171092880Y-73240628D01*
X171099817Y-73244163D01*
X171099819Y-73244164D01*
X171152920Y-73271220D01*
X171212974Y-73301819D01*
X171220668Y-73303038D01*
X171220669Y-73303038D01*
X171309122Y-73317047D01*
X171331459Y-73320585D01*
X171338404Y-73321685D01*
X171346100Y-73322904D01*
X171353796Y-73321685D01*
X171360742Y-73320585D01*
X171383078Y-73317047D01*
X171471531Y-73303038D01*
X171471532Y-73303038D01*
X171479226Y-73301819D01*
X171539280Y-73271220D01*
X171592381Y-73244164D01*
X171592383Y-73244163D01*
X171599320Y-73240628D01*
X171694628Y-73145320D01*
X171698318Y-73138079D01*
X171751391Y-73033916D01*
X171794656Y-72990651D01*
X171855088Y-72981080D01*
X171909604Y-73008857D01*
X171937382Y-73063374D01*
X171949262Y-73138381D01*
X171951281Y-73151126D01*
X171954817Y-73158065D01*
X171954817Y-73158066D01*
X171998126Y-73243064D01*
X172012472Y-73271220D01*
X172107780Y-73366528D01*
X172114717Y-73370063D01*
X172114719Y-73370064D01*
X172220934Y-73424183D01*
X172227874Y-73427719D01*
X172235568Y-73428938D01*
X172235569Y-73428938D01*
X172353304Y-73447585D01*
X172361000Y-73448804D01*
X172368696Y-73447585D01*
X172486431Y-73428938D01*
X172486432Y-73428938D01*
X172494126Y-73427719D01*
X172501066Y-73424183D01*
X172607281Y-73370064D01*
X172607283Y-73370063D01*
X172614220Y-73366528D01*
X172709528Y-73271220D01*
X172725116Y-73240628D01*
X172729059Y-73232888D01*
X172755323Y-73181342D01*
X172798586Y-73138079D01*
X172859018Y-73128507D01*
X172913536Y-73156284D01*
X172996780Y-73239528D01*
X173003717Y-73243063D01*
X173003719Y-73243064D01*
X173045360Y-73264281D01*
X173116874Y-73300719D01*
X173124568Y-73301938D01*
X173124569Y-73301938D01*
X173242304Y-73320585D01*
X173250000Y-73321804D01*
X173257696Y-73320585D01*
X173375431Y-73301938D01*
X173375432Y-73301938D01*
X173383126Y-73300719D01*
X173454640Y-73264281D01*
X173496281Y-73243064D01*
X173496283Y-73243063D01*
X173503220Y-73239528D01*
X173598528Y-73144220D01*
X173606535Y-73128507D01*
X173656183Y-73031066D01*
X173656183Y-73031065D01*
X173659719Y-73024126D01*
X173662138Y-73008857D01*
X173679585Y-72898696D01*
X173680804Y-72891000D01*
X173673792Y-72846726D01*
X173660938Y-72765569D01*
X173660938Y-72765568D01*
X173659719Y-72757874D01*
X173622886Y-72685585D01*
X173602064Y-72644719D01*
X173602063Y-72644717D01*
X173598528Y-72637780D01*
X173503220Y-72542472D01*
X173496283Y-72538937D01*
X173496281Y-72538936D01*
X173390066Y-72484817D01*
X173390065Y-72484817D01*
X173383126Y-72481281D01*
X173375432Y-72480062D01*
X173375431Y-72480062D01*
X173286978Y-72466053D01*
X173250000Y-72460196D01*
X173213022Y-72466053D01*
X173124569Y-72480062D01*
X173124568Y-72480062D01*
X173116874Y-72481281D01*
X173109935Y-72484817D01*
X173109934Y-72484817D01*
X173003719Y-72538936D01*
X173003717Y-72538937D01*
X172996780Y-72542472D01*
X172901472Y-72637780D01*
X172855677Y-72727658D01*
X172812414Y-72770921D01*
X172751982Y-72780493D01*
X172697464Y-72752716D01*
X172614220Y-72669472D01*
X172607283Y-72665937D01*
X172607281Y-72665936D01*
X172501066Y-72611817D01*
X172501065Y-72611817D01*
X172494126Y-72608281D01*
X172486432Y-72607062D01*
X172486431Y-72607062D01*
X172368696Y-72588415D01*
X172361000Y-72587196D01*
X172353304Y-72588415D01*
X172235569Y-72607062D01*
X172235568Y-72607062D01*
X172227874Y-72608281D01*
X172220935Y-72611817D01*
X172220934Y-72611817D01*
X172114719Y-72665936D01*
X172114717Y-72665937D01*
X172107780Y-72669472D01*
X172012472Y-72764780D01*
X172008937Y-72771717D01*
X172008936Y-72771719D01*
X171974606Y-72839095D01*
X171967511Y-72853022D01*
X171955709Y-72876184D01*
X171912444Y-72919449D01*
X171852012Y-72929020D01*
X171797496Y-72901243D01*
X171769718Y-72846726D01*
X171757038Y-72766669D01*
X171757038Y-72766668D01*
X171755819Y-72758974D01*
X171752283Y-72752034D01*
X171698164Y-72645819D01*
X171698163Y-72645817D01*
X171694628Y-72638880D01*
X171599320Y-72543572D01*
X171592383Y-72540037D01*
X171592381Y-72540036D01*
X171486166Y-72485917D01*
X171486165Y-72485917D01*
X171479226Y-72482381D01*
X171471532Y-72481162D01*
X171471531Y-72481162D01*
X171353796Y-72462515D01*
X171346100Y-72461296D01*
X171338404Y-72462515D01*
X171220669Y-72481162D01*
X171220668Y-72481162D01*
X171212974Y-72482381D01*
X171206035Y-72485917D01*
X171206034Y-72485917D01*
X171099819Y-72540036D01*
X171099817Y-72540037D01*
X171092880Y-72543572D01*
X170997572Y-72638880D01*
X170994037Y-72645817D01*
X170994036Y-72645819D01*
X170939917Y-72752034D01*
X170936381Y-72758974D01*
X170935162Y-72766668D01*
X170935162Y-72766669D01*
X170921485Y-72853022D01*
X170915296Y-72892100D01*
X148418332Y-72892100D01*
X148477281Y-72862064D01*
X148477283Y-72862063D01*
X148484220Y-72858528D01*
X148579528Y-72763220D01*
X148597649Y-72727657D01*
X148637183Y-72650066D01*
X148637183Y-72650065D01*
X148640719Y-72643126D01*
X148649578Y-72587196D01*
X148660585Y-72517696D01*
X148661804Y-72510000D01*
X148640719Y-72376874D01*
X148579528Y-72256780D01*
X148578748Y-72256000D01*
X169136196Y-72256000D01*
X169157281Y-72389126D01*
X169160817Y-72396065D01*
X169160817Y-72396066D01*
X169206599Y-72485917D01*
X169218472Y-72509220D01*
X169313780Y-72604528D01*
X169320717Y-72608063D01*
X169320719Y-72608064D01*
X169392659Y-72644719D01*
X169433874Y-72665719D01*
X169441568Y-72666938D01*
X169441569Y-72666938D01*
X169559304Y-72685585D01*
X169567000Y-72686804D01*
X169574696Y-72685585D01*
X169692431Y-72666938D01*
X169692432Y-72666938D01*
X169700126Y-72665719D01*
X169741341Y-72644719D01*
X169813281Y-72608064D01*
X169813283Y-72608063D01*
X169820220Y-72604528D01*
X169915528Y-72509220D01*
X169927402Y-72485917D01*
X169973183Y-72396066D01*
X169973183Y-72396065D01*
X169976719Y-72389126D01*
X169997804Y-72256000D01*
X169976719Y-72122874D01*
X169915528Y-72002780D01*
X169820220Y-71907472D01*
X169813283Y-71903937D01*
X169813281Y-71903936D01*
X169707066Y-71849817D01*
X169707065Y-71849817D01*
X169700126Y-71846281D01*
X169692432Y-71845062D01*
X169692431Y-71845062D01*
X169574696Y-71826415D01*
X169567000Y-71825196D01*
X169559304Y-71826415D01*
X169441569Y-71845062D01*
X169441568Y-71845062D01*
X169433874Y-71846281D01*
X169426935Y-71849817D01*
X169426934Y-71849817D01*
X169320719Y-71903936D01*
X169320717Y-71903937D01*
X169313780Y-71907472D01*
X169218472Y-72002780D01*
X169157281Y-72122874D01*
X169136196Y-72256000D01*
X148578748Y-72256000D01*
X148484220Y-72161472D01*
X148477283Y-72157937D01*
X148477281Y-72157936D01*
X148371066Y-72103817D01*
X148371065Y-72103817D01*
X148364126Y-72100281D01*
X148356432Y-72099062D01*
X148356431Y-72099062D01*
X148238696Y-72080415D01*
X148231000Y-72079196D01*
X148223304Y-72080415D01*
X148105569Y-72099062D01*
X148105568Y-72099062D01*
X148097874Y-72100281D01*
X148090935Y-72103817D01*
X148090934Y-72103817D01*
X147984719Y-72157936D01*
X147984717Y-72157937D01*
X147977780Y-72161472D01*
X147882472Y-72256780D01*
X147821281Y-72376874D01*
X147800196Y-72510000D01*
X146046722Y-72510000D01*
X146048967Y-69366862D01*
X171191966Y-69366862D01*
X171199194Y-69374373D01*
X171272353Y-69415260D01*
X171281175Y-69419115D01*
X171449738Y-69473885D01*
X171459151Y-69475954D01*
X171635141Y-69496939D01*
X171644768Y-69497141D01*
X171821479Y-69483544D01*
X171830970Y-69481870D01*
X172001675Y-69434208D01*
X172010655Y-69430726D01*
X172120580Y-69375198D01*
X172128618Y-69367216D01*
X172128438Y-69366862D01*
X176271966Y-69366862D01*
X176279194Y-69374373D01*
X176352353Y-69415260D01*
X176361175Y-69419115D01*
X176529738Y-69473885D01*
X176539151Y-69475954D01*
X176715141Y-69496939D01*
X176724768Y-69497141D01*
X176901479Y-69483544D01*
X176910970Y-69481870D01*
X177081675Y-69434208D01*
X177090655Y-69430726D01*
X177200580Y-69375198D01*
X177208618Y-69367216D01*
X177203425Y-69356979D01*
X176751089Y-68904642D01*
X176739202Y-68898585D01*
X176734172Y-68899381D01*
X176277444Y-69356110D01*
X176271966Y-69366862D01*
X172128438Y-69366862D01*
X172123425Y-69356979D01*
X171671089Y-68904642D01*
X171659202Y-68898585D01*
X171654172Y-68899381D01*
X171197444Y-69356110D01*
X171191966Y-69366862D01*
X146048967Y-69366862D01*
X146049534Y-68573000D01*
X150975196Y-68573000D01*
X150996281Y-68706126D01*
X151057472Y-68826220D01*
X151152780Y-68921528D01*
X151159717Y-68925063D01*
X151159719Y-68925064D01*
X151242828Y-68967410D01*
X151272874Y-68982719D01*
X151280568Y-68983938D01*
X151280569Y-68983938D01*
X151369022Y-68997947D01*
X151397913Y-69002523D01*
X151398304Y-69002585D01*
X151406000Y-69003804D01*
X151413696Y-69002585D01*
X151414088Y-69002523D01*
X151442978Y-68997947D01*
X151531431Y-68983938D01*
X151531432Y-68983938D01*
X151539126Y-68982719D01*
X151569172Y-68967410D01*
X151652281Y-68925064D01*
X151652283Y-68925063D01*
X151659220Y-68921528D01*
X151754528Y-68826220D01*
X151815719Y-68706126D01*
X151836804Y-68573000D01*
X152118196Y-68573000D01*
X152139281Y-68706126D01*
X152200472Y-68826220D01*
X152295780Y-68921528D01*
X152302717Y-68925063D01*
X152302719Y-68925064D01*
X152385828Y-68967410D01*
X152415874Y-68982719D01*
X152423568Y-68983938D01*
X152423569Y-68983938D01*
X152512022Y-68997947D01*
X152540913Y-69002523D01*
X152541304Y-69002585D01*
X152549000Y-69003804D01*
X152556696Y-69002585D01*
X152557088Y-69002523D01*
X152585978Y-68997947D01*
X152674431Y-68983938D01*
X152674432Y-68983938D01*
X152682126Y-68982719D01*
X152712172Y-68967410D01*
X152795281Y-68925064D01*
X152795283Y-68925063D01*
X152802220Y-68921528D01*
X152897528Y-68826220D01*
X152958719Y-68706126D01*
X152979804Y-68573000D01*
X152973223Y-68531448D01*
X170702776Y-68531448D01*
X170717607Y-68708068D01*
X170719345Y-68717536D01*
X170768198Y-68887904D01*
X170771749Y-68896872D01*
X170824945Y-69000383D01*
X170833076Y-69008457D01*
X170843138Y-69003308D01*
X171295358Y-68551089D01*
X171300602Y-68540798D01*
X172018585Y-68540798D01*
X172019381Y-68545828D01*
X172476077Y-69002523D01*
X172486935Y-69008055D01*
X172494342Y-69000977D01*
X172532534Y-68933747D01*
X172536449Y-68924952D01*
X172592395Y-68756773D01*
X172594529Y-68747379D01*
X172617001Y-68569493D01*
X172617388Y-68563968D01*
X172617683Y-68542771D01*
X172617451Y-68537241D01*
X172616883Y-68531448D01*
X175782776Y-68531448D01*
X175797607Y-68708068D01*
X175799345Y-68717536D01*
X175848198Y-68887904D01*
X175851749Y-68896872D01*
X175904945Y-69000383D01*
X175913076Y-69008457D01*
X175923138Y-69003308D01*
X176375358Y-68551089D01*
X176381415Y-68539202D01*
X176380619Y-68534172D01*
X175923822Y-68077376D01*
X175913178Y-68071952D01*
X175905564Y-68079331D01*
X175862055Y-68158473D01*
X175858261Y-68167325D01*
X175804673Y-68336258D01*
X175802667Y-68345695D01*
X175782910Y-68521820D01*
X175782776Y-68531448D01*
X172616883Y-68531448D01*
X172599954Y-68358795D01*
X172598084Y-68349347D01*
X172546856Y-68179672D01*
X172543186Y-68170768D01*
X172494868Y-68079894D01*
X172486449Y-68071764D01*
X172476732Y-68076822D01*
X172024642Y-68528911D01*
X172018585Y-68540798D01*
X171300602Y-68540798D01*
X171301415Y-68539202D01*
X171300619Y-68534172D01*
X170843822Y-68077376D01*
X170833178Y-68071952D01*
X170825564Y-68079331D01*
X170782055Y-68158473D01*
X170778261Y-68167325D01*
X170724673Y-68336258D01*
X170722667Y-68345695D01*
X170702910Y-68521820D01*
X170702776Y-68531448D01*
X152973223Y-68531448D01*
X152958719Y-68439874D01*
X152912593Y-68349347D01*
X152901064Y-68326719D01*
X152901063Y-68326717D01*
X152897528Y-68319780D01*
X152802220Y-68224472D01*
X152795283Y-68220937D01*
X152795281Y-68220936D01*
X152786986Y-68216710D01*
X152743722Y-68173446D01*
X152734150Y-68113014D01*
X152761927Y-68058497D01*
X152786986Y-68040290D01*
X152795281Y-68036064D01*
X152795283Y-68036063D01*
X152802220Y-68032528D01*
X152897528Y-67937220D01*
X152958719Y-67817126D01*
X152975158Y-67713331D01*
X171191671Y-67713331D01*
X171196776Y-67723222D01*
X171648911Y-68175358D01*
X171660798Y-68181415D01*
X171665828Y-68180619D01*
X172122727Y-67723719D01*
X172128020Y-67713331D01*
X176271671Y-67713331D01*
X176276776Y-67723222D01*
X176728911Y-68175358D01*
X176740798Y-68181415D01*
X176745828Y-68180619D01*
X177202727Y-67723719D01*
X177208096Y-67713182D01*
X177200567Y-67705468D01*
X177115396Y-67659416D01*
X177106506Y-67655679D01*
X176937198Y-67603269D01*
X176927766Y-67601333D01*
X176751502Y-67582807D01*
X176741864Y-67582740D01*
X176565361Y-67598803D01*
X176555895Y-67600609D01*
X176385878Y-67650648D01*
X176376937Y-67654261D01*
X176279774Y-67705056D01*
X176271671Y-67713331D01*
X172128020Y-67713331D01*
X172128096Y-67713182D01*
X172120567Y-67705468D01*
X172035396Y-67659416D01*
X172026506Y-67655679D01*
X171857198Y-67603269D01*
X171847766Y-67601333D01*
X171671502Y-67582807D01*
X171661864Y-67582740D01*
X171485361Y-67598803D01*
X171475895Y-67600609D01*
X171305878Y-67650648D01*
X171296937Y-67654261D01*
X171199774Y-67705056D01*
X171191671Y-67713331D01*
X152975158Y-67713331D01*
X152979804Y-67684000D01*
X152958719Y-67550874D01*
X152897528Y-67430780D01*
X152802220Y-67335472D01*
X152795283Y-67331937D01*
X152795281Y-67331936D01*
X152689066Y-67277817D01*
X152689065Y-67277817D01*
X152682126Y-67274281D01*
X152674432Y-67273062D01*
X152674431Y-67273062D01*
X152556696Y-67254415D01*
X152549000Y-67253196D01*
X152541304Y-67254415D01*
X152423569Y-67273062D01*
X152423568Y-67273062D01*
X152415874Y-67274281D01*
X152408935Y-67277817D01*
X152408934Y-67277817D01*
X152302719Y-67331936D01*
X152302717Y-67331937D01*
X152295780Y-67335472D01*
X152200472Y-67430780D01*
X152139281Y-67550874D01*
X152118196Y-67684000D01*
X152139281Y-67817126D01*
X152200472Y-67937220D01*
X152295780Y-68032528D01*
X152302717Y-68036063D01*
X152302719Y-68036064D01*
X152311014Y-68040290D01*
X152354278Y-68083554D01*
X152363850Y-68143986D01*
X152336073Y-68198503D01*
X152311014Y-68216710D01*
X152302719Y-68220936D01*
X152302717Y-68220937D01*
X152295780Y-68224472D01*
X152200472Y-68319780D01*
X152196937Y-68326717D01*
X152196936Y-68326719D01*
X152185407Y-68349347D01*
X152139281Y-68439874D01*
X152118196Y-68573000D01*
X151836804Y-68573000D01*
X151815719Y-68439874D01*
X151769593Y-68349347D01*
X151758064Y-68326719D01*
X151758063Y-68326717D01*
X151754528Y-68319780D01*
X151659220Y-68224472D01*
X151652283Y-68220937D01*
X151652281Y-68220936D01*
X151643986Y-68216710D01*
X151600722Y-68173446D01*
X151591150Y-68113014D01*
X151618927Y-68058497D01*
X151643986Y-68040290D01*
X151652281Y-68036064D01*
X151652283Y-68036063D01*
X151659220Y-68032528D01*
X151754528Y-67937220D01*
X151815719Y-67817126D01*
X151836804Y-67684000D01*
X151815719Y-67550874D01*
X151754528Y-67430780D01*
X151659220Y-67335472D01*
X151652283Y-67331937D01*
X151652281Y-67331936D01*
X151546066Y-67277817D01*
X151546065Y-67277817D01*
X151539126Y-67274281D01*
X151531432Y-67273062D01*
X151531431Y-67273062D01*
X151413696Y-67254415D01*
X151406000Y-67253196D01*
X151398304Y-67254415D01*
X151280569Y-67273062D01*
X151280568Y-67273062D01*
X151272874Y-67274281D01*
X151265935Y-67277817D01*
X151265934Y-67277817D01*
X151159719Y-67331936D01*
X151159717Y-67331937D01*
X151152780Y-67335472D01*
X151057472Y-67430780D01*
X150996281Y-67550874D01*
X150975196Y-67684000D01*
X150996281Y-67817126D01*
X151057472Y-67937220D01*
X151152780Y-68032528D01*
X151159717Y-68036063D01*
X151159719Y-68036064D01*
X151168014Y-68040290D01*
X151211278Y-68083554D01*
X151220850Y-68143986D01*
X151193073Y-68198503D01*
X151168014Y-68216710D01*
X151159719Y-68220936D01*
X151159717Y-68220937D01*
X151152780Y-68224472D01*
X151057472Y-68319780D01*
X151053937Y-68326717D01*
X151053936Y-68326719D01*
X151042407Y-68349347D01*
X150996281Y-68439874D01*
X150975196Y-68573000D01*
X146049534Y-68573000D01*
X146050622Y-67049000D01*
X157833196Y-67049000D01*
X157854281Y-67182126D01*
X157915472Y-67302220D01*
X158010780Y-67397528D01*
X158017717Y-67401063D01*
X158017719Y-67401064D01*
X158089659Y-67437719D01*
X158130874Y-67458719D01*
X158138568Y-67459938D01*
X158138569Y-67459938D01*
X158256304Y-67478585D01*
X158264000Y-67479804D01*
X158271696Y-67478585D01*
X158389431Y-67459938D01*
X158389432Y-67459938D01*
X158397126Y-67458719D01*
X158438341Y-67437719D01*
X158510281Y-67401064D01*
X158510283Y-67401063D01*
X158517220Y-67397528D01*
X158612528Y-67302220D01*
X158673719Y-67182126D01*
X158694804Y-67049000D01*
X158673719Y-66915874D01*
X158655224Y-66879575D01*
X158616064Y-66802719D01*
X158616063Y-66802717D01*
X158612528Y-66795780D01*
X158517220Y-66700472D01*
X158510283Y-66696937D01*
X158510281Y-66696936D01*
X158404066Y-66642817D01*
X158404065Y-66642817D01*
X158397126Y-66639281D01*
X158389432Y-66638062D01*
X158389431Y-66638062D01*
X158271696Y-66619415D01*
X158264000Y-66618196D01*
X158256304Y-66619415D01*
X158138569Y-66638062D01*
X158138568Y-66638062D01*
X158130874Y-66639281D01*
X158123935Y-66642817D01*
X158123934Y-66642817D01*
X158017719Y-66696936D01*
X158017717Y-66696937D01*
X158010780Y-66700472D01*
X157915472Y-66795780D01*
X157911937Y-66802717D01*
X157911936Y-66802719D01*
X157872776Y-66879575D01*
X157854281Y-66915874D01*
X157833196Y-67049000D01*
X146050622Y-67049000D01*
X146051348Y-66033000D01*
X147292196Y-66033000D01*
X147313281Y-66166126D01*
X147374472Y-66286220D01*
X147469780Y-66381528D01*
X147476717Y-66385063D01*
X147476719Y-66385064D01*
X147494173Y-66393957D01*
X147589874Y-66442719D01*
X147597568Y-66443938D01*
X147597569Y-66443938D01*
X147715304Y-66462585D01*
X147723000Y-66463804D01*
X147730696Y-66462585D01*
X147848431Y-66443938D01*
X147848432Y-66443938D01*
X147856126Y-66442719D01*
X147951827Y-66393957D01*
X147969281Y-66385064D01*
X147969283Y-66385063D01*
X147976220Y-66381528D01*
X148071528Y-66286220D01*
X148132719Y-66166126D01*
X148153804Y-66033000D01*
X148145697Y-65981813D01*
X148133938Y-65907569D01*
X148133938Y-65907568D01*
X148132719Y-65899874D01*
X148091354Y-65818690D01*
X148075064Y-65786719D01*
X148075063Y-65786717D01*
X148071528Y-65779780D01*
X147976220Y-65684472D01*
X147969283Y-65680937D01*
X147969281Y-65680936D01*
X147863066Y-65626817D01*
X147863065Y-65626817D01*
X147856126Y-65623281D01*
X147848432Y-65622062D01*
X147848431Y-65622062D01*
X147730696Y-65603415D01*
X147723000Y-65602196D01*
X147715304Y-65603415D01*
X147597569Y-65622062D01*
X147597568Y-65622062D01*
X147589874Y-65623281D01*
X147582935Y-65626817D01*
X147582934Y-65626817D01*
X147476719Y-65680936D01*
X147476717Y-65680937D01*
X147469780Y-65684472D01*
X147374472Y-65779780D01*
X147370937Y-65786717D01*
X147370936Y-65786719D01*
X147354646Y-65818690D01*
X147313281Y-65899874D01*
X147312062Y-65907568D01*
X147312062Y-65907569D01*
X147300303Y-65981813D01*
X147292196Y-66033000D01*
X146051348Y-66033000D01*
X146051711Y-65525000D01*
X164564196Y-65525000D01*
X164565415Y-65532696D01*
X164576423Y-65602196D01*
X164585281Y-65658126D01*
X164646472Y-65778220D01*
X164741780Y-65873528D01*
X164748717Y-65877063D01*
X164748719Y-65877064D01*
X164808589Y-65907569D01*
X164861874Y-65934719D01*
X164869568Y-65935938D01*
X164869569Y-65935938D01*
X164987304Y-65954585D01*
X164995000Y-65955804D01*
X165103041Y-65938692D01*
X165163472Y-65948263D01*
X165206737Y-65991528D01*
X165216308Y-66051959D01*
X165199196Y-66160000D01*
X165220281Y-66293126D01*
X165223817Y-66300065D01*
X165223817Y-66300066D01*
X165267126Y-66385064D01*
X165281472Y-66413220D01*
X165376780Y-66508528D01*
X165383717Y-66512063D01*
X165383719Y-66512064D01*
X165454515Y-66548136D01*
X165496874Y-66569719D01*
X165504568Y-66570938D01*
X165504569Y-66570938D01*
X165622304Y-66589585D01*
X165630000Y-66590804D01*
X165637696Y-66589585D01*
X165755431Y-66570938D01*
X165755432Y-66570938D01*
X165763126Y-66569719D01*
X165805485Y-66548136D01*
X165876281Y-66512064D01*
X165876283Y-66512063D01*
X165883220Y-66508528D01*
X165978528Y-66413220D01*
X165992875Y-66385064D01*
X166036183Y-66300066D01*
X166036183Y-66300065D01*
X166039719Y-66293126D01*
X166060804Y-66160000D01*
X166039719Y-66026874D01*
X166036183Y-66019934D01*
X166019209Y-65986621D01*
X173241869Y-65986621D01*
X173245764Y-66033000D01*
X173256943Y-66166126D01*
X173257518Y-66172978D01*
X173258851Y-66177626D01*
X173258851Y-66177627D01*
X173291569Y-66291726D01*
X173309066Y-66352746D01*
X173394549Y-66519078D01*
X173510711Y-66665638D01*
X173514391Y-66668770D01*
X173514393Y-66668772D01*
X173547486Y-66696936D01*
X173653129Y-66786845D01*
X173657352Y-66789205D01*
X173657356Y-66789208D01*
X173763246Y-66848388D01*
X173816376Y-66878081D01*
X173820974Y-66879575D01*
X173989630Y-66934375D01*
X173989632Y-66934376D01*
X173994235Y-66935871D01*
X174179932Y-66958014D01*
X174184754Y-66957643D01*
X174184756Y-66957643D01*
X174361566Y-66944038D01*
X174361571Y-66944037D01*
X174366394Y-66943666D01*
X174546517Y-66893375D01*
X174550835Y-66891194D01*
X174709121Y-66811238D01*
X174709123Y-66811237D01*
X174713442Y-66809055D01*
X174721552Y-66802719D01*
X174856995Y-66696900D01*
X174856997Y-66696898D01*
X174860810Y-66693919D01*
X174983008Y-66552351D01*
X175075381Y-66389745D01*
X175134412Y-66212293D01*
X175157850Y-66026755D01*
X175158224Y-66000000D01*
X175157954Y-65997244D01*
X175140447Y-65818690D01*
X175140446Y-65818686D01*
X175139975Y-65813880D01*
X175138578Y-65809252D01*
X175087321Y-65639481D01*
X175087319Y-65639476D01*
X175085922Y-65634849D01*
X174998125Y-65469727D01*
X174879928Y-65324803D01*
X174735832Y-65205596D01*
X174571327Y-65116649D01*
X174562108Y-65113795D01*
X174498794Y-65094196D01*
X174392678Y-65061347D01*
X174387868Y-65060841D01*
X174387866Y-65060841D01*
X174211506Y-65042305D01*
X174211504Y-65042305D01*
X174206690Y-65041799D01*
X174147030Y-65047229D01*
X174025267Y-65058310D01*
X174025264Y-65058311D01*
X174020447Y-65058749D01*
X174015805Y-65060115D01*
X174015801Y-65060116D01*
X173845690Y-65110182D01*
X173845687Y-65110183D01*
X173841043Y-65111550D01*
X173826879Y-65118955D01*
X173679609Y-65195945D01*
X173679605Y-65195948D01*
X173675312Y-65198192D01*
X173671536Y-65201228D01*
X173671533Y-65201230D01*
X173533338Y-65312342D01*
X173529566Y-65315375D01*
X173526457Y-65319080D01*
X173526454Y-65319083D01*
X173412473Y-65454920D01*
X173409356Y-65458635D01*
X173319262Y-65622515D01*
X173317799Y-65627128D01*
X173317797Y-65627132D01*
X173296753Y-65693472D01*
X173262715Y-65800774D01*
X173262175Y-65805586D01*
X173262175Y-65805587D01*
X173245326Y-65955804D01*
X173241869Y-65986621D01*
X166019209Y-65986621D01*
X165982064Y-65913719D01*
X165982063Y-65913717D01*
X165978528Y-65906780D01*
X165883220Y-65811472D01*
X165876283Y-65807937D01*
X165876281Y-65807936D01*
X165770066Y-65753817D01*
X165770065Y-65753817D01*
X165763126Y-65750281D01*
X165755432Y-65749062D01*
X165755431Y-65749062D01*
X165637696Y-65730415D01*
X165630000Y-65729196D01*
X165521959Y-65746308D01*
X165461528Y-65736737D01*
X165418263Y-65693472D01*
X165408692Y-65633040D01*
X165424585Y-65532696D01*
X165425804Y-65525000D01*
X165415293Y-65458635D01*
X165405938Y-65399569D01*
X165405938Y-65399568D01*
X165404719Y-65391874D01*
X165365741Y-65315375D01*
X165347064Y-65278719D01*
X165347063Y-65278717D01*
X165343528Y-65271780D01*
X165248220Y-65176472D01*
X165241283Y-65172937D01*
X165241281Y-65172936D01*
X165135066Y-65118817D01*
X165135065Y-65118817D01*
X165128126Y-65115281D01*
X165120432Y-65114062D01*
X165120431Y-65114062D01*
X165002696Y-65095415D01*
X164995000Y-65094196D01*
X164987304Y-65095415D01*
X164869569Y-65114062D01*
X164869568Y-65114062D01*
X164861874Y-65115281D01*
X164854935Y-65118817D01*
X164854934Y-65118817D01*
X164748719Y-65172936D01*
X164748717Y-65172937D01*
X164741780Y-65176472D01*
X164646472Y-65271780D01*
X164642937Y-65278717D01*
X164642936Y-65278719D01*
X164624259Y-65315375D01*
X164585281Y-65391874D01*
X164584062Y-65399568D01*
X164584062Y-65399569D01*
X164574707Y-65458635D01*
X164564196Y-65525000D01*
X146051711Y-65525000D01*
X146052596Y-64286862D01*
X171191966Y-64286862D01*
X171199194Y-64294373D01*
X171272353Y-64335260D01*
X171281175Y-64339115D01*
X171449738Y-64393885D01*
X171459151Y-64395954D01*
X171635141Y-64416939D01*
X171644768Y-64417141D01*
X171821479Y-64403544D01*
X171830970Y-64401870D01*
X172001675Y-64354208D01*
X172010655Y-64350726D01*
X172120580Y-64295198D01*
X172128618Y-64287216D01*
X172128438Y-64286862D01*
X176271966Y-64286862D01*
X176279194Y-64294373D01*
X176352353Y-64335260D01*
X176361175Y-64339115D01*
X176529738Y-64393885D01*
X176539151Y-64395954D01*
X176715141Y-64416939D01*
X176724768Y-64417141D01*
X176901479Y-64403544D01*
X176910970Y-64401870D01*
X177081675Y-64354208D01*
X177090655Y-64350726D01*
X177200580Y-64295198D01*
X177208618Y-64287216D01*
X177203425Y-64276979D01*
X176751089Y-63824642D01*
X176739202Y-63818585D01*
X176734172Y-63819381D01*
X176277444Y-64276110D01*
X176271966Y-64286862D01*
X172128438Y-64286862D01*
X172123425Y-64276979D01*
X171671089Y-63824642D01*
X171659202Y-63818585D01*
X171654172Y-63819381D01*
X171197444Y-64276110D01*
X171191966Y-64286862D01*
X146052596Y-64286862D01*
X146053011Y-63705490D01*
X147889149Y-63705490D01*
X147910234Y-63838616D01*
X147913770Y-63845555D01*
X147913770Y-63845556D01*
X147953387Y-63923308D01*
X147971425Y-63958710D01*
X148066733Y-64054018D01*
X148073670Y-64057553D01*
X148073672Y-64057554D01*
X148179887Y-64111673D01*
X148186827Y-64115209D01*
X148194521Y-64116428D01*
X148194522Y-64116428D01*
X148312257Y-64135075D01*
X148319953Y-64136294D01*
X148327649Y-64135075D01*
X148445384Y-64116428D01*
X148445385Y-64116428D01*
X148453079Y-64115209D01*
X148460019Y-64111673D01*
X148566234Y-64057554D01*
X148566236Y-64057553D01*
X148573173Y-64054018D01*
X148668481Y-63958710D01*
X148686520Y-63923308D01*
X148726136Y-63845556D01*
X148726136Y-63845555D01*
X148729672Y-63838616D01*
X148750757Y-63705490D01*
X148729672Y-63572364D01*
X148678070Y-63471089D01*
X148672017Y-63459209D01*
X148672016Y-63459207D01*
X148668481Y-63452270D01*
X148667659Y-63451448D01*
X170702776Y-63451448D01*
X170717607Y-63628068D01*
X170719345Y-63637536D01*
X170768198Y-63807904D01*
X170771749Y-63816872D01*
X170824945Y-63920383D01*
X170833076Y-63928457D01*
X170843138Y-63923308D01*
X171295358Y-63471089D01*
X171300602Y-63460798D01*
X172018585Y-63460798D01*
X172019381Y-63465828D01*
X172476077Y-63922523D01*
X172486935Y-63928055D01*
X172494342Y-63920977D01*
X172532534Y-63853747D01*
X172536449Y-63844952D01*
X172592395Y-63676773D01*
X172594529Y-63667379D01*
X172617001Y-63489493D01*
X172617388Y-63483968D01*
X172617683Y-63462771D01*
X172617451Y-63457241D01*
X172616883Y-63451448D01*
X175782776Y-63451448D01*
X175797607Y-63628068D01*
X175799345Y-63637536D01*
X175848198Y-63807904D01*
X175851749Y-63816872D01*
X175904945Y-63920383D01*
X175913076Y-63928457D01*
X175923138Y-63923308D01*
X176375358Y-63471089D01*
X176381415Y-63459202D01*
X176380619Y-63454172D01*
X175923822Y-62997376D01*
X175913178Y-62991952D01*
X175905564Y-62999331D01*
X175862055Y-63078473D01*
X175858261Y-63087325D01*
X175804673Y-63256258D01*
X175802667Y-63265695D01*
X175782910Y-63441820D01*
X175782776Y-63451448D01*
X172616883Y-63451448D01*
X172599954Y-63278795D01*
X172598084Y-63269347D01*
X172546856Y-63099672D01*
X172543186Y-63090768D01*
X172494868Y-62999894D01*
X172486449Y-62991764D01*
X172476732Y-62996822D01*
X172024642Y-63448911D01*
X172018585Y-63460798D01*
X171300602Y-63460798D01*
X171301415Y-63459202D01*
X171300619Y-63454172D01*
X170843822Y-62997376D01*
X170833178Y-62991952D01*
X170825564Y-62999331D01*
X170782055Y-63078473D01*
X170778261Y-63087325D01*
X170724673Y-63256258D01*
X170722667Y-63265695D01*
X170702910Y-63441820D01*
X170702776Y-63451448D01*
X148667659Y-63451448D01*
X148573173Y-63356962D01*
X148566236Y-63353427D01*
X148566234Y-63353426D01*
X148460019Y-63299307D01*
X148460018Y-63299307D01*
X148453079Y-63295771D01*
X148445385Y-63294552D01*
X148445384Y-63294552D01*
X148327649Y-63275905D01*
X148319953Y-63274686D01*
X148312257Y-63275905D01*
X148194522Y-63294552D01*
X148194521Y-63294552D01*
X148186827Y-63295771D01*
X148179888Y-63299307D01*
X148179887Y-63299307D01*
X148073672Y-63353426D01*
X148073670Y-63353427D01*
X148066733Y-63356962D01*
X147971425Y-63452270D01*
X147967890Y-63459207D01*
X147967889Y-63459209D01*
X147961836Y-63471089D01*
X147910234Y-63572364D01*
X147889149Y-63705490D01*
X146053011Y-63705490D01*
X146053777Y-62633331D01*
X171191671Y-62633331D01*
X171196776Y-62643222D01*
X171648911Y-63095358D01*
X171660798Y-63101415D01*
X171665828Y-63100619D01*
X172122727Y-62643719D01*
X172128020Y-62633331D01*
X176271671Y-62633331D01*
X176276776Y-62643222D01*
X176728911Y-63095358D01*
X176740798Y-63101415D01*
X176745828Y-63100619D01*
X177202727Y-62643719D01*
X177208096Y-62633182D01*
X177200567Y-62625468D01*
X177115396Y-62579416D01*
X177106506Y-62575679D01*
X176937198Y-62523269D01*
X176927766Y-62521333D01*
X176751502Y-62502807D01*
X176741864Y-62502740D01*
X176565361Y-62518803D01*
X176555895Y-62520609D01*
X176385878Y-62570648D01*
X176376937Y-62574261D01*
X176279774Y-62625056D01*
X176271671Y-62633331D01*
X172128020Y-62633331D01*
X172128096Y-62633182D01*
X172120567Y-62625468D01*
X172035396Y-62579416D01*
X172026506Y-62575679D01*
X171857198Y-62523269D01*
X171847766Y-62521333D01*
X171671502Y-62502807D01*
X171661864Y-62502740D01*
X171485361Y-62518803D01*
X171475895Y-62520609D01*
X171305878Y-62570648D01*
X171296937Y-62574261D01*
X171199774Y-62625056D01*
X171191671Y-62633331D01*
X146053777Y-62633331D01*
X146056338Y-59048000D01*
X163294196Y-59048000D01*
X163315281Y-59181126D01*
X163318817Y-59188065D01*
X163318817Y-59188066D01*
X163340748Y-59231107D01*
X163376472Y-59301220D01*
X163471780Y-59396528D01*
X163478717Y-59400063D01*
X163478719Y-59400064D01*
X163584934Y-59454183D01*
X163591874Y-59457719D01*
X163599568Y-59458938D01*
X163599569Y-59458938D01*
X163717304Y-59477585D01*
X163725000Y-59478804D01*
X163732696Y-59477585D01*
X163850431Y-59458938D01*
X163850432Y-59458938D01*
X163858126Y-59457719D01*
X163865066Y-59454183D01*
X163952275Y-59409748D01*
X165595500Y-59409748D01*
X165596448Y-59414512D01*
X165604339Y-59454183D01*
X165607133Y-59468231D01*
X165651448Y-59534552D01*
X165717769Y-59578867D01*
X165727332Y-59580769D01*
X165727334Y-59580770D01*
X165750005Y-59585279D01*
X165776252Y-59590500D01*
X167515748Y-59590500D01*
X167541995Y-59585279D01*
X167564666Y-59580770D01*
X167564668Y-59580769D01*
X167574231Y-59578867D01*
X167640552Y-59534552D01*
X167684867Y-59468231D01*
X167687662Y-59454183D01*
X167695552Y-59414512D01*
X167696500Y-59409748D01*
X167696500Y-59000000D01*
X173644341Y-59000000D01*
X173664937Y-59235408D01*
X173726097Y-59463663D01*
X173825965Y-59677829D01*
X173961505Y-59871401D01*
X174128599Y-60038495D01*
X174322171Y-60174035D01*
X174536337Y-60273903D01*
X174764592Y-60335063D01*
X174849431Y-60342486D01*
X174938870Y-60350311D01*
X174938878Y-60350311D01*
X174941034Y-60350500D01*
X175058966Y-60350500D01*
X175061122Y-60350311D01*
X175061130Y-60350311D01*
X175150569Y-60342486D01*
X175235408Y-60335063D01*
X175463663Y-60273903D01*
X175677829Y-60174035D01*
X175871401Y-60038495D01*
X176038495Y-59871401D01*
X176171554Y-59681374D01*
X176171554Y-59681373D01*
X176174035Y-59677830D01*
X176273903Y-59463663D01*
X176335063Y-59235408D01*
X176355659Y-59000000D01*
X176335063Y-58764592D01*
X176273903Y-58536337D01*
X176174035Y-58322171D01*
X176038495Y-58128599D01*
X175871401Y-57961505D01*
X175677829Y-57825965D01*
X175463663Y-57726097D01*
X175235408Y-57664937D01*
X175150569Y-57657514D01*
X175061130Y-57649689D01*
X175061122Y-57649689D01*
X175058966Y-57649500D01*
X174941034Y-57649500D01*
X174938878Y-57649689D01*
X174938870Y-57649689D01*
X174849431Y-57657514D01*
X174764592Y-57664937D01*
X174536337Y-57726097D01*
X174322171Y-57825965D01*
X174128599Y-57961505D01*
X173961505Y-58128599D01*
X173959026Y-58132140D01*
X173828447Y-58318625D01*
X173828446Y-58318627D01*
X173825965Y-58322170D01*
X173726097Y-58536337D01*
X173664937Y-58764592D01*
X173644341Y-59000000D01*
X167696500Y-59000000D01*
X167696500Y-57670252D01*
X167684867Y-57611769D01*
X167640552Y-57545448D01*
X167574231Y-57501133D01*
X167564668Y-57499231D01*
X167564666Y-57499230D01*
X167541995Y-57494721D01*
X167515748Y-57489500D01*
X165776252Y-57489500D01*
X165750005Y-57494721D01*
X165727334Y-57499230D01*
X165727332Y-57499231D01*
X165717769Y-57501133D01*
X165651448Y-57545448D01*
X165607133Y-57611769D01*
X165595500Y-57670252D01*
X165595500Y-59409748D01*
X163952275Y-59409748D01*
X163971281Y-59400064D01*
X163971283Y-59400063D01*
X163978220Y-59396528D01*
X164073528Y-59301220D01*
X164109253Y-59231107D01*
X164131183Y-59188066D01*
X164131183Y-59188065D01*
X164134719Y-59181126D01*
X164155804Y-59048000D01*
X164134719Y-58914874D01*
X164073528Y-58794780D01*
X163978220Y-58699472D01*
X163971283Y-58695937D01*
X163971281Y-58695936D01*
X163865066Y-58641817D01*
X163865065Y-58641817D01*
X163858126Y-58638281D01*
X163850432Y-58637062D01*
X163850431Y-58637062D01*
X163732696Y-58618415D01*
X163725000Y-58617196D01*
X163717304Y-58618415D01*
X163599569Y-58637062D01*
X163599568Y-58637062D01*
X163591874Y-58638281D01*
X163584935Y-58641817D01*
X163584934Y-58641817D01*
X163478719Y-58695936D01*
X163478717Y-58695937D01*
X163471780Y-58699472D01*
X163376472Y-58794780D01*
X163315281Y-58914874D01*
X163294196Y-59048000D01*
X146056338Y-59048000D01*
X146058301Y-56298928D01*
X146077250Y-56240752D01*
X146126776Y-56204824D01*
X146157301Y-56200000D01*
X177701000Y-56200000D01*
X177759191Y-56218907D01*
G37*
G04 #@! TD.AperFunction*
M02*
